<?xml version="1.0" encoding="utf-8"?>
<!-- Generator: Adobe Illustrator 19.2.1, SVG Export Plug-In . SVG Version: 6.00 Build 0)  -->
<svg version="1.1" id="图层_1" xmlns="http://www.w3.org/2000/svg" xmlns:xlink="http://www.w3.org/1999/xlink" x="0px" y="0px"
	 viewBox="0 0 184 64.1289978" style="enable-background:new 0 0 184 64.1289978;" xml:space="preserve">
<style type="text/css">
	.st0{fill:#F7CE3C;}
	.st1{clip-path:url(#SVGID_2_);fill:url(#XMLID_2_);}
	.st2{clip-path:url(#SVGID_4_);fill:url(#XMLID_15_);}
	.st3{clip-path:url(#SVGID_6_);fill:url(#XMLID_21_);}
	.st4{fill:#FFFFFF;}
</style>
<g>
	<g id="XMLID_19_">
		<path id="XMLID_29_" class="st0" d="M49.6751747,9.4803667c0.7014809,0,1.4029617,0.1875038,2.0575409,0.5658846
			l5.3371849,3.0821238l5.3372345,3.0804377c1.3075256,0.756712,2.0575409,2.0541706,2.0575409,3.565958v6.1541824v6.1474895
			c0,1.511734-0.7500153,2.8092461-2.0575409,3.56427l-5.3405571,3.0821228l0.0033226,0.0050087l-5.3371849,3.0821228
			c-0.6545792,0.3783836-1.35606,0.5675201-2.0575409,0.5675201V35.603878c0.7014809,0,1.4029617-0.1891899,2.0575409-0.5675201
			l2.3973999-1.382885h0.0116997l2.3857002-1.3778267c1.307476-0.755024,2.0574913-2.0524826,2.0574913-3.56427v-2.782423
			v-2.7757816c0-1.5117359-0.7500153-2.8091946-2.0574913-3.56427l-2.3973999-1.3845196l-2.3973999-1.3845196
			c-0.6545792-0.3783798-1.35606-0.5675201-2.0575409-0.5675201V9.4803667z M28.0953522,3.8418465l2.5128651,1.451448h0.0117512
			l8.0861435,4.6692185c1.3092117,0.7550764,2.059227,2.0542212,2.059227,3.564271v0.4771404l1.5134239-0.8755493
			l5.3371849-3.0821238c0.6546288-0.3783808,1.3561096-0.5658846,2.059227-0.5658846v6.7719755
			c-0.7031174,0-1.4029121,0.1891403-2.059227,0.5675201l-2.3957176,1.3845196l-2.3990326,1.3845196
			c-1.3075256,0.7550755-2.0558586,2.0525341-2.0558586,3.56427v2.7757816v2.782423
			c0,1.5117874,0.748333,2.8092461,2.0575447,3.56427l2.3856468,1.3778267h0.0116997l2.3957176,1.382885
			c0.6563148,0.3783302,1.3561096,0.5675201,2.059227,0.5675201v6.7736092c-0.7031174,0-1.4045982-0.1891365-2.059227-0.5675201
			l-5.3371849-3.0821228l0.0033722-0.0050087l-2.305336-1.3292885c-1.3092117-0.755024-2.8058739-0.7567101-4.1150856,0
			l-1.9068222,1.1015778l0.5373764,0.3097153l4.3645134,2.5129166c1.3075218,0.7550735,2.0575409,2.052536,2.0575409,3.56427
			v5.01577v5.0107651c0,1.511734-0.7500191,2.8091927-2.0591774,3.56427l-4.3628769,2.5196075l-4.3410606,2.506176
			c-0.6529446,0.3766937-1.3544254,0.5658836-2.0558548,0.5658836v-6.7585373c0.7014294,0,1.4029102-0.1891899,2.0558548-0.5675735
			l1.4246769-0.8220062l1.3995914-0.8086166c1.3092079-0.755024,2.059227-2.0524864,2.059227-3.56427v-1.6456985V48.260479
			c0-1.511734-0.7500191-2.8092461-2.059227-3.56427l-1.4112911-0.8153114l0.0033207-0.0050087l-1.4162979-0.8169975
			c-0.6529446-0.3783798-1.3544254-0.5675201-2.0558548-0.5675201v-7.3863983l4.7311401-2.7338867
			c1.3092117-0.7550259,2.0575409-2.052536,2.0575409-3.5642719v-2.877861v-3.0737457v-3.7685318v-1.6892262v-0.4922123
			c0-1.5117359-0.7483292-2.8091955-2.0575409-3.5642719l-4.7311401-2.7322006V3.8418465z M22.5321407,0.6307686
			l5.5632114,3.2110779v6.7669182l-0.4152184-0.2394123l0.0016861-0.0066929l-5.1496792-2.9716139
			c-1.3092117-0.7550759-2.8059254-0.756711-4.1150856,0l-5.1497307,2.9716139l0.0033722,0.0066929l-5.1480446,2.9716129
			c-1.3091598,0.7550764-2.0575423,2.052536-2.0575423,3.5642719v5.9499702v5.9516068
			c0,1.5117359,0.7483826,2.8092461,2.0575423,3.5642719l5.1480446,2.9732971l-0.0033722,0.0050087l7.2022152,4.156929
			l1.2154579-0.7014809h0.0116997l4.938776-2.8510399l1.0463467-0.6044083l-0.0016861-0.0050087l0.4152184-0.2394104v7.3863983
			c-0.7031689,0-1.4046497,0.1891403-2.0592289,0.5675201L24.62146,43.8758888l0.0033722,0.0050087l-1.4113407,0.8153114
			c-1.3091602,0.755024-2.0592289,2.052536-2.0592289,3.56427v1.6373177v1.6390038c0,1.5101013,0.7500687,2.80756,2.0592289,3.56427
			l1.4113407,0.8153114L24.62146,55.9213905l1.4146633,0.8169975c0.6545792,0.3783836,1.35606,0.5675735,2.0592289,0.5675735
			v6.7585373c-0.7031689,0-1.4046497-0.1891899-2.0592289-0.5658836l-4.339426-2.506176h-0.0116997l-4.3528118-2.5129166
			c-1.3091583-0.755024-2.0575418-2.052536-2.0575418-3.56427v-5.0174561V45.643795
			c0-1.5117874-0.7483311-2.8092461-2.0575418-3.56427l-2.8744898-1.6590843H10.330862l-8.0878296-4.6692162
			c-1.3091593-0.7567635-2.0575423-2.0542221-2.0575423-3.5659561v-9.330061v-9.3284235
			c0-1.5100498,0.7500178-2.8091946,2.0575423-3.564271l8.0878296-4.6692185h0.0117502l8.0744429-4.6625257
			C19.7262154-0.1242562,21.222929-0.1242562,22.5321407,0.6307686"/>
		<g id="XMLID_26_">
			<g>
				<defs>
					<path id="SVGID_1_" d="M26.2437572,42.9470024c1.2572517-0.6428795,2.6669064-0.6043587,3.9074497,0.110508l1.4163494,0.818634
						l-0.0033722,0.0050583l1.4113407,0.8153114c1.2673149,0.7299385,2.010643,1.9721184,2.0558586,3.4202957l5.6335106-4.6792831
						c-0.3197289-0.8806076-0.9408417-1.6205597-1.8097496-2.1194649l-4.3628235-2.5129166l-0.5374298-0.3114014
						L26.2437572,42.9470024z"/>
				</defs>
				<clipPath id="SVGID_2_">
					<use xlink:href="#SVGID_1_"  style="overflow:visible;"/>
				</clipPath>
				
					<linearGradient id="XMLID_2_" gradientUnits="userSpaceOnUse" x1="-1164.411499" y1="212.9871216" x2="-1162.7373047" y2="212.9871216" gradientTransform="matrix(-5.6873941 -4.510942 4.510942 -5.6873941 -7546.1899414 -3995.0939941)">
					<stop  offset="0" style="stop-color:#F7CE3C"/>
					<stop  offset="1" style="stop-color:#D07A2D"/>
				</linearGradient>
				<polygon id="XMLID_28_" class="st1" points="35.0960121,55.1380615 21.558548,44.4008522 31.8125381,31.4726467 
					45.3500023,42.2098083 				"/>
			</g>
		</g>
		<g id="XMLID_23_">
			<g>
				<defs>
					<path id="SVGID_3_" d="M47.6159973,10.0465069l-5.3371849,3.0821238l-1.5134735,0.8755999v9.147562
						c0-1.5100498,0.7483826-2.80756,2.0558586-3.5625858l2.399086-1.3845177l2.3973999-1.3845196
						c1.3075256-0.7550755,2.8058739-0.7550755,4.1150856,0l1.1115875,0.6428795v-6.7736616l-1.1099548-0.6428804
						c-0.6545792-0.3783293-1.3577461-0.5675201-2.0591774-0.5675201
						C48.9720573,9.4789867,48.2705765,9.6681776,47.6159973,10.0465069"/>
				</defs>
				<clipPath id="SVGID_4_">
					<use xlink:href="#SVGID_3_"  style="overflow:visible;"/>
				</clipPath>
				
					<linearGradient id="XMLID_15_" gradientUnits="userSpaceOnUse" x1="-1153.8487549" y1="129.4849091" x2="-1152.1746826" y2="129.4849091" gradientTransform="matrix(-6.8193951 0 0 -6.8193951 -7815.5898438 899.3242188)">
					<stop  offset="0" style="stop-color:#F7CE3C"/>
					<stop  offset="1" style="stop-color:#D07A2D"/>
				</linearGradient>
				<rect id="XMLID_25_" x="40.7652893" y="9.4790382" class="st2" width="12.0790176" height="13.6728058"/>
			</g>
		</g>
		<g id="XMLID_20_">
			<g>
				<defs>
					<path id="SVGID_5_" d="M3.9406381,36.7292099l6.3885884,3.6898003h0.0133858l2.8745413,1.6591339
						c1.3091593,0.7567139,2.0575418,2.0541725,2.0575418,3.5659065v-0.7617188c0-1.5117836,0.7500181-2.80756,2.0575418-3.56427
						l3.1373539-1.8114357l-7.2022152-4.156929l0.0033207-0.006691l-5.147994-2.9716148
						c-0.3147721-0.1808128-0.5960288-0.3934517-0.84377-0.6345005L3.9406381,36.7292099z"/>
				</defs>
				<clipPath id="SVGID_6_">
					<use xlink:href="#SVGID_5_"  style="overflow:visible;"/>
				</clipPath>
				
					<linearGradient id="XMLID_21_" gradientUnits="userSpaceOnUse" x1="-942.9646606" y1="202.5828857" x2="-941.2905273" y2="202.5828857" gradientTransform="matrix(8.1420937 4.70084 -4.70084 8.1420937 8636.8984375 2818.8947754)">
					<stop  offset="0" style="stop-color:#F7CE3C"/>
					<stop  offset="1" style="stop-color:#D07A2D"/>
				</linearGradient>
				<polygon id="XMLID_22_" class="st3" points="8.0728893,24.5796356 26.4916,35.2136955 16.3373394,52.8013573 
					-2.081372,42.1673012 				"/>
			</g>
		</g>
	</g>
	<g id="XMLID_3_">
		<g id="XMLID_4_">
			<polygon id="XMLID_18_" class="st4" points="75.2179947,20.9833279 80.5852814,20.9833279 85.8696976,34.8505058 
				91.2089691,20.9833279 96.5213928,20.9833279 96.5213928,40.7770805 93.1669464,40.7770805 93.1669464,24.3377743 
				93.1109238,24.3377743 87.1002808,40.7770805 84.6402054,40.7770805 78.6284714,24.3377743 78.5724106,24.3377743 
				78.5724106,40.7770805 75.2179947,40.7770805 			"/>
			<rect id="XMLID_17_" x="100.9387665" y="20.9831905" class="st4" width="3.5225525" height="19.7937527"/>
			<path id="XMLID_16_" class="st4" d="M122.3824997,25.6243839c-0.7273941-0.7822876-1.431221-1.3045311-2.1104202-1.56567
				c-0.681427-0.2611389-1.3662033-0.3911457-2.0554581-0.3911457c-1.0255051,0-1.9523697,0.1815491-2.7817154,0.5446815
				c-0.8293915,0.3642273-1.5421753,0.8674526-2.1384354,1.5096474c-0.5973511,0.643322-1.0579987,1.3942451-1.3841248,2.2504807
				c-0.3261566,0.8573971-0.4897842,1.7809086-0.4897842,2.7682781c0,1.0624771,0.1636276,2.0409184,0.4897842,2.9352894
				c0.3261261,0.8954659,0.7867737,1.6687927,1.3841248,2.3210754c0.5962601,0.6522827,1.3090439,1.1644707,2.1384354,1.537693
				c0.8293457,0.3732224,1.7562103,0.5592537,2.7817154,0.5592537c0.8013382,0,1.5791473-0.1916389,2.334549-0.573822
				c0.7542419-0.3821831,1.458107-0.9918861,2.1103897-1.8313255l2.908371,2.0689316
				c-0.894371,1.230587-1.9859848,2.124958-3.2714996,2.6842079c-1.2855225,0.5592499-2.6561966,0.8383484-4.1098251,0.8383484
				c-1.5287247,0-2.930809-0.2465706-4.2073288-0.7408371c-1.2765503-0.4931374-2.3760376-1.192482-3.2995148-2.0969429
				c-0.9223862-0.9033318-1.6452942-1.9893417-2.1664429-3.2569351c-0.5222778-1.2664642-0.7822876-2.674118-0.7822876-4.2207718
				c0-1.5847569,0.2600098-3.0238075,0.7822876-4.3205414c0.5211487-1.2944756,1.2440567-2.3984089,2.1664429-3.3129597
				c0.9234772-0.9122925,2.0229645-1.6161194,3.2995148-2.1103859c1.2765198-0.4931355,2.6786041-0.7408333,4.2073288-0.7408333
				c1.3415451,0,2.5855713,0.237608,3.7321167,0.712822c1.146553,0.4751797,2.2135086,1.2821293,3.2020035,2.4185886
				L122.3824997,25.6243839z"/>
			<rect id="XMLID_14_" x="136.6674652" y="20.9831905" class="st4" width="3.5225525" height="19.7937527"/>
			<polygon id="XMLID_13_" class="st4" points="144.6079407,20.9833279 149.9752197,20.9833279 155.2596436,34.8505058 
				160.5989075,20.9833279 165.9113312,20.9833279 165.9113312,40.7770805 162.5568848,40.7770805 162.5568848,24.3377743 
				162.5008698,24.3377743 156.4902191,40.7770805 154.0301514,40.7770805 148.0184021,24.3377743 147.9623566,24.3377743 
				147.9623566,40.7770805 144.6079407,40.7770805 			"/>
			<path id="XMLID_12_" class="st4" d="M180.1142883,25.2328987c-0.37323-0.5402012-0.8719635-0.9369545-1.4962463-1.1880035
				c-0.6242676-0.2521439-1.2810364-0.3776684-1.9702911-0.3776684c-0.4101868,0-0.8069458,0.0470638-1.1891327,0.1400948
				c-0.3821716,0.0929985-0.7262268,0.242054-1.0344543,0.4471684c-0.3070831,0.2051144-0.5536499,0.4707336-0.740799,0.7968597
				c-0.1860657,0.3261585-0.2790985,0.712822-0.2790985,1.1599903c0,0.6713333,0.2331238,1.1835213,0.6993713,1.537693
				c0.4651031,0.3541355,1.0434265,0.6623726,1.7326965,0.9223824c0.6892548,0.2611389,1.4446564,0.5132828,2.2650452,0.7553711
				s1.5746613,0.5783367,2.2639618,1.0064526c0.6892548,0.4292469,1.2675476,0.9974937,1.7338104,1.7046738
				c0.466217,0.7094345,0.6993408,1.6497726,0.6993408,2.8243027c0,1.0625114-0.1961517,1.9893761-0.5872955,2.7817535
				s-0.9189911,1.4491425-1.5791473,1.9714203c-0.6623688,0.5211487-1.4311829,0.9134216-2.3065033,1.1734314
				c-0.8764496,0.2611389-1.7999573,0.3922386-2.76828,0.3922386c-1.2305908,0-2.4141083-0.2062111-3.5505676-0.6152763
				c-1.1375885-0.4101944-2.1159973-1.0994873-2.9363861-2.0689316l2.656189-2.5721245
				c0.4292603,0.6522827,0.992981,1.1599541,1.692337,1.5230865c0.6982422,0.3642616,1.4390869,0.5458107,2.2224579,0.5458107
				c0.4091034,0,0.8193054-0.0560226,1.2294922-0.1681061c0.410202-0.1120834,0.7834167-0.2790642,1.1184998-0.5032272
				c0.3362579-0.2230377,0.6052246-0.5077095,0.8103485-0.8528824c0.2050781-0.3440819,0.308197-0.7408371,0.308197-1.1880035
				c0-0.726265-0.2331238-1.2855148-0.6993408-1.6777878c-0.4662628-0.3911438-1.0434418-0.7217827-1.7327271-0.9918823
				c-0.6903839-0.2701035-1.445755-0.5267601-2.2650452-0.7688141c-0.8203888-0.2420883-1.5746765-0.5727272-2.2639313-0.9930115
				c-0.6903839-0.419157-1.2687225-0.9784088-1.7338104-1.6766605c-0.4662476-0.6993446-0.6993713-1.6362991-0.6993713-2.8097305
				c0-1.0255051,0.2095947-1.9109154,0.6287384-2.6561966c0.4202881-0.7453136,0.9694824-1.3651047,1.6497803-1.8593712
				c0.6802979-0.493103,1.4580994-0.8618431,2.334549-1.1039314c0.8764191-0.2420883,1.7707977-0.3642597,2.6842194-0.3642597
				c1.0434265,0,2.0554504,0.1591454,3.0338898,0.475214c0.9773102,0.3171635,1.8582153,0.8394413,2.6416321,1.5657043
				L180.1142883,25.2328987z"/>
			<polygon id="XMLID_11_" class="st4" points="75.2179947,20.9833279 80.5852814,20.9833279 85.8696976,34.8505058 
				91.2089691,20.9833279 96.5213928,20.9833279 96.5213928,40.7770805 93.1669464,40.7770805 93.1669464,24.3377743 
				93.1109238,24.3377743 87.1002808,40.7770805 84.6402054,40.7770805 78.6284714,24.3377743 78.5724106,24.3377743 
				78.5724106,40.7770805 75.2179947,40.7770805 			"/>
			<rect id="XMLID_10_" x="100.9387665" y="20.9831905" class="st4" width="3.5225525" height="19.7937527"/>
			<path id="XMLID_9_" class="st4" d="M122.3824997,25.6243839c-0.7273941-0.7822876-1.431221-1.3045311-2.1104202-1.56567
				c-0.681427-0.2611389-1.3662033-0.3911457-2.0554581-0.3911457c-1.0255051,0-1.9523697,0.1815491-2.7817154,0.5446815
				c-0.8293915,0.3642273-1.5421753,0.8674526-2.1384354,1.5096474c-0.5973511,0.643322-1.0579987,1.3942451-1.3841248,2.2504807
				c-0.3261566,0.8573971-0.4897842,1.7809086-0.4897842,2.7682781c0,1.0624771,0.1636276,2.0409184,0.4897842,2.9352894
				c0.3261261,0.8954659,0.7867737,1.6687927,1.3841248,2.3210754c0.5962601,0.6522827,1.3090439,1.1644707,2.1384354,1.537693
				c0.8293457,0.3732224,1.7562103,0.5592537,2.7817154,0.5592537c0.8013382,0,1.5791473-0.1916389,2.334549-0.573822
				c0.7542419-0.3821831,1.458107-0.9918861,2.1103897-1.8313255l2.908371,2.0689316
				c-0.894371,1.230587-1.9859848,2.124958-3.2714996,2.6842079c-1.2855225,0.5592499-2.6561966,0.8383484-4.1098251,0.8383484
				c-1.5287247,0-2.930809-0.2465706-4.2073288-0.7408371c-1.2765503-0.4931374-2.3760376-1.192482-3.2995148-2.0969429
				c-0.9223862-0.9033318-1.6452942-1.9893417-2.1664429-3.2569351c-0.5222778-1.2664642-0.7822876-2.674118-0.7822876-4.2207718
				c0-1.5847569,0.2600098-3.0238075,0.7822876-4.3205414c0.5211487-1.2944756,1.2440567-2.3984089,2.1664429-3.3129597
				c0.9234772-0.9122925,2.0229645-1.6161194,3.2995148-2.1103859c1.2765198-0.4931355,2.6786041-0.7408333,4.2073288-0.7408333
				c1.3415451,0,2.5855713,0.237608,3.7321167,0.712822c1.146553,0.4751797,2.2135086,1.2821293,3.2020035,2.4185886
				L122.3824997,25.6243839z"/>
			<rect id="XMLID_8_" x="128.7346191" y="29.4544563" class="st4" width="2.572876" height="2.8512192"/>
			<rect id="XMLID_7_" x="136.6674652" y="20.9831905" class="st4" width="3.5225525" height="19.7937527"/>
			<polygon id="XMLID_6_" class="st4" points="144.6079407,20.9833279 149.9752197,20.9833279 155.2596436,34.8505058 
				160.5989075,20.9833279 165.9113312,20.9833279 165.9113312,40.7770805 162.5568848,40.7770805 162.5568848,24.3377743 
				162.5008698,24.3377743 156.4902191,40.7770805 154.0301514,40.7770805 148.0184021,24.3377743 147.9623566,24.3377743 
				147.9623566,40.7770805 144.6079407,40.7770805 			"/>
			<path id="XMLID_5_" class="st4" d="M180.1142883,25.2328987c-0.37323-0.5402012-0.8719635-0.9369545-1.4962463-1.1880035
				c-0.6242676-0.2521439-1.2810364-0.3776684-1.9702911-0.3776684c-0.4101868,0-0.8069458,0.0470638-1.1891327,0.1400948
				c-0.3821716,0.0929985-0.7262268,0.242054-1.0344543,0.4471684c-0.3070831,0.2051144-0.5536499,0.4707336-0.740799,0.7968597
				c-0.1860657,0.3261585-0.2790985,0.712822-0.2790985,1.1599903c0,0.6713333,0.2331238,1.1835213,0.6993713,1.537693
				c0.4651031,0.3541355,1.0434265,0.6623726,1.7326965,0.9223824c0.6892548,0.2611389,1.4446564,0.5132828,2.2650452,0.7553711
				s1.5746613,0.5783367,2.2639618,1.0064526c0.6892548,0.4292469,1.2675476,0.9974937,1.7338104,1.7046738
				c0.466217,0.7094345,0.6993408,1.6497726,0.6993408,2.8243027c0,1.0625114-0.1961517,1.9893761-0.5872955,2.7817535
				s-0.9189911,1.4491425-1.5791473,1.9714203c-0.6623688,0.5211487-1.4311829,0.9134216-2.3065033,1.1734314
				c-0.8764496,0.2611389-1.7999573,0.3922386-2.76828,0.3922386c-1.2305908,0-2.4141083-0.2062111-3.5505676-0.6152763
				c-1.1375885-0.4101944-2.1159973-1.0994873-2.9363861-2.0689316l2.656189-2.5721245
				c0.4292603,0.6522827,0.992981,1.1599541,1.692337,1.5230865c0.6982422,0.3642616,1.4390869,0.5458107,2.2224579,0.5458107
				c0.4091034,0,0.8193054-0.0560226,1.2294922-0.1681061c0.410202-0.1120834,0.7834167-0.2790642,1.1184998-0.5032272
				c0.3362579-0.2230377,0.6052246-0.5077095,0.8103485-0.8528824c0.2050781-0.3440819,0.308197-0.7408371,0.308197-1.1880035
				c0-0.726265-0.2331238-1.2855148-0.6993408-1.6777878c-0.4662628-0.3911438-1.0434418-0.7217827-1.7327271-0.9918823
				c-0.6903839-0.2701035-1.445755-0.5267601-2.2650452-0.7688141c-0.8203888-0.2420883-1.5746765-0.5727272-2.2639313-0.9930115
				c-0.6903839-0.419157-1.2687225-0.9784088-1.7338104-1.6766605c-0.4662476-0.6993446-0.6993713-1.6362991-0.6993713-2.8097305
				c0-1.0255051,0.2095947-1.9109154,0.6287384-2.6561966c0.4202881-0.7453136,0.9694824-1.3651047,1.6497803-1.8593712
				c0.6802979-0.493103,1.4580994-0.8618431,2.334549-1.1039314c0.8764191-0.2420883,1.7707977-0.3642597,2.6842194-0.3642597
				c1.0434265,0,2.0554504,0.1591454,3.0338898,0.475214c0.9773102,0.3171635,1.8582153,0.8394413,2.6416321,1.5657043
				L180.1142883,25.2328987z"/>
		</g>
	</g>
	<g>
		<path class="st4" d="M86.2277679,53.6171036c0.8777313,0,1.3526001-0.0175705,1.8617477-0.0527153
			c-0.0531387,0.5442963-0.070282,0.9484482-0.070282,1.9140358v3.8627892c0,0.9480171,0.0171432,1.4747429,0.1054306,1.9843254
			h-1.9843292v-0.737587h-7.3569946v0.737587h-1.9663239c0.070282-0.4744377,0.1054306-1.1065941,0.1054306-1.9843254v-3.8627892
			c0-0.5794373-0.0180054-0.9655876-0.0351486-1.3170242c-0.4568634,0.3338623-0.7380142,0.491581-1.5454559,0.9133034
			c-0.2811508-0.6848717-0.527153-1.0363045-1.0885925-1.6153183c1.1760254-0.4392929,1.7031784-0.7375832,2.3880463-1.3345947
			c0.5091553-0.45644,0.8425903-0.8605881,1.1057358-1.3873138H76.254715c-0.6668701,0-1.2814484,0.0351448-1.7383194,0.1054306
			v-1.8086052c0.3685837,0.0527153,0.7551575,0.0702858,1.2823105,0.0878563
			c-0.3342896-0.368576-0.6848679-0.6321526-1.2291641-0.9831619c1.1940231-1.0183029,1.8960342-2.0541801,2.1771851-3.2130623
			l1.84375,0.3334351c-0.1234283,0.2284355-0.193718,0.4037247-0.2460022,0.491581
			c0,0.0175743-0.0351486,0.0878601-0.0882874,0.1757202c-0.0522919,0.1405716-0.0874329,0.2280045-0.1577225,0.3510056h2.6863403
			c0.7902985,0,1.2994537-0.0351448,1.7383194-0.1054306v1.7734642c-0.4388657-0.0527153-0.9480209-0.0702896-1.6680298-0.0702896
			h-0.7551575c0,0.4041519-0.0351486,0.7551575-0.0874329,1.2467384h1.1057358c0.7551575,0,1.2120209-0.0175705,1.7031784-0.0878563
			v1.7910347c-0.5091553-0.0702896-0.9300232-0.0878601-1.6328888-0.0878601h-0.7551575
			c0.8785858,0.5794411,1.6328888,1.1413078,2.2654724,1.7031746l-0.9660187,1.1764526H86.2277679z M78.2561874,49.1221581
			c0.070282-0.368576,0.0882874-0.5091515,0.1234283-1.2467384H77.115303
			c-0.4217224,0.5794411-0.4920044,0.6673012-1.0714493,1.2467384H78.2561874z M81.2416687,53.6171036
			c-0.5442963-0.6145821-1.4751663-1.4395981-2.1068954-1.8960381c-0.527153,0.8777313-0.8254471,1.2463112-1.5283127,1.8784676
			c0.2639999,0.0175705,0.562294,0.0175705,1.0885925,0.0175705H81.2416687z M78.8004837,56.3034401h7.3398514v-1.106163h-7.3398514
			V56.3034401z M78.8004837,58.9726334h7.3398514V57.813755h-7.3398514V58.9726334z M84.7003098,52.686657
			c-0.7902985,0-1.0534515,0.0175705-1.475174,0.0527153c0.0531464-0.4212952,0.0702896-0.7024422,0.0702896-1.3345985v-3.8979301
			c0-0.6848717-0.0171432-0.9655914-0.0702896-1.4220276c0.4397278,0.0527153,0.7380142,0.0698586,1.5454636,0.0698586h3.3712082
			c0.8074417,0,1.1065903-0.0171432,1.5454559-0.0698586c-0.0531464,0.4388657-0.0702896,0.7547264-0.0702896,1.4747429v3.7573586
			c0,0.6848679,0.0171432,1.018734,0.0702896,1.4224548c-0.4217224-0.0351448-0.6848679-0.0527153-1.4228821-0.0527153H84.7003098z
			 M85.0868912,51.1064835h2.7214813v-3.3184929h-2.7214813V51.1064835z"/>
		<path class="st4" d="M101.7972107,57.7610397c0.158577,0.1230011,0.2811508,0.2280045,0.3514328,0.2982903
			c1.316597,1.0885925,1.84375,1.1940231,5.6006851,1.1940231c2.5114746,0,5.0220947-0.1230011,6.4792633-0.3158607
			c-0.3514328,0.9128723-0.4911499,1.4220276-0.5442963,2.0190392c-1.7383194,0.0878563-2.9143372,0.1054306-6.1981201,0.1054306
			c-1.9843216,0-3.160347-0.0878601-4.1615067-0.2987213c-0.6145859-0.1401443-1.2643127-0.5267258-1.9131775-1.1408806
			c-0.2811508-0.281147-0.456871-0.4041481-0.5794449-0.4041481c-0.1757126,0-0.4568634,0.2284317-1.0885925,0.8605881
			c-0.1054306,0.1230011-0.4217224,0.4740067-0.9488754,1.0885925l-1.3688812-1.5103149
			c0.3154373-0.2982941,0.3334351-0.2982941,0.8777313-0.8074455c0.6317291-0.5794411,1.281456-1.0885925,1.650032-1.2643089
			v-3.8627892h-0.9480209c-0.4388657,0-0.7902985,0.0175705-1.1940231,0.0878601V51.913929
			c0.4740143,0.0702858,0.7551575,0.0878563,1.4048843,0.0878563h1.316597c0.527153,0,0.8785934-0.0175705,1.3346024-0.0878563
			c-0.0522919,0.526722-0.0702896,0.9831619-0.0702896,1.9140358V57.7610397z M99.2865906,45.4175148
			c1.2643127,1.1061668,2.1771851,2.054184,3.0729141,3.1779213l-1.4923096,1.4048843
			c-0.9660187-1.317028-1.7383194-2.1596146-2.9854889-3.3184929L99.2865906,45.4175148z M107.2050323,47.2959824v-0.45644
			c0-0.8425865-0.0351486-1.2291641-0.1045761-1.6328888h2.0366135c-0.0702896,0.3690071-0.0882874,0.7727318-0.0882874,1.6328888
			v0.45644h2.0897522c0.8605881,0,1.351738-0.0347176,1.8608932-0.1050034v1.8081779
			c-0.5262985-0.0522881-0.9831619-0.0698586-1.808609-0.0698586h-2.1420364v1.6153183h2.9151993
			c0.8074417,0,1.2111664-0.0175743,1.6328888-0.0702896v1.7910347c-0.5794449-0.0702858-1.0534515-0.0878563-1.6328888-0.0878563
			h-7.9895859c-0.5262985,0-0.9651642,0.0175705-1.4923172,0.0702858v-1.7734642
			c0.4217224,0.0527153,0.8254471,0.0702896,1.5977478,0.0702896h3.125206v-1.6153183H104.71241
			c-0.2811508,0.4388657-0.4568634,0.6844406-0.9831619,1.3517418c-0.193718-0.1581459-0.193718-0.1581459-0.8434448-0.6321564
			c-0.3505783-0.245575-0.3857193-0.2631493-0.6668701-0.3861504c0.7200165-0.7903023,1.0354462-1.2291679,1.4923172-2.089325
			c0.3514328-0.6673012,0.4388657-0.9308777,0.6497269-1.7734642l1.7906036,0.4564362
			c-0.035141,0.0878601-0.035141,0.0878601-0.0874329,0.1932907c-0.070282,0.1577187-0.070282,0.1577187-0.1405716,0.3334351
			c-0.0171432,0.0702858-0.035141,0.0702858-0.1054306,0.246006c-0.0522842,0.1577148-0.0702896,0.1752892-0.2811508,0.6668701
			H107.2050323z M105.1512756,58.1823349c-0.7902985,0-1.0885925,0.0175705-1.5625992,0.0702858
			c0.0522842-0.4212952,0.0522842-0.491581,0.0522842-1.8086052v-1.7558899c0-0.8601608-0.0171432-1.2115974-0.0702896-1.562603
			c0.5091553,0.0527153,1.0183105,0.0702858,1.9140396,0.0702858h5.2500992c0.7903061,0,1.316597-0.0175705,1.808609-0.0702858
			c-0.0531464,0.4388657-0.0531464,0.7200127-0.0531464,1.7910347v1.6504593c0,1.0534477,0,1.2818832,0.0531464,1.6856041
			c-0.5091553-0.0527153-0.9137344-0.0702858-1.7383194-0.0702858H105.1512756z M105.4144211,56.4967308h5.2501068v-1.6153183
			h-5.2501068V56.4967308z"/>
		<path class="st4" d="M129.8323212,52.4230804c-0.2460022-0.3861504-0.2631378-0.4388657-0.4911499-0.7723007
			c-0.0180054,0.2982903-0.070282,1.0358772-0.070282,1.0534477c-0.0531464,0.5970116-0.0531464,0.5970116-0.1054382,1.2643127
			c-0.0882874,1.2638817-0.1937103,1.931179-0.4217224,2.5809059c-0.2631378,0.5970116-0.6848602,0.8254433-1.5625992,0.8254433
			c-0.4037247,0-0.8425903-0.0175705-1.2994537-0.0702858c-0.035141-0.7903023-0.0874329-1.1237373-0.2631454-1.7910347
			c0.4560089,0.1054306,0.6668701,0.1405754,1.0534439,0.1405754c0.4217224,0,0.5794449-0.1054306,0.6668701-0.3865814
			c0.0702896-0.2104301,0.1405792-0.8425865,0.2288666-2.0717545h-3.1612091v4.8108063
			c0,0.7727318,0.0702896,1.018734,0.3162918,1.1588821c0.158577,0.0878563,0.2460098,0.1054306,0.5623016,0.1230011
			c0.1054306,0,1.5446014,0.0527153,1.5977402,0.0527153c0.6848755,0,1.3346024-0.1230011,1.5446091-0.2807198
			c0.2991486-0.246006,0.4920044-0.8254433,0.7028656-2.1600418c0.3334351,0.1581459,0.368576,0.1757202,0.5442963,0.2635765
			c0.6497345,0.3510056,0.7551575,0.3861504,1.1940308,0.5267258c-0.2108612,1.0885925-0.3162994,1.4044533-0.5442963,1.8613205
			c-0.3865814,0.7547302-0.9660187,1.2111664-1.6860352,1.3693123c-0.5442963,0.1054306-1.4923172,0.1757164-2.4403381,0.1757164
			c-2.8972015,0-3.5640717-0.3861504-3.5640717-2.0018959v-6.1278305c0-0.087429,0-0.1928596,0-0.3158646
			c0-0.0527153,0-0.1230011-0.0179977-0.368576c-0.368576,0.4037209-0.5091553,0.526722-0.9831619,0.9304466
			c-0.2460022-1.0007362-0.4037247-1.4571724-0.7371597-2.0717545c1.1057358-0.6848717,1.8608932-1.4048843,2.7566299-2.6516228
			c0.859726-1.1764526,1.4220276-2.3177605,1.7554626-3.5464973l1.878891,0.4564362
			c-0.0882874,0.2280045-0.1054306,0.2982903-0.1928635,0.5091515c1.316597,1.3345985,2.7737656,3.0553474,4.2309494,5.0392418
			L129.8323212,52.4230804z M127.8479996,51.3344879c0.527153,0,0.6145859,0,0.8957291-0.0351448
			c0.0874329-0.0175705,0.1577148-0.0175705,0.3514404-0.035141c-0.5974426-0.8953056-1.6508942-2.2826157-2.7917709-3.6870728
			c-0.7200165,1.352169-1.5103149,2.4934769-2.6160507,3.7222137c0.1397171,0.0351448,0.2451477,0.0351448,0.4740067,0.0351448
			c0.0171432,0,0.0351486,0,0.0702896,0s0.035141,0,0.1225739,0H127.8479996z M133.2566833,46.4885368
			c-0.0702972,0.4564362-0.0882874,0.8425865-0.0882874,1.8261795v6.7599869c0,1.0358772,0.0179901,1.4044571,0.070282,1.8608932
			h-1.9311829c0.070282-0.5618668,0.0874329-0.8953018,0.0874329-1.8784637v-6.7072754
			c0-0.8781586-0.0171509-1.2818794-0.0874329-1.8613205H133.2566833z M136.5927429,45.347229
			c-0.0882874,0.5970116-0.1054382,0.9480171-0.1054382,2.1244698v11.6762238c0,1.6153183-0.4920044,2.0370407-2.4231873,2.0370407
			c-0.4920044,0-1.0714417-0.0175705-1.7383118-0.0702858c-0.1054382-0.8078728-0.2280121-1.1940231-0.5271606-1.8613243
			c0.6848755,0.1054306,1.475174,0.1757202,2.0897522,0.1757202c0.5965881,0,0.7551575-0.1230049,0.7551575-0.5442963V47.5068436
			c0-0.9304466-0.035141-1.4747429-0.105423-2.1596146H136.5927429z"/>
		<path class="st4" d="M144.1203156,59.2357826c0.8425903-1.0183067,1.2994537-1.8784637,1.6851807-3.195488l1.5625916,0.5794373
			c-0.6145782,1.7734642-0.8948669,2.335331-1.7383118,3.5820694L144.1203156,59.2357826z M151.8278961,48.788723
			c-0.0874329,0.1928635-0.0874329,0.1928635-0.2631531,0.5794411c-0.070282,0.1405754-0.1928558,0.4212952-0.3514404,0.8074455
			c-0.1045685,0.2460022-0.1045685,0.2460022-0.3505707,0.6497269h0.368576c0.7902985,0,1.1408844-0.0175743,1.5977478-0.0878601
			v1.8788948c-0.4920044-0.0527153-0.8605957-0.0702896-1.5977478-0.0702896h-1.440033V53.79282h1.3517456
			c0.7551575,0,1.1588745-0.0175705,1.5986023-0.0878563v1.84375c-0.4568634-0.0527153-0.8605804-0.0702896-1.5986023-0.0702896
			h-1.3517456v4.231369c0,0.8078728-0.070282,1.0710182-0.368576,1.3345947
			c-0.2982941,0.246006-0.7200165,0.3510094-1.4923096,0.3510094c-0.2631531,0-0.7902985-0.0175743-1.3345947-0.0527153
			c-0.035141-0.5794411-0.1577148-1.1408806-0.3514404-1.7554626c0.7028656,0.087429,1.0011597,0.1049995,1.2643127,0.1049995
			c0.403717,0,0.5091553-0.087429,0.5091553-0.4212914v-3.7925034h-1.84375c-0.754303,0-1.1408844,0.0175743-1.6148987,0.0878601
			v-1.8613205c0.4560089,0.0702858,0.8074493,0.0878563,1.6500397,0.0878563h1.808609v-1.2467384h-1.8609009
			c-0.7371521,0-1.1417389,0.0175743-1.6157379,0.0702896v-1.8788948c0.438858,0.0702858,0.8254395,0.0878601,1.6328888,0.0878601
			h0.4217224c-0.2280121-0.9304466-0.4217224-1.4571724-0.7551575-2.0717545l1.5274506-0.3861504h-0.9128723
			c-0.7722931,0-1.1760254,0.0175705-1.6500244,0.0698586v-1.8784676c0.438858,0.0702896,0.8425751,0.0878601,1.6851654,0.0878601
			h1.369751c-0.1757202-0.4392929-0.2631531-0.6321564-0.5623016-1.2291679l1.808609-0.4388657
			c0.3514252,0.7020149,0.473999,0.9655914,0.7200165,1.6680336h1.1588745c0.8074493,0,1.1588745-0.0175705,1.6157379-0.0878601
			v1.8784676c-0.4568634-0.0522881-0.8957214-0.0698586-1.6328888-0.0698586h-0.6325836L151.8278961,48.788723z
			 M147.508667,48.3674316c0.3865814,0.7547264,0.5091553,1.1237335,0.7551575,2.0366096l-1.5805969,0.4212952h2.4231873
			c0.4568634-0.8425903,0.7731476-1.5977478,1.0011597-2.4579048H147.508667z M155.252243,52.2653618
			c-0.0180054,4.0732231-0.7028656,7.1461372-2.0366058,9.1827507c-0.7028809-0.5618706-1.0011597-0.7547302-1.738327-1.1413078
			c0.3857269-0.5091553,0.6317291-0.9655914,0.9300232-1.6504631l-1.0183105,0.491581
			c-0.4208679-1.3341675-0.5794373-1.7207451-1.0182953-2.6511917l1.3697357-0.4740105
			c0.4217224,0.825016,0.5794373,1.1764526,0.8957367,2.0366096c0.5614319-1.6153145,0.7722931-4.0556488,0.7722931-8.6911659
			c0-1.4751701-0.0180054-2.1068993-0.105423-2.7917671c1.984314-0.0527153,5.0220947-0.8254471,5.9169617-1.4927444
			l1.4571686,1.7031746c-0.2099915,0.0527153-0.2802887,0.0878601-0.5965729,0.1932907
			c-1.3868866,0.5267258-2.5106201,0.7903023-4.8112335,1.1940231v2.3177605h3.9506378
			c0.7731628,0,1.2291718-0.0351448,1.6157532-0.1054306v1.9491806c-0.4388733-0.0527153-0.7200165-0.0702896-1.4220276-0.0702896
			h-0.4397278v7.0758514c0,1.0534477,0.0180054,1.5450287,0.1054382,2.0717545h-2.0537567
			c0.0874329-0.5442963,0.105423-1.0534477,0.105423-2.0717545v-7.0758514H155.252243z"/>
		<path class="st4" d="M175.772644,52.7218018c-0.8597412,1.7383194-0.9300232,1.8960342-1.6328888,3.1076317
			c-0.6848755,1.1764488-1.1237335,1.8261757-1.84375,2.8444824c1.4400177-0.1230049,1.4400177-0.1230049,3.6172028-0.2982941
			c0.9308777-0.0702858,2.7214813-0.3338623,4.0209351-0.5794373c-0.6145782-0.9831619-1.0885925-1.6328888-2.1420288-3.0026283
			l1.6680298-0.825016c1.7211761,2.1771851,2.7917633,3.774929,4.2489319,6.3909798l-1.7554626,1.0183029
			c-0.5794373-1.0885925-0.7200165-1.351738-1.0363007-1.931179c-0.9480133,0.1928596-1.738327,0.3158646-3.5640717,0.5442963
			c-1.773468,0.245575-2.8972015,0.3510056-5.7944031,0.5442963c-0.8605804,0.0702858-1.1408691,0.1054306-1.914032,0.2280045
			l-0.4911499-2.0190392c0.7371521-0.1581459,1.1588745-0.4037209,1.5977478-0.9128761
			c1.2463074-1.8613205,1.984314-3.1607742,2.8620453-5.1095238h-3.2134857c-0.9308777,0-1.5103149,0.035141-2.1771851,0.1054306
			v-2.0194702c0.6325836,0.0702896,1.1940308,0.1054306,2.1951904,0.1054306h11.2022095
			c1.0003052,0,1.5626068-0.035141,2.1943359-0.1054306v2.0194702c-0.6848755-0.0702896-1.3868866-0.1054306-2.1771851-0.1054306
			H175.772644z M182.2699127,48.1214256c-0.5623016-0.0702858-1.0534515-0.0878601-2.1600494-0.0878601h-8.0590057
			c-1.0885925,0-1.5454559,0.0175743-2.1600494,0.0878601V46.119957c0.5974426,0.0698586,1.2291718,0.1050034,2.1600494,0.1050034
			h8.0590057c1.0183105,0,1.5806122-0.0351448,2.1600494-0.1050034V48.1214256z"/>
	</g>
</g>
</svg>
