<?xml version="1.0" standalone="no"?>
<!DOCTYPE svg PUBLIC "-//W3C//DTD SVG 1.1//EN" "http://www.w3.org/Graphics/SVG/1.1/DTD/svg11.dtd" >
<svg xmlns="http://www.w3.org/2000/svg">
<metadata>Generated by IcoMoon</metadata>
<defs>
<font id="proudsmart" horiz-adv-x="1024">
<font-face units-per-em="1024" ascent="960" descent="-64" />
<missing-glyph horiz-adv-x="1024" />
<glyph unicode="&#x20;" horiz-adv-x="512" d="" />
<glyph unicode="&#xe900;" glyph-name="sensor-and-control" d="M507.733 960c-281.6 0-507.733-230.4-507.733-516.267 0-281.6 230.4-507.733 516.267-507.733 281.6 0 512 230.4 507.733 516.267 0 281.6-230.4 507.733-516.267 507.733zM281.6 213.333c-119.467 123.733-119.467 349.867 0 473.6l29.867-34.133c-102.4-115.2-102.4-294.4 0-405.333l-29.867-34.133zM384 315.733l-29.867-34.133c-81.067 93.867-81.067 234.667 0 328.533l29.867-29.867c-64-76.8-64-187.733 0-264.533zM512 337.067c-55.467 0-102.4 46.933-102.4 106.667s46.933 106.667 102.4 106.667 102.4-46.933 102.4-106.667c0-59.733-46.933-106.667-102.4-106.667zM635.733 311.467c64 76.8 64 187.733 0 264.533l34.133 34.133c81.067-89.6 81.067-230.4-4.267-332.8l-29.867 34.133zM742.4 209.067l-29.867 34.133c102.4 119.467 102.4 298.667 0 413.867l29.867 29.867c119.467-128 119.467-349.867 0-477.867z" />
<glyph unicode="&#xe901;" glyph-name="additive-manufacturing-equipment" d="M512 960c-281.6 0-512-230.4-512-512s230.4-512 512-512 512 230.4 512 512-230.4 512-512 512zM661.333 695.467c29.867-29.867 59.733-59.733 89.6-89.6-42.667-42.667-85.333-85.333-128-128-25.6 29.867-59.733 59.733-89.6 89.6 42.667 42.667 85.333 85.333 128 128zM755.2 260.267c-12.8 12.8-29.867 29.867-42.667 42.667-12.8 8.533-34.133 4.267-51.2 4.267-12.8 0-21.333-8.533-21.333-21.333 0-17.067-4.267-34.133 4.267-51.2 12.8-17.067 25.6-25.6 42.667-42.667-21.333-8.533-46.933-8.533-68.267 4.267-38.4 17.067-64 64-55.467 102.4 0 12.8 8.533 25.6-4.267 34.133-25.6 25.6-51.2 55.467-81.067 81.067-34.133-34.133-68.267-68.267-102.4-106.667-12.8-12.8-4.267-34.133-21.333-46.933s-38.4-21.333-55.467-29.867c-4.267 4.267-12.8 12.8-17.067 17.067 12.8 21.333 21.333 42.667 38.4 59.733 12.8 8.533 29.867 4.267 42.667 17.067 34.133 34.133 68.267 68.267 102.4 102.4-21.333 21.333-46.933 46.933-68.267 68.267-4.267 8.533-17.067 8.533-25.6 8.533-29.867-8.533-64 0-85.333 21.333-29.867 25.6-42.667 68.267-29.867 102.4 12.8-12.8 25.6-29.867 42.667-42.667 21.333-8.533 38.4-4.267 55.467-4.267 8.533 0 17.067 0 21.333 4.267 0 17.067 0 34.133 0 51.2 0 8.533-8.533 17.067-17.067 25.6-8.533 12.8-21.333 21.333-29.867 34.133 38.4 12.8 76.8 0 102.4-29.867 17.067-21.333 25.6-55.467 21.333-81.067-4.267-8.533-4.267-21.333 4.267-29.867 21.333-25.6 46.933-46.933 68.267-72.533 4.267 4.267 8.533 8.533 12.8 12.8-8.533 17.067-25.6 38.4-12.8 59.733 29.867-29.867 55.467-59.733 85.333-89.6-8.533-4.267-17.067-8.533-25.6-4.267-12.8 4.267-21.333 12.8-34.133 17.067-4.267-4.267-8.533-8.533-12.8-12.8 25.6-25.6 51.2-51.2 76.8-76.8 4.267-8.533 17.067-8.533 25.6-4.267 29.867 8.533 59.733 0 81.067-17.067 34.133-21.333 46.933-68.267 34.133-106.667zM686.933 708.267c21.333-4.267 38.4-17.067 51.2-29.867s21.333-29.867 25.6-46.933c-25.6 21.333-51.2 51.2-76.8 76.8z" />
<glyph unicode="&#xe902;" glyph-name="machine-and-robot" d="M401.067 669.867c0-21.208-17.192-38.4-38.4-38.4s-38.4 17.192-38.4 38.4c0 21.208 17.192 38.4 38.4 38.4s38.4-17.192 38.4-38.4zM512 960c-281.6 0-512-230.4-512-512s230.4-512 512-512 512 230.4 512 512-230.4 512-512 512zM789.333 153.6h-550.4c-8.533 0-17.067 8.533-17.067 17.067s8.533 17.067 17.067 17.067h285.867l68.267 247.467c-8.533 17.067-17.067 34.133-17.067 55.467 0 8.533 4.267 12.8 4.267 21.333l-179.2 102.4c-8.533-8.533-25.6-12.8-38.4-12.8h-4.267l-59.733-59.733-17.067 25.6-29.867-29.867c-4.267-4.267-8.533-4.267-12.8-4.267s-8.533 0-12.8 4.267c-4.267 4.267-4.267 17.067 0 21.333l29.867 25.6-21.333 21.333 59.733 64v4.267c0 38.4 29.867 68.267 68.267 68.267 29.867 0 55.467-21.333 64-46.933l213.333-119.467c8.533 4.267 17.067 4.267 29.867 4.267 46.933 0 89.6-38.4 89.6-89.6 0-17.067-4.267-34.133-12.8-46.933l21.333-256h17.067c8.533 0 17.067-8.533 21.333-17.067 0-8.533-8.533-17.067-17.067-17.067zM302.933 631.467l-25.6-25.6 21.333-17.067 25.6 21.333c-8.533 8.533-17.067 12.8-21.333 21.333zM422.4 635.733c0 0 170.667-93.867 170.667-102.4 4.267 8.533 8.533 12.8 12.8 17.067l-174.933 102.4c-4.267-4.267-4.267-12.8-8.533-17.067zM669.867 546.133c-34.133 0-59.733-25.6-59.733-59.733 0-12.8 8.533-29.867 17.067-38.4s25.6-17.067 42.667-17.067c34.133 0 59.733 25.6 59.733 59.733 0 29.867-29.867 59.733-59.733 55.467zM665.6 460.8c-17.067 0-29.867 12.8-29.867 29.867s17.067 29.867 29.867 29.867c17.067 0 29.867-12.8 29.867-29.867s-12.8-29.867-29.867-29.867z" />
<glyph unicode="&#xe903;" glyph-name="logistics-management" d="M512 960c-281.6 0-512-230.4-512-512s230.4-512 512-512 512 230.4 512 512-230.4 512-512 512zM238.933 580.267c4.267 4.267 12.8 4.267 17.067 0l17.067-21.333 55.467 68.267c8.533 4.267 17.067 8.533 21.333 4.267 4.267 0 4.267-4.267 4.267-8.533s0-4.267-4.267-8.533l-64-81.067c-4.267-4.267-4.267-4.267-8.533-4.267s-8.533 0-8.533 4.267l-29.867 29.867c0 4.267-4.267 4.267-4.267 8.533s0 4.267 4.267 8.533zM473.6 520.533c8.533 0 12.8-4.267 12.8-12.8s-4.267-12.8-12.8-12.8h-110.933c-8.533 0-12.8 8.533-12.8 17.067 0 4.267 4.267 8.533 12.8 8.533h110.933zM379.733 597.333c0 8.533 4.267 12.8 12.8 12.8h110.933c8.533 0 12.8-4.267 12.8-12.8s-4.267-12.8-12.8-12.8h-110.933c-8.533-4.267-12.8 4.267-12.8 12.8zM486.4 418.133c0-8.533-4.267-12.8-12.8-12.8h-110.933c-8.533 0-12.8 8.533-12.8 17.067 0 4.267 4.267 8.533 12.8 8.533h110.933c8.533 0 12.8-4.267 12.8-12.8zM238.933 418.133v72.533c0 4.267 4.267 8.533 8.533 8.533h72.533c4.267 0 8.533-4.267 8.533-8.533v-72.533c0-4.267-4.267-8.533-8.533-8.533h-72.533c-4.267 0-8.533 4.267-8.533 8.533zM772.267 273.067h-46.933c-8.533-34.133-38.4-59.733-72.533-59.733s-68.267 25.6-72.533 59.733h-123.733c-8.533-34.133-38.4-59.733-72.533-59.733s-68.267 25.6-72.533 59.733h-51.2c-8.533 0-12.8 4.267-12.8 12.8s4.267 12.8 12.8 12.8h46.933c8.533 34.133 38.4 59.733 72.533 59.733s68.267-25.6 72.533-59.733h123.733c8.533 34.133 38.4 59.733 72.533 59.733s68.267-25.6 72.533-59.733h34.133v106.667h-179.2c-8.533 0-12.8 4.267-12.8 12.8v234.667h-226.133c-8.533 4.267-17.067 8.533-17.067 17.067s4.267 12.8 12.8 12.8h243.2c8.533 0 12.8-4.267 12.8-12.8v-59.733h64c4.267 0 8.533 0 12.8-4.267l119.467-166.4v-153.6c4.267-8.533 0-12.8-12.8-12.8zM593.067 580.267v-149.333h162.133l-106.667 149.333z" />
<glyph unicode="&#xe904;" glyph-name="intelligent-energy-management" d="M307.2 635.733v-153.6h72.533l51.2-51.2 42.667 123.733c4.267 8.533 8.533 8.533 8.533 8.533s4.267 0 8.533-8.533l42.667-110.933 21.333 55.467c0 4.267 4.267 8.533 8.533 8.533s8.533 0 8.533-8.533l38.4-38.4h106.667v174.933l-204.8 68.267-204.8-68.267zM567.467 469.333l-34.133-89.6c-4.267-8.533-8.533-8.533-8.533-8.533s-4.267 0-8.533 8.533l-42.667 106.667-29.867-85.333c0-4.267-4.267-8.533-8.533-8.533s-8.533 0-12.8 4.267l-64 64-59.733-4.267v-89.6c4.267-8.533 12.8-42.667 46.933-76.8 29.867-29.867 119.467-81.067 153.6-98.133h4.267c29.867 17.067 128 68.267 162.133 102.4s46.933 68.267 46.933 76.8v72.533h-119.467l-25.6 25.6zM512 960c-281.6 0-512-230.4-512-512s230.4-512 512-512c281.6 0 512 230.4 512 512s-230.4 512-512 512zM746.667 358.4c-4.267-4.267-12.8-51.2-55.467-93.867-38.4-42.667-145.067-98.133-166.4-106.667h-4.267c-4.267 0-4.267 0-8.533 0s-4.267 4.267-8.533 4.267c0 0-4.267 4.267-8.533 4.267h-4.267c-34.133 17.067-119.467 64-153.6 98.133-42.667 42.667-55.467 85.333-55.467 93.867v281.6c0 12.8 8.533 25.6 17.067 25.6l213.333 68.267 213.333-68.267c8.533 0 17.067-12.8 21.333-29.867v-277.333z" />
<glyph unicode="&#xe905;" glyph-name="intelligent-remote-operation" d="M512 960c-281.6 0-512-230.4-512-512s230.4-512 512-512 512 230.4 512 512-230.4 512-512 512zM780.8 200.533h-533.333v145.067l55.467 136.533h64c0 25.6 4.267 34.133 12.8 51.2-8.533 8.533-21.333 17.067-29.867 25.6-4.267 0-8.533 0-8.533 0-8.533 0-21.333 4.267-29.867 12.8-4.267 4.267-4.267 4.267-8.533 12.8s-8.533 17.067-8.533 25.6c0 25.6 21.333 46.933 46.933 46.933 4.267 0 8.533 0 12.8-4.267 21.333 25.6 64 46.933 110.933 55.467 4.267 21.333 25.6 38.4 46.933 38.4 25.6 0 46.933-17.067 46.933-38.4 51.2-8.533 93.867-29.867 115.2-55.467 4.267 0 4.267 0 8.533 0 25.6 0 46.933-21.333 46.933-46.933s-21.333-46.933-46.933-46.933c-4.267 0-8.533 0-12.8 4.267-4.267-4.267-8.533-8.533-8.533-12.8 12.8-21.333 21.333-42.667 21.333-68.267h42.667l55.467-136.533v-145.067zM682.667 460.8c0-42.667-17.067-76.8-46.933-106.667h119.467l-42.667 106.667h-29.867zM264.533 217.6h494.933v115.2h-494.933v-115.2zM405.333 311.467h221.867v-68.267h-221.867v68.267zM435.2 354.133h170.667c34.133 25.6 55.467 68.267 55.467 115.2 0 25.6-8.533 46.933-17.067 68.267-21.333-12.8-51.2-25.6-85.333-29.867-4.267-21.333-21.333-42.667-46.933-42.667-8.533 0-21.333 4.267-29.867 12.8-4.267 4.267-4.267 8.533-8.533 8.533-4.267 8.533-4.267 12.8-8.533 21.333-25.6 4.267-51.2 12.8-72.533 21.333-8.533-17.067-12.8-38.4-12.8-59.733 0-46.933 21.333-89.6 55.467-115.2zM366.933 460.8h-51.2l-46.933-106.667h136.533c-29.867 25.6-46.933 64-38.4 106.667zM524.8 627.2c51.2 0 98.133-25.6 128-64 0 0 4.267 4.267 4.267 4.267s-4.267 0-4.267 4.267c-8.533 8.533-17.067 21.333-17.067 34.133 0 17.067 8.533 29.867 21.333 38.4-21.333 21.333-55.467 38.4-98.133 42.667-4.267-21.333-21.333-34.133-42.667-34.133-8.533 0-21.333 4.267-29.867 12.8-4.267 0-4.267 4.267-8.533 8.533-8.533 4.267-8.533 8.533-8.533 12.8-42.667-8.533-76.8-21.333-98.133-42.667 12.8-8.533 21.333-25.6 21.333-38.4 0-17.067-8.533-29.867-21.333-38.4 4.267-8.533 12.8-12.8 21.333-17.067 25.6 46.933 72.533 76.8 132.267 76.8zM554.667 524.8c29.867 4.267 59.733 12.8 76.8 25.6-25.6 34.133-68.267 59.733-115.2 59.733s-89.6-25.6-115.2-68.267c17.067-8.533 42.667-17.067 64-21.333 4.267 21.333 21.333 34.133 42.667 34.133s42.667-12.8 46.933-29.867z" />
<glyph unicode="&#xe906;" glyph-name="personalized-customization" d="M512 960c-281.6 0-512-230.4-512-512s230.4-512 512-512 512 230.4 512 512-230.4 512-512 512zM725.333 234.667c-8.533-12.8-25.6-12.8-38.4-8.533 0 4.267-4.267 4.267-8.533 8.533l-115.2 115.2c0 4.267 0 4.267 0 4.267-12.8-8.533-29.867-12.8-46.933-12.8-64 0-119.467 55.467-119.467 115.2 0 8.533 8.533 17.067 17.067 17.067s17.067-8.533 17.067-17.067c0-17.067 8.533-34.133 25.6-51.2s34.133-25.6 55.467-25.6c38.4 0 72.533 34.133 72.533 76.8 0 38.4-34.133 76.8-72.533 76.8h-25.6c-8.533 0-17.067 8.533-17.067 17.067s8.533 17.067 17.067 17.067h25.6c59.733 0 110.933-51.2 110.933-115.2 0-21.333-4.267-38.4-12.8-55.467l110.933-110.933c4.267 0 4.267-4.267 8.533-4.267 0 0 0-4.267 0-8.533 0 0 0 0 4.267 0 4.267-12.8 0-29.867-8.533-38.4zM797.867 435.2c0-8.533-4.267-12.8-8.533-17.067 0-4.267-4.267-4.267-8.533-4.267h-29.867c-4.267-21.333-8.533-38.4-17.067-55.467 0 0-4.267-4.267-4.267-4.267-4.267-8.533-17.067-12.8-25.6-8.533s-12.8 17.067-8.533 25.6c12.8 25.6 17.067 51.2 17.067 76.8 0 115.2-93.867 204.8-204.8 204.8-115.2 0-204.8-93.867-204.8-204.8 0-115.2 93.867-204.8 204.8-204.8 25.6 0 51.2 4.267 76.8 12.8 12.8 4.267 21.333 0 25.6-8.533 4.267-12.8 0-21.333-8.533-25.6-21.333-8.533-38.4-12.8-59.733-17.067v-34.133c0-8.533-8.533-12.8-17.067-12.8h-29.867c-8.533 0-12.8 4.267-17.067 8.533-4.267 0-4.267 4.267-4.267 8.533v34.133c-42.667 8.533-72.533 21.333-106.667 46.933l-25.6-25.6c-4.267-4.267-17.067 0-21.333 4.267l-21.333 21.333c-4.267 4.267-8.533 17.067-4.267 21.333 0 4.267-4.267 8.533 0 12.8l25.6 25.6c-21.333 29.867-38.4 68.267-42.667 102.4h-38.4c-8.533 0-12.8 8.533-12.8 17.067v34.133c0 8.533 4.267 17.067 12.8 17.067h38.4c4.267 38.4 17.067 72.533 42.667 102.4l-25.6 25.6c-4.267 4.267-4.267 8.533-4.267 12.8s4.267 8.533 8.533 12.8l21.333 21.333c4.267 8.533 12.8 12.8 21.333 4.267l25.6-29.867c34.133 25.6 68.267 42.667 110.933 51.2v29.867c0 4.267 0 8.533 4.267 8.533v0c0 8.533 8.533 12.8 17.067 12.8h29.867c8.533 0 17.067-4.267 17.067-12.8v-38.4c38.4-8.533 76.8-21.333 106.667-46.933l25.6 25.6c0 0 4.267 0 8.533 0s12.8-4.267 17.067-4.267l21.333-21.333c4.267-4.267 8.533-17.067 4.267-21.333l-25.6-25.6c25.6-29.867 42.667-68.267 46.933-110.933h34.133c8.533 0 12.8-8.533 12.8-17.067v-29.867z" />
<glyph unicode="&#xe907;" glyph-name="networked-collaborative-manufacturing" d="M512 960c-281.6 0-512-230.4-512-512s230.4-512 512-512 512 230.4 512 512-230.4 512-512 512zM627.2 554.667l34.133-34.133-12.8-17.067-34.133 34.133 12.8 17.067zM678.4 439.467v-21.333l-46.933 4.267 4.267 25.6 42.667-8.533zM571.733 605.867l34.133-34.133-17.067-17.067-34.133 34.133 17.067 17.067zM563.2 452.267l42.667-4.267v-21.333l-42.667 4.267c-4.267-8.533-8.533-17.067-17.067-25.6-12.8-12.8-25.6-17.067-42.667-17.067s-29.867 4.267-42.667 17.067c-8.533 8.533-12.8 17.067-17.067 25.6l-29.867-4.267v21.333h34.133c0 17.067 8.533 29.867 17.067 38.4 8.533 12.8 25.6 17.067 38.4 17.067 17.067 0 29.867-4.267 42.667-17.067 8.533-8.533 17.067-21.333 17.067-34.133zM541.867 332.8l-21.333-4.267-8.533 46.933 21.333 4.267 8.533-46.933zM473.6 558.933l21.333 4.267 8.533-46.933-21.333-4.267-8.533 46.933zM418.133 725.333c12.8 8.533 25.6 17.067 42.667 17.067s29.867-4.267 42.667-17.067c8.533-12.8 17.067-25.6 17.067-42.667 0-8.533-4.267-21.333-8.533-29.867l29.867-29.867-12.8-17.067-29.867 29.867c-8.533-4.267-12.8-8.533-17.067-8.533l8.533-38.4-21.333-4.267-4.267 42.667c-17.067 0-29.867 4.267-46.933 12.8-8.533 12.8-17.067 25.6-17.067 42.667s4.267 29.867 17.067 42.667zM413.867 635.733l17.067-12.8-25.6-38.4-17.067 12.8 25.6 38.4zM392.533 448v-21.333l-46.933-4.267-4.267 21.333 51.2 4.267zM371.2 576l17.067-12.8-29.867-38.4-17.067 12.8 29.867 38.4zM273.067 362.667c-17.067 0-29.867 4.267-42.667 17.067s-17.067 25.6-17.067 42.667c0 17.067 4.267 29.867 17.067 42.667s25.6 17.067 42.667 17.067c8.533 0 17.067 0 25.6-4.267l25.6 34.133 17.067-12.8-25.6-34.133c12.8-8.533 17.067-25.6 17.067-42.667s-4.267-29.867-17.067-42.667c-12.8-12.8-25.6-17.067-42.667-17.067zM358.4 345.6l-38.4 29.867 12.8 17.067 38.4-29.867-12.8-17.067zM418.133 298.667l-38.4 29.867 12.8 17.067 38.4-29.867-12.8-17.067zM477.867 256l-38.4 29.867 12.8 17.067 38.4-29.867-12.8-17.067zM597.333 170.667c-12.8-12.8-25.6-17.067-42.667-17.067s-29.867 4.267-42.667 17.067c-8.533 12.8-17.067 25.6-17.067 42.667 0 8.533 4.267 17.067 8.533 25.6l12.8 17.067c4.267 4.267 12.8 8.533 17.067 12.8l-8.533 34.133 21.333 4.267 8.533-34.133c17.067 0 29.867-8.533 42.667-17.067 8.533-12.8 17.067-25.6 17.067-42.667s-4.267-29.867-17.067-42.667zM610.133 256l-17.067 12.8 29.867 34.133 17.067-12.8-29.867-34.133zM661.333 311.467l-17.067 12.8 29.867 34.133 17.067-12.8-29.867-34.133zM793.6 388.267c-12.8-12.8-25.6-17.067-42.667-17.067-8.533 0-21.333 4.267-29.867 8.533l-8.533-8.533-17.067 12.8 8.533 8.533c-8.533 8.533-12.8 21.333-12.8 34.133 0 8.533 4.267 21.333 8.533 29.867l-29.867 29.867 12.8 17.067 34.133-29.867c8.533 8.533 21.333 12.8 34.133 12.8 17.067 0 29.867-4.267 42.667-17.067 8.533-12.8 17.067-29.867 17.067-38.4 0-17.067-4.267-29.867-17.067-42.667z" />
<glyph unicode="&#xe908;" glyph-name="process-intelligent-manufacturing" d="M541.867 499.2c-21.333 12.8-42.667 12.8-64 0-17.067-12.8-29.867-34.133-29.867-55.467 0-34.133 29.867-59.733 64-59.733 21.333 0 42.667 12.8 51.2 29.867 17.067 29.867 8.533 68.267-21.333 85.333zM512 396.8c-25.6 0-46.933 25.6-46.933 51.2s21.333 46.933 51.2 46.933c25.6 0 46.933-21.333 46.933-51.2 0-25.6-25.6-46.933-51.2-46.933zM512 960c-281.6 0-512-230.4-512-512s230.4-512 512-512 512 230.4 512 512-230.4 512-512 512zM268.8 682.667c8.533 0 17.067-8.533 17.067-17.067s-8.533-17.067-17.067-17.067-17.067 8.533-17.067 17.067c0 8.533 8.533 17.067 17.067 17.067zM558.933 226.133c-8.533 0-17.067 8.533-17.067 17.067s8.533 17.067 17.067 17.067c8.533 0 17.067-8.533 17.067-17.067s-8.533-17.067-17.067-17.067zM742.4 217.6c-8.533-17.067-29.867-25.6-55.467-25.6-29.867 0-59.733 8.533-85.333 21.333-8.533 0-8.533 8.533-8.533 12.8 0 8.533 8.533 8.533 12.8 8.533 55.467-25.6 98.133-25.6 119.467-4.267s21.333 68.267-4.267 123.733c-8.533 25.6-21.333 51.2-38.4 72.533-21.333-25.6-42.667-51.2-68.267-76.8-98.133-98.133-204.8-157.867-277.333-157.867-21.333 0-42.667 8.533-59.733 21.333-29.867 25.6-29.867 76.8 0 145.067 12.8 29.867 25.6 64 46.933 89.6-46.933 64-72.533 132.267-72.533 179.2 0 4.267 4.267 8.533 17.067 4.267 4.267 0 8.533-4.267 8.533-8.533 0-42.667 21.333-102.4 64-162.133 42.667 55.467 93.867 110.933 149.333 153.6-72.533 51.2-136.533 76.8-179.2 68.267-4.267 0-8.533 4.267-12.8 8.533s4.267 12.8 4.267 12.8c51.2 12.8 128-17.067 204.8-72.533 29.867 21.333 59.733 38.4 93.867 51.2 64 29.867 115.2 29.867 145.067 0 17.067-12.8 21.333-34.133 21.333-55.467 0-4.267-4.267-8.533-17.067-4.267-4.267 0-8.533 4.267-8.533 8.533 0 17.067-4.267 29.867-12.8 42.667-17.067 21.333-64 21.333-119.467-4.267-29.867-17.067-59.733-29.867-85.333-51.2 29.867-21.333 51.2-42.667 76.8-64 25.6-25.6 51.2-55.467 76.8-89.6 12.8 21.333 25.6 42.667 38.4 64 4.267 4.267 8.533 4.267 12.8 4.267s4.267 0 4.267 0c4.267-4.267 4.267-8.533 4.267-12.8s0-4.267 0-4.267c-12.8-25.6-25.6-51.2-42.667-72.533 17.067-25.6 29.867-55.467 46.933-81.067 29.867-64 29.867-115.2 0-145.067zM755.2 563.2c-8.533 0-17.067 8.533-17.067 17.067s8.533 17.067 17.067 17.067 17.067-8.533 17.067-17.067c0-8.533-8.533-17.067-17.067-17.067zM341.333 426.667c-17.067-25.6-29.867-51.2-42.667-76.8-25.6-55.467-25.6-102.4-4.267-123.733 29.867-29.867 110.933-12.8 200.533 46.933-29.867 21.333-59.733 46.933-85.333 72.533s-46.933 51.2-68.267 81.067zM512 601.6c-59.733-42.667-115.2-98.133-157.867-157.867 21.333-29.867 42.667-55.467 68.267-81.067 25.6-29.867 55.467-55.467 89.6-76.8 29.867 21.333 59.733 46.933 85.333 76.8 25.6 25.6 46.933 51.2 72.533 76.8-21.333 34.133-46.933 64-76.8 93.867-25.6 25.6-51.2 46.933-81.067 68.267zM512 375.467c-42.667 0-76.8 34.133-76.8 76.8s34.133 76.8 76.8 76.8 76.8-34.133 76.8-76.8-34.133-76.8-76.8-76.8z" />
<glyph unicode="&#xe909;" glyph-name="discrete-intelligent-manufacturing" d="M512 960c-281.6 0-512-230.4-512-512s230.4-512 512-512c281.6 0 512 230.4 512 512s-230.4 512-512 512zM742.4 507.733c0-21.333-17.067-42.667-42.667-42.667-21.333 0-42.667 21.333-42.667 42.667s17.067 42.667 42.667 42.667c21.333 0 42.667-17.067 42.667-42.667zM665.6 665.6c21.333 0 42.667-21.333 42.667-42.667s-17.067-42.667-42.667-42.667c-25.6 0-46.933 21.333-42.667 42.667 0 21.333 17.067 42.667 42.667 42.667zM648.533 435.2c29.867 0 51.2-25.6 51.2-51.2 0-29.867-25.6-51.2-51.2-51.2-29.867 0-51.2 25.6-51.2 51.2 0 29.867 21.333 51.2 51.2 51.2zM563.2 584.533c21.333 0 42.667-17.067 42.667-42.667 0-21.333-17.067-42.667-42.667-42.667s-46.933 21.333-42.667 42.667c0 21.333 17.067 42.667 42.667 42.667zM529.067 422.4c21.333 0 38.4-17.067 38.4-38.4s-17.067-38.4-38.4-38.4-38.4 17.067-38.4 38.4 17.067 38.4 38.4 38.4zM499.2 307.2c0-21.333-17.067-38.4-38.4-38.4s-38.4 17.067-38.4 38.4 17.067 38.4 38.4 38.4 38.4-17.067 38.4-38.4zM413.867 524.8c29.867 0 55.467-25.6 55.467-55.467s-25.6-55.467-55.467-55.467-55.467 21.333-55.467 55.467c0 29.867 25.6 55.467 55.467 55.467zM341.333 392.533c21.333 0 38.4-17.067 38.4-38.4s-17.067-38.4-38.4-38.4-38.4 17.067-38.4 38.4 17.067 38.4 38.4 38.4zM755.2 209.067h-503.467v460.8c0 8.533 8.533 17.067 17.067 17.067s17.067-8.533 17.067-17.067v-430.933h469.333c8.533 0 17.067-4.267 17.067-12.8s-8.533-17.067-17.067-17.067z" />
<glyph unicode="&#xe90a;" glyph-name="industrial-internet1" d="M507.733 960c-281.6 0-507.733-230.4-507.733-516.267 0-281.6 230.4-507.733 516.267-507.733 281.6 0 512 230.4 507.733 516.267 0 281.6-230.4 507.733-516.267 507.733zM823.467 388.267c-4.267-4.267-8.533-8.533-12.8-12.8-34.133-8.533-59.733-25.6-76.8-55.467-21.333-29.867-21.333-59.733-12.8-93.867 4.267-8.533 0-12.8-4.267-17.067-29.867-25.6-64-42.667-102.4-59.733-8.533-4.267-12.8 0-17.067 4.267-21.333 21.333-51.2 38.4-85.333 38.4-29.867 0-64-12.8-85.333-38.4-4.267-4.267-8.533-4.267-12.8-4.267h-4.267c-34.133 12.8-68.267 29.867-102.4 55.467-4.267 4.267-8.533 12.8-4.267 17.067l4.267 12.8c4.267 4.267 4.267 12.8 4.267 21.333 0 21.333-8.533 42.667-17.067 59.733-17.067 29.867-42.667 46.933-76.8 55.467-4.267 4.267-8.533 8.533-8.533 12.8-4.267 21.333-8.533 42.667-8.533 64s0 38.4 4.267 59.733c4.267 4.267 8.533 8.533 12.8 12.8 34.133 8.533 59.733 25.6 76.8 55.467s17.067 64 8.533 98.133c0 4.267 0 12.8 4.267 12.8 34.133 25.6 68.267 46.933 102.4 59.733 8.533 4.267 12.8 0 17.067-4.267 21.333-21.333 51.2-38.4 85.333-38.4s64 12.8 85.333 38.4c4.267 4.267 12.8 8.533 17.067 4.267 34.133-12.8 68.267-29.867 93.867-55.467 4.267-4.267 8.533-12.8 4.267-17.067v-8.533c-4.267-8.533-4.267-21.333-4.267-29.867 0-21.333 8.533-42.667 17.067-59.733 17.067-29.867 42.667-46.933 76.8-55.467 8.533 0 12.8-4.267 12.8-12.8 4.267-17.067 8.533-38.4 12.8-59.733 0-21.333 0-38.4-4.267-59.733zM512 546.133c-51.2 0-98.133-42.667-98.133-98.133s46.933-98.133 98.133-98.133 98.133 42.667 98.133 98.133-46.933 98.133-98.133 98.133zM516.267 384c-34.133 0-64 29.867-64 64s29.867 64 64 64c34.133 0 64-25.6 64-64 0-34.133-29.867-64-64-64zM699.733 563.2c-17.067 25.6-21.333 64-17.067 98.133v12.8c-21.333 17.067-46.933 34.133-72.533 42.667-25.6-25.6-59.733-38.4-98.133-38.4-34.133 0-72.533 12.8-98.133 38.4-29.867-12.8-55.467-25.6-76.8-46.933 8.533-34.133 4.267-72.533-8.533-110.933-21.333-34.133-51.2-59.733-85.333-68.267-4.267-12.8-4.267-29.867-4.267-42.667s4.267-29.867 4.267-42.667c38.4-12.8 68.267-38.4 85.333-68.267s21.333-64 17.067-98.133v-8.533c0 0 46.933-34.133 72.533-42.667 25.6 25.6 64 38.4 98.133 38.4 38.4 0 72.533-12.8 98.133-38.4 25.6 8.533 51.2 25.6 72.533 42.667-8.533 34.133-4.267 72.533 12.8 110.933 21.333 34.133 51.2 59.733 85.333 68.267 4.267 12.8 4.267 29.867 4.267 42.667s-4.267 29.867-4.267 42.667c-38.4 12.8-68.267 38.4-85.333 68.267zM512 320c-72.533 0-128 55.467-128 128s55.467 128 128 128c68.267 0 128-55.467 128-128s-55.467-128-128-128z" />
<glyph unicode="&#xe90b;" glyph-name="industrial-software" d="M512 960c-281.6 0-512-230.4-512-512s230.4-512 512-512 512 230.4 512 512-230.4 512-512 512zM793.6 281.6l-29.867 4.267c0-4.267-4.267-12.8-4.267-17.067l21.333-25.6-46.933-46.933-21.333 21.333-12.8-4.267v-25.6h-64v25.6c-4.267 0-8.533 4.267-12.8 4.267l-21.333-21.333-46.933 46.933 21.333 21.333-4.267 17.067h-34.133v64h34.133c0 4.267 4.267 12.8 4.267 12.8l-21.333 17.067 46.933 46.933 21.333-21.333c4.267 0 8.533 4.267 12.8 4.267v38.4h64v-34.133c4.267 0 8.533-4.267 12.8-4.267l21.333 21.333 46.933-46.933-21.333-21.333 4.267-12.8h29.867v-64zM797.867 618.667v-140.8h-482.133v-183.467h183.467v-38.4h-221.867v221.867h-34.133v34.133c0 0 0 4.267 0 4.267 0 4.267 0 46.933 0 85.333 0 17.067 0 42.667 0 42.667h554.667v-25.6zM742.4 362.667l21.333 17.067-25.6 25.6-21.333-21.333c-8.533 4.267-21.333 8.533-34.133 12.8v29.867h-29.867v-29.867c-12.8-4.267-21.333-12.8-29.867-17.067l-21.333 21.333-25.6-25.6 21.333-17.067c-4.267-8.533-8.533-12.8-12.8-29.867h-29.867v-34.133h25.6c4.267-17.067 8.533-25.6 12.8-34.133l-21.333-21.333 25.6-25.6 21.333 21.333c8.533-4.267 12.8-8.533 29.867-12.8v-21.333h34.133v21.333c17.067 4.267 25.6 8.533 34.133 12.8l17.067-21.333 25.6 25.6-17.067 25.6c4.267 8.533 8.533 17.067 12.8 34.133h25.6v34.133h-25.6c-4.267 17.067-8.533 21.333-12.8 29.867zM665.6 260.267c-25.6 0-46.933 21.333-46.933 46.933s21.333 46.933 46.933 46.933c25.6 0 46.933-21.333 46.933-46.933s-21.333-46.933-46.933-46.933zM665.6 345.6c-21.333 0-34.133-17.067-34.133-34.133 0-21.333 17.067-34.133 34.133-34.133s29.867 12.8 34.133 34.133c0 21.333-17.067 34.133-34.133 34.133z" />
<glyph unicode="&#xe90c;" glyph-name="robot1" d="M512 960c-281.6 0-512-230.4-512-512s230.4-512 512-512 512 230.4 512 512-230.4 512-512 512zM802.133 422.4l-46.933 64-25.6-21.333 55.467-55.467-8.533-8.533-68.267 51.2-8.533-8.533-4.267 4.267 8.533 4.267c-4.267-4.267-8.533-8.533-12.8-12.8-12.8 17.067-17.067 38.4-17.067 55.467l-119.467 123.733c-4.267 0-4.267 0-8.533 0l-140.8-136.533c4.267-8.533 4.267-17.067 4.267-25.6 0-38.4-21.333-68.267-51.2-85.333v-29.867h64v21.333h25.6v-17.067h12.8v17.067h25.6v-17.067h12.8v17.067h25.6v-17.067h12.8v17.067h25.6v-17.067h29.867v-21.333h25.6v-76.8h-25.6v-21.333h-51.2v-34.133h119.467v-46.933h-430.933v46.933h29.867v183.467c-29.867 17.067-46.933 42.667-46.933 81.067 0 55.467 42.667 98.133 98.133 98.133 4.267 0 8.533 0 12.8 0l145.067 140.8c4.267 29.867 29.867 59.733 64 59.733 29.867 0 55.467-21.333 64-51.2v0l140.8-149.333c21.333 0 42.667-8.533 55.467-25.6-4.267-4.267-4.267-4.267-8.533-8.533v-8.533l-8.533-8.533 34.133-76.8-8.533-4.267zM396.8 226.133h106.667v-34.133h-106.667v34.133zM311.467 507.733c-29.867 0-51.2-25.6-51.2-51.2 0-29.867 25.6-51.2 51.2-51.2 29.867 0 51.2 25.6 51.2 51.2 0 29.867-21.333 51.2-51.2 51.2zM311.467 430.933c-12.8 0-25.6 12.8-25.6 25.6s12.8 25.6 25.6 25.6 25.6-12.8 25.6-25.6-12.8-25.6-25.6-25.6zM533.333 725.333c-21.333 0-34.133-12.8-34.133-34.133s17.067-34.133 34.133-34.133 34.133 12.8 34.133 34.133-17.067 34.133-34.133 34.133zM533.333 669.867c-8.533 0-17.067 8.533-17.067 17.067s8.533 17.067 17.067 17.067 17.067-8.533 17.067-17.067c0-8.533-8.533-17.067-17.067-17.067zM362.667 541.867c8.533-4.267 17.067-12.8 21.333-17.067l115.2 110.933c-8.533 4.267-12.8 12.8-21.333 21.333l-115.2-115.2zM580.267 644.267l106.667-110.933c4.267 4.267 4.267 4.267 8.533 8.533 0 0 4.267 0 4.267 0l-110.933 115.2c0-4.267-4.267-8.533-8.533-12.8z" />
<glyph unicode="&#xe90d;" glyph-name="numerical-control-machine" d="M610.133 558.933c8.533 0 12.8 4.267 12.8 12.8s-4.267 12.8-12.8 12.8-12.8-4.267-12.8-12.8c0-8.533 4.267-12.8 12.8-12.8zM661.333 558.933c8.533 0 12.8 4.267 12.8 12.8s-4.267 12.8-12.8 12.8-12.8-4.267-12.8-12.8c0-8.533 4.267-12.8 12.8-12.8zM512 960c-281.6 0-512-230.4-512-512s230.4-512 512-512 512 230.4 512 512-230.4 512-512 512zM780.8 196.267h-499.2v29.867h25.6l17.067 21.333h29.867v21.333h25.6v247.467h-110.933l-25.6 25.6v132.267l25.6 25.6h354.133l25.6-38.4h76.8v-128h-85.333v-76.8h8.533v-38.4h-8.533l-8.533-21.333h-8.533v-51.2l-4.267-8.533-4.267 4.267v51.2h-8.533l-8.533 21.333h-8.533v38.4h8.533v81.067h-136.533v-268.8h25.6v-21.333h68.267l17.067 34.133h29.867v-34.133h34.133v34.133h29.867l17.067-34.133h55.467l12.8-21.333v4.267h29.867v-29.867zM524.8 558.933v25.6c-4.267 0-8.533 4.267-8.533 8.533h-25.6v8.533h25.6c0 4.267 4.267 8.533 8.533 8.533v25.6h8.533v-21.333c4.267 0 8.533-4.267 8.533-8.533l12.8-4.267h8.533v-8.533h-21.333c0-4.267-4.267-8.533-8.533-8.533v-25.6c21.333 4.267 38.4 21.333 38.4 42.667s-21.333 42.667-42.667 42.667-42.667-21.333-42.667-42.667c0-21.333 17.067-38.4 38.4-42.667z" />
<glyph unicode="&#xe90e;" glyph-name="aerospace1" d="M512 960c-281.6 0-512-230.4-512-512s230.4-512 512-512 512 230.4 512 512-230.4 512-512 512zM426.667 384c12.8-8.533 12.8-25.6 0-38.4l-119.467-119.467c-8.533-12.8-25.6-12.8-38.4 0l-81.067 81.067c-12.8 8.533-12.8 25.6 0 38.4l119.467 119.467c8.533 12.8 25.6 12.8 38.4 0l34.133-34.133 17.067 17.067-12.8 8.533c-12.8 17.067-21.333 34.133-21.333 55.467-17.067 25.6-21.333 59.733-4.267 76.8 21.333 17.067 51.2 17.067 76.8-4.267 21.333 0 42.667-8.533 55.467-21.333l12.8-12.8 17.067 17.067-34.133 34.133c-12.8 8.533-12.8 25.6 0 38.4l119.467 119.467c8.533 12.8 25.6 12.8 38.4 0l81.067-81.067c12.8-12.8 12.8-29.867 0-38.4l-115.2-119.467c-8.533-12.8-25.6-12.8-38.4 0l-29.867 29.867-17.067-17.067 29.867-29.867c-21.333-8.533-46.933-25.6-64-42.667-17.067-21.333-34.133-42.667-42.667-64l-34.133 34.133-17.067-17.067 29.867-29.867zM473.6 251.733c0 4.267-4.267 4.267-4.267 8.533-4.267 0-4.267 4.267-4.267 4.267-25.6 46.933-8.533 115.2 46.933 170.667 51.2 55.467 123.733 72.533 170.667 46.933 0-4.267 4.267-4.267 4.267-4.267 4.267 0 8.533-4.267 8.533-4.267 17.067-21.333 0-64-42.667-110.933l-17.067 25.6c21.333 25.6 29.867 46.933 25.6 51.2-8.533 8.533-51.2-21.333-93.867-64s-72.533-85.333-64-93.867c4.267-4.267 25.6 8.533 55.467 29.867l25.6-17.067c-46.933-38.4-89.6-55.467-110.933-42.667zM584.533 345.6c-8.533 4.267-8.533 17.067 0 21.333l4.267 4.267c8.533 8.533 17.067 4.267 21.333 0l25.6-29.867c0-4.267 0-8.533 4.267-8.533 0 0 4.267 0 4.267 0 12.8 0 25.6-8.533 21.333-21.333 0-12.8-8.533-21.333-21.333-21.333s-21.333 8.533-21.333 21.333c0 0 0 0 0 4.267-4.267 0-4.267 4.267-8.533 4.267l-29.867 25.6zM618.667 260.267c21.333 0 42.667 8.533 55.467 21.333 17.067 12.8 25.6 29.867 25.6 51.2l29.867 4.267c0-59.733-51.2-106.667-110.933-106.667v29.867zM622.933 174.933v29.867c76.8 0 136.533 55.467 136.533 128v4.267h29.867c0-89.6-72.533-162.133-166.4-162.133z" />
<glyph unicode="&#xe90f;" glyph-name="oceanographic-engineering" d="M708.267 669.867c-12.8-8.533-29.867-17.067-46.933-29.867l64-4.267-17.067 34.133zM746.667 686.933c-4.267 0-8.533-4.267-17.067-4.267l12.8-25.6c4.267 8.533 4.267 21.333 4.267 29.867zM273.067 473.6h46.933v-29.867h-46.933v29.867zM285.867 507.733l72.533 4.267v-34.133h-12.8v-29.867h21.333v-29.867h42.667l4.267 38.4-128 166.4zM733.867 610.133l-81.067 4.267 46.933-81.067c17.067 21.333 25.6 51.2 34.133 76.8zM512 960c-281.6 0-512-230.4-512-512s230.4-512 512-512 512 230.4 512 512-230.4 512-512 512zM823.467 328.533h-213.333v-153.6c0 0-34.133 0-64 0v153.6h-149.333v-153.6h-59.733v153.6h-128v93.867h25.6v25.6h12.8v29.867h-12.8v34.133h42.667v132.267l-21.333 25.6 29.867 42.667 145.067-119.467 12.8 110.933h68.267l38.4-234.667c8.533 38.4 25.6 89.6 55.467 136.533 59.733 85.333 153.6 115.2 157.867 115.2 0 0 4.267 0 8.533-4.267 4.267 0 4.267-4.267 4.267-8.533s0-119.467-59.733-204.8c-29.867-38.4-59.733-64-89.6-81.067h196.267v-93.867zM593.067 516.267l25.6-72.533c21.333 17.067 42.667 34.133 64 55.467l-89.6 17.067zM631.467 610.133c-8.533-8.533-12.8-12.8-17.067-21.333-8.533-17.067-17.067-29.867-21.333-42.667l85.333-17.067-46.933 81.067zM558.933 422.4h8.533c8.533 0 17.067 4.267 29.867 12.8l-21.333 64c-8.533-34.133-12.8-59.733-17.067-76.8z" />
<glyph unicode="&#xe910;" glyph-name="rail-transit" d="M384 328.533c-8.533 0-12.8 0-21.333-4.267s-12.8-12.8-17.067-17.067c-4.267-8.533-4.267-12.8-4.267-21.333s4.267-21.333 12.8-25.6c8.533-8.533 17.067-12.8 29.867-12.8s21.333 4.267 29.867 8.533c8.533 8.533 12.8 17.067 12.8 29.867s-4.267 21.333-12.8 29.867c-8.533 8.533-17.067 12.8-29.867 12.8zM640 332.8c-12.8 0-21.333-4.267-29.867-12.8s-12.8-17.067-12.8-29.867 4.267-21.333 12.8-29.867c8.533-8.533 17.067-12.8 29.867-12.8s21.333 4.267 29.867 12.8c8.533 8.533 12.8 17.067 12.8 29.867s-4.267 21.333-12.8 29.867-17.067 12.8-29.867 12.8zM469.333 661.333h98.133l4.267 4.267v8.533c0 8.533-4.267 12.8-12.8 12.8h-89.6c-4.267 0-4.267-4.267-8.533-4.267-4.267-4.267-4.267-4.267-4.267-8.533s0-4.267 4.267-8.533c0-4.267 4.267-4.267 8.533-4.267zM657.067 576h-290.133c-4.267 0-8.533 0-8.533-4.267-4.267 0-4.267-4.267-8.533-8.533s-4.267-8.533-4.267-12.8v-119.467c0-4.267 0-4.267 0-8.533s4.267-8.533 4.267-8.533c4.267 0 4.267-4.267 8.533-4.267 0 0 4.267 0 8.533 0h290.133c4.267 0 8.533 4.267 12.8 4.267s8.533 4.267 8.533 8.533c4.267 4.267 4.267 8.533 4.267 12.8v115.2c0 8.533-4.267 12.8-8.533 17.067s-8.533 8.533-17.067 8.533zM512 960c-281.6 0-512-230.4-512-512s230.4-512 512-512 512 230.4 512 512-230.4 512-512 512zM742.4 247.467c0-12.8-4.267-25.6-17.067-38.4s-25.6-17.067-42.667-17.067h-29.867l29.867-55.467c4.267 0 4.267-4.267 0-4.267-8.533 0-17.067 0-17.067 0l-38.4 59.733h-226.133l-42.667-55.467h-8.533c-4.267 0-8.533 0-8.533 0v4.267l34.133 51.2h-34.133c-17.067 0-29.867 4.267-38.4 17.067-12.8 8.533-17.067 21.333-17.067 38.4v409.6c0 17.067 4.267 29.867 12.8 38.4 12.8 12.8 25.6 17.067 42.667 17.067h85.333c0 8.533 4.267 12.8 12.8 21.333 8.533 4.267 12.8 8.533 21.333 8.533s17.067-4.267 21.333-8.533c4.267-8.533 8.533-12.8 8.533-21.333h55.467c0 4.267 0 8.533 4.267 12.8 0 4.267 4.267 4.267 8.533 8.533s8.533 4.267 12.8 4.267c4.267 0 8.533 0 12.8-4.267 4.267 0 4.267-4.267 8.533-8.533s4.267-8.533 4.267-12.8h85.333c17.067 0 29.867-4.267 42.667-17.067 12.8-8.533 17.067-21.333 17.067-38.4v-409.6z" />
<glyph unicode="&#xe911;" glyph-name="car1" d="M379.733 482.133h273.067c17.067 0 42.667 17.067 42.667 38.4l-8.533 29.867-17.067 76.8c-4.267 12.8-4.267 21.333-12.8 29.867h-285.867c-8.533-8.533-8.533-21.333-12.8-29.867l-17.067-76.8-4.267-29.867c0-21.333 21.333-38.4 42.667-38.4zM482.133 614.4v8.533c0 8.533 4.267 12.8 8.533 12.8h51.2c4.267 0 8.533-8.533 8.533-12.8v-8.533c0-8.533-4.267-12.8-8.533-12.8h-55.467c-4.267 0-8.533 8.533-4.267 12.8zM571.733 409.6h-115.2c-8.533 0-12.8-4.267-12.8-12.8v-34.133c0-8.533 4.267-12.8 12.8-12.8h115.2c8.533 0 12.8 4.267 12.8 12.8v34.133c0 8.533-4.267 12.8-12.8 12.8zM354.133 418.133c-25.6 0-42.667-17.067-42.667-42.667s21.333-42.667 42.667-42.667c25.6 0 42.667 21.333 42.667 42.667 0 25.6-17.067 42.667-42.667 42.667zM674.133 418.133c-25.6 0-42.667-17.067-42.667-42.667s21.333-42.667 42.667-42.667 42.667 21.333 42.667 42.667c0 25.6-21.333 42.667-42.667 42.667zM512 960c-281.6 0-512-230.4-512-512s230.4-512 512-512 512 230.4 512 512-230.4 512-512 512zM797.867 520.533v-12.8c0-8.533-8.533-17.067-17.067-17.067l-21.333-4.267c8.533-12.8 12.8-29.867 12.8-46.933l8.533-72.533c0-4.267 0-4.267 0-8.533v-123.733c0-17.067-8.533-29.867-25.6-29.867h-42.667c-12.8 0-25.6 12.8-25.6 29.867v59.733h-358.4v-59.733c0-17.067-8.533-29.867-25.6-29.867h-42.667c-12.8 0-25.6 12.8-25.6 29.867v123.733c0 4.267 0 4.267 0 8.533l8.533 72.533c0 17.067 4.267 34.133 12.8 46.933h-21.333c-8.533 0-17.067 8.533-17.067 17.067v12.8c0 8.533 8.533 17.067 17.067 17.067h55.467c4.267 0 4.267 0 8.533 0l21.333 102.4c8.533 34.133 34.133 55.467 76.8 55.467h230.4c38.4 0 68.267-12.8 76.8-55.467l25.6-102.4c4.267 0 4.267 0 8.533 0h55.467c8.533 0 12.8-4.267 4.267-12.8z" />
<glyph unicode="&#xe912;" glyph-name="power1" d="M465.067 614.4l46.933-29.867 42.667 29.867zM584.533 392.533v-4.267h4.267l-8.533 81.067-55.467-38.4zM524.8 576l46.933-34.133-4.267 64zM460.8 533.333h98.133l-46.933 34.133zM499.2 576l-46.933 29.867-4.267-68.267v4.267zM541.867 738.133h-68.267l34.133-21.333zM426.667 337.067v-4.267l81.067-55.467 81.067 55.467 4.267-25.6-64-42.667 72.533-46.933v-25.6l-89.6 59.733-93.867-64v29.867l72.533 46.933-64 42.667v8.533l-12.8-145.067h192l-12.8 166.4zM558.933 678.4l-4.267 51.2-34.133-25.6zM465.067 729.6l-4.267-51.2 34.133 25.6zM494.933 435.2l-55.467 34.133-4.267-81.067v4.267zM460.8 665.6h98.133l-46.933 29.867zM452.267 482.133l55.467-38.4 55.467 38.4zM456.533 388.267h106.667l-51.2 34.133zM512 960c-281.6 0-512-230.4-512-512s230.4-512 512-512 512 230.4 512 512-230.4 512-512 512zM691.2 418.133h-29.867v51.2h29.867v-51.2zM682.667 601.6v-51.2h-34.133v51.2h34.133zM345.6 601.6h34.133v-51.2h-34.133v51.2zM362.667 418.133h-29.867v51.2h29.867zM362.667 439.467v-12.8zM362.667 448v-8.533zM362.667 456.533v-8.533zM362.667 465.067v-8.533zM320 324.267h12.8v8.533h4.267v-8.533h12.8v-51.2h-29.867v51.2zM669.867 157.867v-12.8h-320v25.6h38.4l17.067 166.4h-72.533v8.533l76.8 42.667 8.533 93.867h-68.267v-8.533h-4.267v17.067l81.067 42.667 8.533 81.067h-72.533v-8.533h-4.267v17.067l81.067 42.667 8.533 85.333h128v-12.8h-4.267l8.533-72.533h4.267l81.067-42.667v-8.533h4.267v-8.533h-4.267v8.533h-81.067l8.533-81.067 81.067-42.667v-8.533h4.267v-8.533h-4.267v8.533h-76.8l8.533-93.867 81.067-42.667v-8.533h-76.8l17.067-166.4h38.4v-12.8zM704 273.067c0 0-34.133 0-29.867 0v51.2h12.8v8.533h4.267v-8.533h12.8v-51.2z" />
<glyph unicode="&#xe913;" glyph-name="medical-instruments" d="M597.333 456.533h-200.533v-217.6l8.533-4.267h209.067v46.933h-102.4v12.8h102.4v25.6h-119.467v12.8h119.467v29.867h-128v12.8h128v81.067h-8.533zM512 960c-281.6 0-512-230.4-512-512s230.4-512 512-512 512 230.4 512 512-230.4 512-512 512zM460.8 631.467c0 17.067 0 38.4 4.267 38.4 0 0 12.8 0 29.867 0l17.067 106.667h8.533l12.8-106.667c17.067 0 29.867 0 29.867 0 4.267 0 4.267-21.333 4.267-38.4 59.733-12.8 98.133-38.4 93.867-38.4h-290.133c0 0 38.4 25.6 89.6 38.4zM708.267 204.8h-145.067v-51.2h93.867v-34.133h-290.133v34.133h93.867v51.2h-145.067v25.6h51.2l4.267 358.4h290.133l-4.267-358.4h51.2v-25.6z" />
<glyph unicode="&#xe914;" glyph-name="biological-medicine" d="M584.533 358.4h-46.933v46.933c0 12.8-8.533 25.6-25.6 25.6s-25.6-8.533-25.6-25.6v-46.933h-46.933c-12.8 0-25.6-8.533-25.6-25.6s12.8-25.6 25.6-25.6h46.933v-46.933c0-12.8 8.533-25.6 25.6-25.6s25.6 8.533 25.6 25.6v46.933h46.933c12.8 0 25.6 8.533 25.6 25.6s-8.533 25.6-25.6 25.6zM328.533 550.4h362.667v-76.8h-362.667v76.8zM512 960c-281.6 0-512-230.4-512-512s230.4-512 512-512 512 230.4 512 512-230.4 512-512 512zM738.133 200.533c-4.267-25.6-21.333-42.667-46.933-42.667h-362.667c-21.333 0-42.667 17.067-42.667 42.667v349.867c0 21.333 17.067 42.667 42.667 42.667h55.467c-25.6 0-46.933 21.333-46.933 46.933v76.8c0 12.8 12.8 25.6 25.6 25.6h298.667c12.8 0 25.6-12.8 25.6-25.6v-72.533c0-25.6-21.333-46.933-46.933-46.933h55.467c21.333 0 42.667-17.067 42.667-42.667v-354.133z" />
<glyph unicode="&#xe915;" glyph-name="chemical-industry" d="M537.6 405.333c68.267-38.4 98.133-29.867 123.733-21.333l-81.067 119.467v183.467h-123.733v-174.933c0 0 0-4.267-4.267-4.267 0 0 0 0 0-4.267l-72.533-102.4c38.4 17.067 102.4 38.4 157.867 4.267zM541.867 661.333c0 4.267 4.267 8.533 8.533 8.533s8.533-4.267 8.533-8.533v-89.6c0-8.533-4.267-8.533-8.533-8.533s-8.533 4.267-8.533 8.533v89.6zM541.867 537.6c0 4.267 4.267 8.533 8.533 8.533s8.533-4.267 8.533-8.533v-8.533c0-4.267-4.267-8.533-8.533-8.533s-8.533 4.267-8.533 8.533v8.533zM503.467 307.2c12.8 0 29.867 12.8 29.867 29.867s-12.8 29.867-29.867 29.867c-17.067 0-29.867-12.8-29.867-29.867s12.8-29.867 29.867-29.867zM503.467 354.133c8.533 0 17.067-8.533 17.067-17.067s-8.533-17.067-17.067-17.067c-8.533 0-17.067 8.533-17.067 17.067s8.533 17.067 17.067 17.067zM631.467 234.667c21.333 0 38.4 17.067 38.4 38.4s-17.067 38.4-38.4 38.4-38.4-17.067-38.4-38.4 17.067-38.4 38.4-38.4zM631.467 294.4c12.8 0 21.333-8.533 21.333-21.333 4.267-12.8-8.533-21.333-21.333-21.333s-21.333 8.533-21.333 21.333c0 12.8 8.533 21.333 21.333 21.333zM392.533 238.933c25.6 0 42.667 17.067 42.667 42.667s-21.333 42.667-42.667 42.667c-25.6 0-42.667-21.333-42.667-42.667 0-25.6 21.333-42.667 42.667-42.667zM392.533 307.2c17.067 0 29.867-12.8 29.867-29.867s-12.8-29.867-29.867-29.867c-17.067 0-29.867 12.8-29.867 29.867s12.8 29.867 29.867 29.867zM512 960c-281.6 0-512-230.4-512-512s230.4-512 512-512 512 230.4 512 512-230.4 512-512 512zM776.533 204.8c-8.533-17.067-29.867-25.6-59.733-25.6l-409.6 4.267c-25.6 0-46.933 8.533-55.467 25.6s-8.533 34.133 8.533 59.733v4.267l174.933 243.2v183.467c0 8.533 4.267 12.8 8.533 12.8h153.6c0 0 8.533 0 8.533-12.8v-192l166.4-238.933c12.8-21.333 12.8-46.933 4.267-64z" />
<glyph unicode="&#xe916;" glyph-name="food-light-industry" d="M290.133 507.733h119.467c4.267 0 4.267 0 4.267 4.267l17.067 68.267c0 4.267 0 4.267-4.267 4.267h-145.067c-4.267 0-4.267-4.267-4.267-4.267l4.267-68.267c0-4.267 4.267-4.267 8.533-4.267zM448 507.733l34.133 4.267 4.267 64c0 4.267 0 4.267-4.267 4.267h-17.067c-4.267 0-4.267 0-4.267-4.267l-12.8-68.267c-4.267 0-4.267 0 0 0zM512 960c-281.6 0-512-230.4-512-512s230.4-512 512-512 512 230.4 512 512-230.4 512-512 512zM759.467 413.867h-247.467c0 34.133 17.067 55.467 55.467 59.733h140.8c34.133-4.267 51.2-21.333 51.2-59.733zM729.6 328.533c-8.533 0-17.067 0-25.6 8.533-4.267-4.267-12.8-8.533-21.333-8.533s-17.067 4.267-21.333 8.533c-4.267-4.267-12.8-8.533-25.6-8.533-8.533 0-17.067 4.267-21.333 8.533-4.267-4.267-12.8-8.533-21.333-8.533-8.533 4.267-17.067 8.533-25.6 12.8-8.533-8.533-17.067-12.8-25.6-12.8-17.067 4.267-34.133 12.8-34.133 34.133s12.8 34.133 34.133 34.133c8.533 0 17.067 0 21.333-12.8 4.267 8.533 12.8 12.8 21.333 12.8s21.333 0 25.6-8.533c4.267 8.533 12.8 8.533 21.333 8.533s17.067-4.267 21.333-8.533c4.267 8.533 12.8 8.533 21.333 8.533 12.8 0 21.333 0 25.6-8.533 8.533 4.267 17.067 8.533 25.6 8.533 17.067 0 29.867-8.533 34.133-29.867 0-21.333-8.533-34.133-29.867-38.4zM759.467 311.467c0-34.133-8.533-51.2-38.4-55.467h-170.667c-34.133 4.267-38.4 21.333-38.4 55.467h247.467zM435.2 610.133c4.267 0 4.267 0 4.267 4.267l17.067 55.467c8.533 12.8 17.067 21.333 34.133 21.333h119.467v-21.333h-115.2c-8.533 0-12.8-4.267-17.067-12.8l-8.533-38.4c0-4.267 0-8.533 4.267-8.533h38.4l-21.333-358.4h-213.333l-25.6 358.4h183.467zM733.867 204.8h-426.667c-38.4 0-64 0-64 34.133h537.6c0-38.4-17.067-29.867-46.933-34.133z" />
<glyph unicode="&#xe917;" glyph-name="intelligent-control" d="M512 960c-281.6 0-512-230.4-512-512s230.4-512 512-512 512 230.4 512 512-230.4 512-512 512zM716.8 733.867c0 12.8 8.533 25.6 25.6 25.6 12.8-4.267 25.6-12.8 25.6-25.6v-21.333c0-17.067-12.8-25.6-25.6-25.6s-25.6 8.533-25.6 25.6v21.333zM486.4 733.867c0 12.8 8.533 25.6 25.6 25.6 12.8 0 25.6-8.533 25.6-25.6v-277.333c0-12.8-12.8-21.333-25.6-21.333s-25.6 8.533-25.6 25.6v273.067zM256 733.867c0 12.8 12.8 21.333 25.6 21.333s25.6-8.533 25.6-25.6v-140.8c-4.267-12.8-12.8-21.333-25.6-21.333s-25.6 8.533-25.6 25.6v140.8zM307.2 162.133c-4.267-12.8-12.8-21.333-25.6-21.333s-25.6 8.533-25.6 21.333v140.8c0 12.8 8.533 25.6 25.6 25.6 12.8 0 25.6-8.533 25.6-25.6v-140.8zM281.6 371.2c-42.667 0-76.8 34.133-76.8 76.8s34.133 76.8 76.8 76.8 76.8-34.133 76.8-76.8-34.133-76.8-76.8-76.8zM537.6 166.4c0-17.067-12.8-25.6-25.6-25.6s-25.6 8.533-25.6 25.6v17.067c0 12.8 8.533 25.6 25.6 25.6 12.8 0 25.6-8.533 25.6-25.6v-17.067zM512 234.667c-42.667 0-76.8 34.133-76.8 76.8s34.133 76.8 76.8 76.8 76.8-34.133 76.8-76.8-34.133-76.8-76.8-76.8zM768 166.4c0-17.067-12.8-25.6-25.6-25.6s-25.6 8.533-25.6 25.6v264.533c0 12.8 8.533 25.6 25.6 25.6 12.8 0 25.6-8.533 25.6-25.6v-264.533zM742.4 486.4c-42.667 0-76.8 34.133-76.8 76.8s34.133 76.8 76.8 76.8 76.8-34.133 76.8-76.8-34.133-76.8-76.8-76.8z" />
<glyph unicode="&#xe918;" glyph-name="D-printer" d="M537.6 234.667h-110.933v-21.333h110.933zM627.2 247.467c4.267 0 4.267-4.267 0 0l4.267-25.6h68.267c17.067 0 29.867 12.8 29.867 29.867v238.933h-153.6v-34.133c0-4.267-4.267-4.267-4.267-4.267h-8.533v-21.333c0-4.267-4.267-4.267-4.267-4.267h-38.4v-17.067h-17.067v17.067h-38.4c-4.267 0-4.267 4.267-4.267 4.267v21.333h-8.533c-4.267 0-4.267 4.267-4.267 4.267v34.133h-153.6v-238.933c0-17.067 12.8-29.867 29.867-29.867h68.267v21.333c0 4.267 4.267 4.267 4.267 4.267h230.4zM512 960c-281.6 0-512-230.4-512-512s230.4-512 512-512 512 230.4 512 512-230.4 512-512 512zM780.8 217.6c0-21.333-17.067-38.4-38.4-38.4h-460.8c-21.333 0-38.4 17.067-38.4 38.4v460.8c0 21.333 17.067 38.4 38.4 38.4h460.8c21.333 0 38.4-17.067 38.4-38.4v-460.8z" />
<glyph unicode="&#xe91f;" glyph-name="intelligent-manufacturing-equipment" d="M443.733 465.067l51.2-59.733c4.267 4.267 12.8 4.267 17.067 4.267s12.8 0 21.333-4.267l51.2 59.733-72.533 85.333-68.267-85.333zM512 960c-281.6 0-512-230.4-512-512s230.4-512 512-512 512 230.4 512 512-230.4 512-512 512zM738.133 341.333h4.267c42.667 0 76.8-34.133 85.333-76.8 0-46.933-34.133-81.067-81.067-81.067s-81.067 38.4-81.067 81.067c0 29.867 12.8 55.467 38.4 68.267l-93.867 110.933-42.667-55.467c8.533-12.8 17.067-29.867 17.067-46.933 0-38.4-29.867-68.267-68.267-68.267s-68.267 29.867-68.267 68.267c0 21.333 8.533 38.4 21.333 51.2l-42.667 46.933-89.6-115.2c17.067-17.067 29.867-38.4 29.867-64 0-46.933-34.133-81.067-81.067-81.067s-81.067 38.4-81.067 81.067c0 46.933 38.4 81.067 81.067 81.067 4.267 0 12.8 0 17.067 0l98.133 128-81.067 93.867c-8.533-4.267-21.333-8.533-34.133-8.533-46.933 0-81.067 38.4-81.067 81.067s29.867 81.067 76.8 81.067c46.933 0 81.067-38.4 81.067-81.067 0-21.333-4.267-38.4-17.067-51.2l89.6-93.867 76.8 98.133c0 4.267 4.267 4.267 4.267 4.267h8.533c0-4.267 4.267-4.267 4.267-4.267l81.067-93.867 72.533 89.6c-8.533 17.067-17.067 34.133-17.067 51.2 0 46.933 38.4 81.067 81.067 81.067 46.933 0 81.067-34.133 81.067-81.067s-38.4-81.067-81.067-81.067c-12.8 0-25.6 4.267-38.4 8.533l-76.8-93.867 106.667-128z" />
<glyph unicode="&#xe920;" glyph-name="internetof-things" d="M512 960c-281.6 0-512-230.4-512-512s230.4-512 512-512 512 230.4 512 512-230.4 512-512 512zM366.933 746.667c42.667 21.333 85.333 21.333 93.867 8.533 4.267-17.067-25.6-46.933-68.267-68.267-42.667-17.067-81.067-21.333-89.6-4.267s21.333 46.933 64 64zM238.933 631.467c55.467-21.333 123.733-17.067 187.733 12.8 59.733 29.867 102.4 81.067 123.733 132.267 29.867-4.267 59.733-8.533 85.333-21.333-21.333-68.267-81.067-140.8-170.667-183.467-98.133-46.933-196.267-51.2-264.533-12.8 8.533 25.6 21.333 51.2 38.4 72.533zM183.467 448c0 4.267 0 8.533 0 12.8 76.8-29.867 192-21.333 302.933 34.133 115.2 55.467 192 145.067 213.333 221.867 21.333-8.533 38.4-25.6 55.467-46.933-8.533-85.333-93.867-187.733-226.133-251.733s-268.8-72.533-341.333-21.333c-4.267 17.067-4.267 34.133-4.267 51.2zM512 119.467c-55.467 0-110.933 12.8-153.6 38.4 81.067-8.533 187.733 17.067 290.133 68.267 72.533 34.133 132.267 81.067 179.2 128-42.667-136.533-166.4-234.667-315.733-234.667zM622.933 281.6c-136.533-68.267-277.333-85.333-362.667-51.2-17.067 21.333-34.133 46.933-46.933 72.533 85.333-29.867 221.867-17.067 358.4 51.2 115.2 59.733 204.8 140.8 243.2 213.333 17.067-34.133 25.6-72.533 25.6-115.2-46.933-64-123.733-123.733-217.6-170.667z" />
<glyph unicode="&#xe921;" glyph-name="electrical-equipment" d="M554.667 354.133c4.267 4.267 4.267 8.533 4.267 12.8 0 8.533-4.267 12.8-17.067 17.067h-110.933c-8.533 0-17.067-8.533-17.067-17.067s8.533-17.067 17.067-17.067h110.933c4.267 0 8.533 0 12.8 4.267zM512 960c-281.6 0-512-230.4-512-512s230.4-512 512-512 512 230.4 512 512-230.4 512-512 512zM738.133 128c0-4.267 0-4.267-4.267-8.533 0-4.267-4.267-4.267-8.533-4.267h-174.933c-25.6 0-46.933 12.8-64 29.867-21.333 21.333-25.6 42.667-25.6 64v85.333c-98.133 12.8-170.667 110.933-170.667 230.4 0 4.267 0 4.267 0 8.533 0 8.533-8.533 17.067-17.067 17.067s-17.067 8.533-17.067 17.067v38.4c0 4.267 4.267 8.533 8.533 12.8 0 0 4.267 4.267 12.8 4.267h46.933v98.133c0 4.267 0 8.533 4.267 8.533 0 4.267 4.267 4.267 8.533 4.267h12.8c8.533 0 12.8-4.267 12.8-12.8v-98.133h102.4v72.533c0 4.267 0 4.267 4.267 8.533 0 4.267 4.267 4.267 8.533 4.267h12.8c8.533 0 12.8-4.267 12.8-12.8v-72.533h102.4v98.133c0 4.267 0 4.267 4.267 8.533 0 4.267 4.267 4.267 8.533 4.267h12.8c8.533 0 12.8-4.267 12.8-12.8v-98.133h46.933c8.533 0 17.067-8.533 17.067-17.067v-34.133c0-4.267 0-8.533-4.267-12.8s-8.533-4.267-12.8-4.267h-4.267c-4.267 0-8.533 0-12.8-4.267s-4.267-8.533-4.267-12.8c0-4.267 0-8.533 0-8.533 0-72.533-25.6-136.533-68.267-179.2-25.6-29.867-59.733-46.933-98.133-51.2v-51.2c0-59.733 21.333-89.6 81.067-89.6h140.8c8.533 0 12.8-4.267 12.8-12.8v-17.067zM588.8 418.133c4.267 4.267 4.267 8.533 4.267 12.8 0 8.533-8.533 12.8-17.067 17.067h-183.467c-8.533 0-17.067-8.533-17.067-17.067s8.533-17.067 17.067-17.067h183.467c4.267 0 8.533 0 12.8 4.267z" />
<glyph unicode="&#xe922;" glyph-name="cloud-computing" d="M657.067 460.8c-42.667 0-76.8-34.133-76.8-76.8s34.133-76.8 76.8-76.8 76.8 34.133 76.8 76.8-34.133 76.8-76.8 76.8zM657.067 345.6c-21.333 0-38.4 17.067-38.4 38.4s17.067 38.4 38.4 38.4 38.4-17.067 38.4-38.4-17.067-38.4-38.4-38.4zM512 960c-281.6 0-512-230.4-512-512s230.4-512 512-512 512 230.4 512 512-230.4 512-512 512zM507.733 166.4h-170.667c-42.667 0-85.333 17.067-115.2 46.933s-46.933 72.533-46.933 115.2 17.067 85.333 46.933 115.2c29.867 29.867 72.533 46.933 115.2 46.933h8.533c0 59.733 25.6 119.467 68.267 162.133s102.4 68.267 162.133 68.267c34.133 0 68.267-8.533 102.4-25.6 29.867-12.8 55.467-38.4 76.8-64 4.267-8.533 4.267-17.067-4.267-25.6-8.533-4.267-17.067-4.267-25.6 4.267-17.067 25.6-38.4 42.667-64 55.467s-55.467 21.333-85.333 21.333c-51.2 0-102.4-21.333-136.533-55.467-34.133-38.4-55.467-85.333-55.467-136.533 0-4.267 0-12.8 0-17.067 4.267-4.267 0-12.8-4.267-25.6 0 0-8.533-4.267-12.8-4.267h-29.867c-29.867 0-64-12.8-85.333-34.133s-34.133-51.2-34.133-85.333c0-29.867 12.8-64 34.133-85.333s51.2-34.133 85.333-34.133h170.667c12.8 0 21.333-8.533 21.333-21.333s-8.533-21.333-21.333-21.333zM806.4 260.267c-12.8 0-21.333 0-29.867 8.533l-72.533-42.667c0-4.267 0-4.267 0-4.267 0-21.333-17.067-42.667-42.667-42.667-21.333 0-42.667 17.067-42.667 42.667 0 4.267 0 4.267 0 4.267l-76.8 42.667c-8.533-8.533-17.067-12.8-29.867-12.8-21.333 0-42.667 17.067-42.667 42.667 0 17.067 12.8 29.867 25.6 38.4v106.667c-17.067 4.267-25.6 21.333-25.6 38.4 0 21.333 17.067 42.667 42.667 42.667 12.8 0 21.333-4.267 29.867-12.8l72.533 42.667c0 4.267 0 4.267 0 4.267 0 21.333 17.067 42.667 42.667 42.667 21.333 0 42.667-17.067 42.667-42.667 0-4.267 0-4.267 0-4.267l72.533-42.667c8.533 8.533 17.067 12.8 29.867 12.8 21.333 0 42.667-17.067 42.667-42.667 0-17.067-8.533-29.867-21.333-38.4v-110.933c12.8-8.533 25.6-25.6 25.6-29.867 0-21.333-17.067-42.667-42.667-42.667z" />
<glyph unicode="&#xe923;" glyph-name="instruments-and-apparatuses" d="M307.2 187.733h409.6v520.533h-409.6v-520.533zM512 247.467c-38.4 0-72.533 29.867-72.533 72.533 0 38.4 29.867 72.533 72.533 72.533s72.533-34.133 72.533-72.533-29.867-72.533-72.533-72.533zM661.333 341.333c-8.533 0-17.067 8.533-17.067 17.067s8.533 17.067 17.067 17.067 17.067-8.533 17.067-17.067c0-8.533-8.533-17.067-17.067-17.067zM345.6 652.8c0 8.533 8.533 17.067 17.067 17.067h298.667c8.533 0 17.067-8.533 17.067-17.067v-187.733c0-8.533-8.533-17.067-17.067-17.067h-298.667c-8.533 0-17.067 8.533-17.067 17.067v187.733zM362.667 371.2c8.533 0 17.067-8.533 17.067-17.067s-8.533-17.067-17.067-17.067-17.067 8.533-17.067 17.067 8.533 17.067 17.067 17.067zM477.867 503.467c-4.267-4.267-4.267-12.8-4.267-17.067h76.8c0 21.333-17.067 38.4-38.4 38.4-4.267 0-4.267 0-4.267 0l-59.733 59.733c-8.533 8.533-21.333 12.8-29.867 4.267-4.267-8.533-4.267-21.333 4.267-34.133l55.467-51.2zM550.4 320c0-21.208-17.192-38.4-38.4-38.4s-38.4 17.192-38.4 38.4c0 21.208 17.192 38.4 38.4 38.4s38.4-17.192 38.4-38.4zM512 960c-281.6 0-512-230.4-512-512s230.4-512 512-512 512 230.4 512 512-230.4 512-512 512zM750.933 725.333v-558.933c0-8.533-8.533-17.067-17.067-17.067h-448c-8.533 0-17.067 8.533-17.067 17.067v558.933c0 12.8 8.533 21.333 21.333 21.333h443.733c12.8 0 21.333-8.533 17.067-21.333z" />
<glyph unicode="&#xe924;" glyph-name="related-equipment" d="M315.733 285.867c0-17.067 12.8-34.133 34.133-34.133h226.133c17.067 0 34.133 12.8 34.133 34.133v196.267h-294.4v-196.267zM349.867 512c17.067 0 34.133 12.8 34.133 34.133-4.267 17.067-17.067 34.133-34.133 34.133s-34.133-12.8-34.133-34.133c0-17.067 12.8-34.133 34.133-34.133zM512 960c-281.6 0-512-230.4-512-512s230.4-512 512-512 512 230.4 512 512-230.4 512-512 512zM674.133 285.867c0-55.467-42.667-98.133-98.133-98.133h-226.133c-55.467 0-98.133 42.667-98.133 98.133v226.133c0 55.467 42.667 98.133 98.133 98.133h226.133c55.467 0 98.133-42.667 98.133-98.133v-226.133zM772.267 384c0-42.667-25.6-81.067-64-93.867v256c0 55.467-42.667 98.133-98.133 98.133h-256c12.8 38.4 51.2 64 93.867 64h226.133c55.467 0 98.133-42.667 98.133-98.133v-226.133z" />
<glyph unicode="&#xe925;" glyph-name="intelligent-inspection" d="M669.867 567.467h-42.667c0-4.267 4.267-4.267 4.267-8.533v-25.6c0-8.533-8.533-17.067-17.067-17.067s-17.067 8.533-17.067 17.067v25.6c0 4.267 0 4.267 4.267 8.533h-17.067c0-4.267 4.267-4.267 4.267-8.533v-25.6c0-8.533-8.533-17.067-17.067-17.067s-17.067 8.533-17.067 17.067v25.6c0 4.267 0 4.267 4.267 8.533h-17.067c0-4.267 4.267-4.267 4.267-8.533v-25.6c0-8.533-8.533-17.067-17.067-17.067s-17.067 8.533-17.067 17.067v25.6c0 4.267 0 4.267 4.267 8.533h-217.6c0 0 0-81.067 0-85.333h371.2v85.333zM396.8 520.533h-64c-8.533 0-17.067 8.533-17.067 17.067s8.533 17.067 17.067 17.067h59.733c8.533 0 17.067-8.533 21.333-17.067 0-8.533-8.533-17.067-17.067-17.067zM640 422.4c-42.667 0-76.8-34.133-76.8-76.8s34.133-81.067 76.8-81.067 76.8 38.4 76.8 81.067-34.133 76.8-76.8 76.8zM298.667 452.267v-85.333h230.4c8.533 38.4 38.4 72.533 76.8 85.333h-307.2zM396.8 401.067h-64c-8.533 0-17.067 8.533-17.067 17.067s8.533 17.067 17.067 17.067h59.733c8.533 0 21.333-8.533 21.333-17.067s-8.533-17.067-17.067-17.067zM512 960c-281.6 0-512-230.4-512-512s230.4-512 512-512 512 230.4 512 512-230.4 512-512 512zM806.4 174.933c-8.533-8.533-17.067-8.533-25.6 0l-76.8 76.8c-17.067-12.8-38.4-21.333-64-21.333-55.467 0-106.667 42.667-110.933 98.133h-25.6v-29.867c25.6-8.533 46.933-34.133 46.933-64 0-34.133-29.867-64-64-64-29.867 0-55.467 21.333-64 46.933h-140.8c-8.533 0-17.067 8.533-17.067 17.067s8.533 17.067 17.067 17.067h140.8c8.533 25.6 25.6 42.667 46.933 46.933v29.867h-187.733c-8.533 0-17.067 8.533-17.067 17.067v358.4c0 12.8 8.533 17.067 17.067 17.067h405.333c8.533 0 17.067-8.533 17.067-17.067v-268.8c29.867-17.067 46.933-51.2 46.933-89.6 0-25.6-8.533-51.2-21.333-68.267l76.8-72.533c4.267-8.533 4.267-21.333 0-29.867zM669.867 686.933h-42.667c0-4.267 4.267-4.267 4.267-8.533v-25.6c0-8.533-8.533-17.067-17.067-17.067s-17.067 8.533-17.067 17.067v25.6c0 4.267 0 4.267 4.267 8.533h-17.067c0-4.267 4.267-4.267 4.267-8.533v-25.6c0-8.533-8.533-17.067-17.067-17.067s-17.067 8.533-17.067 17.067v25.6c0 4.267 0 4.267 4.267 8.533h-17.067c0-4.267 4.267-4.267 4.267-8.533v-25.6c0-8.533-8.533-17.067-17.067-17.067s-17.067 8.533-17.067 17.067v25.6c0 4.267 0 4.267 4.267 8.533h-217.6v-85.333h371.2v85.333zM396.8 640h-64c-8.533 0-17.067 8.533-17.067 17.067s8.533 17.067 17.067 17.067h59.733c8.533 0 17.067-8.533 21.333-17.067 0-8.533-8.533-17.067-17.067-17.067z" />
<glyph unicode="&#xe926;" glyph-name="manufacturing-materials" d="M768 337.067h-226.133c4.267-17.067 4.267-21.333 4.267-38.4s0-29.867-4.267-38.4h226.133c21.333 0 38.4 12.8 38.4 38.4 0 21.333-21.333 38.4-38.4 38.4zM512 960c-281.6 0-512-230.4-512-512s230.4-512 512-512 512 230.4 512 512-230.4 512-512 512zM290.133 533.333h42.667c4.267 21.333 12.8 46.933 25.6 64l-25.6 25.6 51.2 51.2 29.867-25.6c17.067 12.8 42.667 21.333 64 25.6v42.667h72.533v-42.667c21.333-4.267 46.933-12.8 64-25.6l25.6 25.6 51.2-55.467-25.6-25.6c12.8-17.067 21.333-42.667 25.6-64h42.667v-72.533h-119.467c4.267 17.067 8.533 25.6 8.533 38.4 0 59.733-51.2 110.933-110.933 110.933s-110.933-51.2-110.933-110.933c0-17.067 4.267-29.867 8.533-34.133h-119.467v72.533zM550.4 494.933c0-21.333-21.333-38.4-38.4-38.4-21.333 0-38.4 21.333-38.4 38.4s17.067 38.4 38.4 38.4 38.4-17.067 38.4-38.4zM768 179.2h-512c-59.733 0-110.933 51.2-110.933 110.933s51.2 110.933 110.933 110.933h512c59.733 0 110.933-51.2 110.933-110.933s-51.2-110.933-110.933-110.933z" />
<glyph unicode="&#xe927;" glyph-name="logistics-and-warehousing" d="M512 960c-281.6 0-512-230.4-512-512s230.4-512 512-512 512 230.4 512 512-230.4 512-512 512zM183.467 396.8c0 12.8 12.8 21.333 25.6 21.333h243.2c12.8 0 25.6-8.533 25.6-21.333s-12.8-21.333-25.6-21.333h-243.2c-12.8 0-25.6 8.533-25.6 21.333zM183.467 494.933c0 12.8 8.533 21.333 21.333 21.333h209.067c12.8 0 21.333-12.8 21.333-21.333 0-12.8-8.533-21.333-21.333-21.333h-209.067c-12.8 0-21.333 8.533-21.333 21.333zM844.8 251.733h-55.467c-12.8-29.867-42.667-51.2-76.8-51.2s-64 21.333-76.8 51.2h-140.8c-12.8-29.867-42.667-51.2-76.8-51.2-42.667 0-76.8 34.133-76.8 76.8v-21.333h-106.667v59.733c0 12.8 8.533 21.333 21.333 21.333s21.333-8.533 21.333-21.333v-17.067h64v-21.333c0 42.667 34.133 81.067 81.067 81.067 42.667 0 72.533-25.6 81.067-64h93.867v358.4h-307.2v-42.667h119.467c17.067 0 25.6-8.533 25.6-21.333s-8.533-21.333-21.333-21.333h-209.067c-12.8 0-25.6 8.533-25.6 21.333s8.533 21.333 21.333 21.333h46.933v85.333h392.533v-119.467h93.867l110.933-132.267v-192zM712.533 320c-21.333 0-38.4-17.067-38.4-38.4s17.067-38.4 38.4-38.4 38.4 17.067 38.4 38.4c0 17.067-17.067 38.4-38.4 38.4zM418.133 320c-21.333 0-38.4-17.067-38.4-38.4s17.067-38.4 38.4-38.4 38.4 17.067 38.4 38.4c0 17.067-17.067 38.4-38.4 38.4zM640 533.333v-217.6c12.8 25.6 38.4 46.933 72.533 46.933 42.667 0 72.533-29.867 81.067-68.267h8.533v132.267l-89.6 106.667h-72.533zM755.2 413.867h-85.333v46.933h46.933l38.4-46.933z" />
<glyph unicode="&#xe928;" glyph-name="it-industry" d="M512 960c-281.6 0-512-230.4-512-512s230.4-512 512-512 512 230.4 512 512-230.4 512-512 512zM533.333 409.6v-268.8h-42.667v268.8c-12.8 8.533-21.333 21.333-21.333 38.4 0 21.333 17.067 42.667 42.667 42.667 21.333 0 42.667-17.067 42.667-42.667 0-17.067-8.533-29.867-21.333-38.4zM571.733 388.267c17.067 12.8 25.6 38.4 25.6 59.733s-8.533 42.667-25.6 59.733c-12.8 17.067-34.133 25.6-59.733 25.6-21.333 0-42.667-8.533-59.733-25.6-17.067-12.8-25.6-34.133-25.6-59.733s8.533-46.933 21.333-64l-29.867-29.867c-25.6 25.6-38.4 59.733-38.4 93.867 0 72.533 59.733 132.267 132.267 132.267s128-59.733 128-128c0-38.4-12.8-68.267-38.4-93.867l-29.867 29.867zM635.733 324.267c17.067 17.067 29.867 34.133 38.4 55.467s12.8 42.667 12.8 68.267-4.267 46.933-12.8 68.267-21.333 38.4-38.4 55.467c-17.067 17.067-34.133 29.867-55.467 38.4s-42.667 12.8-68.267 12.8-46.933-4.267-68.267-12.8-38.4-21.333-55.467-38.4c-17.067-17.067-29.867-34.133-38.4-55.467s-12.8-42.667-12.8-68.267 4.267-46.933 12.8-68.267 21.333-38.4 38.4-55.467l-29.867-29.867c-38.4 38.4-64 93.867-64 153.6 0 119.467 98.133 217.6 217.6 217.6s217.6-98.133 217.6-217.6c0-59.733-25.6-115.2-64-153.6l-29.867 29.867zM729.6 230.4l-29.867 29.867c21.333 25.6 42.667 55.467 55.467 85.333 12.8 34.133 21.333 68.267 21.333 102.4s-8.533 68.267-21.333 102.4c-12.8 34.133-29.867 59.733-55.467 85.333-25.6 21.333-55.467 42.667-85.333 55.467-34.133 12.8-68.267 21.333-102.4 21.333s-68.267-8.533-102.4-21.333c-34.133-12.8-59.733-29.867-85.333-55.467-21.333-25.6-42.667-55.467-55.467-85.333-12.8-34.133-21.333-68.267-21.333-102.4 0-38.4 8.533-72.533 21.333-102.4 12.8-34.133 29.867-59.733 55.467-85.333l-29.867-29.867c-55.467 55.467-89.6 132.267-89.6 217.6 0 170.667 136.533 307.2 307.2 307.2 166.4 0 307.2-140.8 307.2-307.2 0-85.333-34.133-162.133-89.6-217.6z" />
<glyph unicode="&#xe929;" glyph-name="property" d="M891.733-59.733h-763.733c-34.133 0-59.733 25.6-59.733 59.733 0 0 0 0 0 0 0 29.867 25.6 55.467 55.467 59.733v307.2l-34.133-34.133c-8.533-8.533-21.333-12.8-34.133-12.8s-25.6 4.267-34.133 12.8l-8.533 8.533c-17.067 17.067-17.067 51.2 0 68.267 0 0 0 0 0 0l443.733 439.467c12.8 17.067 34.133 21.333 55.467 21.333s42.667-8.533 55.467-21.333l119.467-119.467v174.933c0 25.6 21.333 46.933 46.933 46.933 0 0 0 0 0 0 25.6 0 46.933-21.333 46.933-46.933 29.867-4.267 64-12.8 102.4-21.333 12.8-4.267 29.867-4.267 42.667-4.267 29.867 0 51.2 8.533 64 17.067l34.133 17.067v-221.867l-17.067-4.267c-55.467-17.067-115.2-12.8-170.667 4.267-21.333 4.267-38.4 8.533-51.2 12.8v-68.267l226.133-226.133c8.533-8.533 12.8-21.333 12.8-34.133s-4.267-25.6-12.8-34.133l-8.533-8.533c-8.533-8.533-21.333-12.8-34.133-12.8s-25.6 4.267-34.133 12.8l-38.4 34.133v-307.2c29.867 0 55.467-25.6 55.467-59.733s-25.6-59.733-59.733-59.733zM128 17.067c-8.533 0-17.067-8.533-17.067-17.067s8.533-17.067 17.067-17.067h763.733c8.533 0 17.067 8.533 17.067 17.067s-8.533 17.067-17.067 17.067h-38.4v448l102.4-102.4c4.267-4.267 8.533-4.267 12.8 0l8.533 8.533c0 0 0 4.267 0 4.267s0 4.267 0 4.267l-238.933 238.933v128h25.6c21.333-4.267 51.2-8.533 81.067-17.067 42.667-12.8 89.6-17.067 136.533-4.267v128c-17.067-4.267-34.133-8.533-55.467-8.533-17.067 0-34.133 4.267-51.2 8.533-42.667 12.8-81.067 21.333-115.2 21.333h-17.067v29.867c0 4.267-4.267 8.533-8.533 8.533s-8.533-4.267-8.533-8.533v-273.067l-187.733 187.733c-8.533 8.533-17.067 12.8-25.6 12.8-12.8 0-21.333-4.267-29.867-12.8l-439.467-439.467c-4.267-4.267-4.267-8.533 0-12.8l8.533-8.533c4.267-4.267 8.533-4.267 12.8 0l102.4 102.4v-443.733h-38.4zM631.467 17.067h-243.2v256h243.2v-256zM430.933 59.733h162.133v174.933h-162.133v-174.933z" />
<glyph unicode="&#xe92a;" glyph-name="classification" d="M503.467 516.267c-21.333 0-42.667 4.267-59.733 12.8l-320 157.867c-25.6 8.533-38.4 25.6-38.4 46.933s12.8 38.4 34.133 46.933l324.267 166.4c21.333 8.533 42.667 12.8 64 12.8s42.667-4.267 59.733-12.8l320-157.867c21.333-12.8 34.133-29.867 34.133-46.933 0-21.333-12.8-38.4-34.133-46.933l-324.267-166.4c-17.067-8.533-38.4-12.8-59.733-12.8zM145.067 733.867l320-157.867c8.533-4.267 21.333-8.533 34.133-8.533s29.867 4.267 38.4 8.533l324.267 166.4c0 0 0 0 0 0l-320 157.867c-8.533 4.267-21.333 8.533-34.133 8.533s-29.867-4.267-38.4-8.533l-324.267-166.4c0 0 0 0 0 0v0zM435.2-64c-12.8 0-21.333 4.267-34.133 8.533v0l-285.867 149.333c-34.133 17.067-59.733 51.2-59.733 85.333v405.333c0 29.867 21.333 46.933 51.2 46.933 12.8 0 21.333-4.267 34.133-8.533v0l285.867-149.333c34.133-17.067 59.733-51.2 59.733-85.333v-405.333c0-25.6-21.333-46.933-51.2-46.933zM422.4-8.533c4.267 0 4.267 0 8.533-4.267v401.067c0 8.533-12.8 25.6-29.867 38.4v0l-285.867 149.333c-4.267 0-4.267 0-8.533 4.267v-401.067c0-8.533 12.8-25.6 29.867-38.4v0l285.867-149.333zM588.8-64c0 0 0 0 0 0-29.867 0-51.2 21.333-51.2 46.933v405.333c0 29.867 25.6 68.267 59.733 85.333l285.867 149.333c12.8 4.267 21.333 8.533 34.133 8.533 29.867 0 51.2-21.333 51.2-46.933v-405.333c0-29.867-25.6-68.267-59.733-85.333l-285.867-149.333c-12.8-4.267-21.333-8.533-34.133-8.533zM908.8 576l-285.867-149.333c-17.067-8.533-29.867-29.867-29.867-38.4v-401.067c0 0 4.267 0 8.533 4.267l285.867 149.333c17.067 8.533 29.867 29.867 29.867 38.4v401.067c0 0-4.267 0-8.533-4.267z" />
<glyph unicode="&#xe92b;" glyph-name="function" d="M409.6 891.733v-341.333h-341.333v341.333h341.333zM409.6 960h-341.333c-38.4 0-68.267-29.867-68.267-68.267v-341.333c0-38.4 29.867-68.267 68.267-68.267h341.333c38.4 0 68.267 29.867 68.267 68.267v341.333c0 38.4-29.867 68.267-68.267 68.267zM409.6 345.6v-341.333h-341.333v341.333h341.333zM409.6 413.867h-341.333c-38.4 0-68.267-29.867-68.267-68.267v-341.333c0-38.4 29.867-68.267 68.267-68.267h341.333c38.4 0 68.267 29.867 68.267 68.267v341.333c0 38.4-29.867 68.267-68.267 68.267zM785.067 891.733c93.867 0 170.667-76.8 170.667-170.667s-76.8-170.667-170.667-170.667-170.667 76.8-170.667 170.667 76.8 170.667 170.667 170.667zM785.067 960c-132.267 0-238.933-106.667-238.933-238.933s106.667-238.933 238.933-238.933 238.933 106.667 238.933 238.933-106.667 238.933-238.933 238.933zM955.733 345.6v-341.333h-341.333v341.333h341.333zM955.733 413.867h-341.333c-38.4 0-68.267-29.867-68.267-68.267v-341.333c0-38.4 29.867-68.267 68.267-68.267h341.333c38.4 0 68.267 29.867 68.267 68.267v341.333c0 38.4-29.867 68.267-68.267 68.267z" />
<glyph unicode="&#xe92c;" glyph-name="industry" d="M942.933 738.133h-145.067v115.2c0 34.133-29.867 64-64 64h-443.733c-34.133 0-64-29.867-64-64v-115.2h-145.067c-46.933 0-81.067-34.133-81.067-76.8v-601.6c0-42.667 34.133-81.067 81.067-81.067h861.867c42.667 0 81.067 34.133 81.067 81.067v601.6c0 42.667-34.133 76.8-81.067 76.8v0zM302.933 840.533h422.4v-102.4h-422.4v102.4zM81.067 665.6h861.867c4.267 0 4.267-4.267 4.267-4.267v-238.933h-149.333v21.333c0 21.333-17.067 38.4-38.4 38.4s-38.4-17.067-38.4-38.4v-21.333h-418.133v21.333c0 21.333-17.067 38.4-38.4 38.4s-38.4-17.067-38.4-38.4v-21.333h-149.333v238.933c0 0 0 4.267 4.267 4.267zM942.933 55.467h-861.867c-4.267 0-4.267 4.267-4.267 4.267v281.6h149.333v-21.333c0-21.333 17.067-38.4 38.4-38.4s38.4 17.067 38.4 38.4v21.333h422.4v-21.333c0-21.333 17.067-38.4 38.4-38.4s38.4 17.067 38.4 38.4v21.333h149.333v-281.6c-4.267-4.267-4.267-4.267-8.533-4.267v0z" />
<glyph unicode="&#xe92d;" glyph-name="standard-collection" d="M934.4 853.333v-917.333h-844.8v917.333h140.8v-68.267h-68.267v-776.533h704v776.533h-68.267v68.267h136.533zM341.333 512h-64v64h64c0 0 0-64 0-64zM341.333 384h-64v64h64c0 0 0-64 0-64zM277.333 320h64v-64h-64c0 0 0 64 0 64zM298.667 746.667v106.667h102.4c0 29.867 8.533 55.467 29.867 76.8 25.6 21.333 51.2 29.867 81.067 29.867s55.467-8.533 76.8-29.867c21.333-21.333 29.867-46.933 29.867-76.8h106.667v-106.667h-426.667c0 0 0 0 0 0zM729.6 512h-324.267v64h320c4.267 0 4.267-64 4.267-64zM729.6 384h-324.267v64h320l4.267-64zM405.333 320h320v-64h-320v64zM486.4 878.933c-8.533-8.533-12.8-17.067-12.8-25.6s4.267-21.333 12.8-25.6c8.533-8.533 17.067-8.533 29.867-8.533 21.333 0 34.133 8.533 34.133 34.133 0 8.533-4.267 21.333-12.8 29.867s-17.067 12.8-25.6 12.8c-8.533-4.267-17.067-8.533-25.6-17.067z" />
<glyph unicode="&#xe92e;" glyph-name="policy-collection" d="M913.067 627.2v0-648.533c0-25.6-21.333-46.933-46.933-46.933h-708.267c-25.6 0-46.933 21.333-46.933 46.933v938.667c0 25.6 21.333 46.933 46.933 46.933h465.067l285.867-328.533 4.267-8.533zM179.2 900.267v-887.467h665.6v597.333h-153.6c-25.6 0-51.2 4.267-68.267 21.333-12.8 17.067-21.333 42.667-21.333 68.267v200.533h-422.4zM644.267 853.333v-157.867c0-12.8 0-12.8 0-21.333 4.267-17.067 12.8-21.333 21.333-21.333h157.867l-179.2 200.533zM729.6 337.067c0-17.067-4.267-34.133-12.8-51.2l85.333-145.067c4.267-12.8 4.267-25.6-8.533-29.867-4.267-4.267-12.8-4.267-17.067-4.267l-68.267 17.067-17.067-68.267c-4.267-12.8-17.067-17.067-29.867-17.067-4.267 4.267-12.8 4.267-17.067 12.8l-55.467 89.6-55.467-93.867c-4.267-12.8-21.333-17.067-34.133-8.533-4.267 4.267-12.8 8.533-12.8 12.8l-17.067 64-68.267-17.067c-12.8-4.267-25.6 4.267-29.867 17.067 0 8.533 0 12.8 4.267 17.067l85.333 145.067c-8.533 17.067-12.8 34.133-12.8 51.2 0 38.4 17.067 68.267 38.4 93.867 25.6 25.6 59.733 34.133 93.867 38.4 42.667 4.267 76.8-12.8 98.133-34.133 34.133-25.6 51.2-55.467 51.2-89.6zM614.4 200.533l46.933-81.067 8.533 34.133c4.267 12.8 17.067 17.067 29.867 17.067l34.133-8.533-46.933 81.067c-17.067-21.333-42.667-29.867-72.533-42.667v0 0zM494.933 243.2l-46.933-76.8 34.133 8.533c12.8 4.267 25.6-4.267 29.867-17.067l12.8-34.133 46.933 81.067c-29.867 0-55.467 17.067-76.8 38.4zM657.067 396.8c-17.067 17.067-38.4 25.6-64 25.6s-46.933-8.533-64-25.6c-17.067-17.067-25.6-38.4-25.6-59.733 0-17.067 4.267-34.133 12.8-46.933v0c29.867-46.933 98.133-51.2 136.533-12.8v0c17.067 17.067 25.6 38.4 25.6 59.733 4.267 21.333-8.533 42.667-21.333 59.733zM533.333 669.867h-298.667c-21.333 25.6-8.533 51.2 8.533 51.2h298.667c25.6-21.333 12.8-51.2-8.533-51.2zM243.2 541.867h234.667c21.333-21.333 8.533-46.933-12.8-46.933h-221.867c-12.8 0-21.333 8.533-21.333 21.333s12.8 25.6 21.333 25.6zM243.2 358.4h123.733c21.333-21.333 8.533-46.933-12.8-46.933h-110.933c-12.8 0-21.333 8.533-21.333 21.333 0 21.333 12.8 25.6 21.333 25.6z" />
<glyph unicode="&#xe92f;" glyph-name="policy" d="M913.067 627.2v0-648.533c0-25.6-21.333-46.933-46.933-46.933h-708.267c-25.6 0-46.933 21.333-46.933 46.933v934.4c0 25.6 21.333 46.933 46.933 46.933h465.067l285.867-328.533 4.267-4.267zM179.2 896v-887.467h665.6v597.333h-153.6c-25.6 0-51.2 4.267-68.267 21.333-12.8 17.067-21.333 42.667-21.333 68.267v200.533h-422.4zM644.267 849.067v-157.867c0-12.8 0-12.8 0-21.333 4.267-17.067 12.8-21.333 21.333-21.333h157.867l-179.2 200.533zM729.6 332.8c0-17.067-4.267-34.133-12.8-51.2l85.333-145.067c4.267-12.8 4.267-25.6-8.533-29.867-4.267-4.267-12.8-4.267-17.067-4.267l-68.267 17.067-17.067-68.267c-4.267-12.8-17.067-17.067-29.867-17.067-4.267 4.267-12.8 4.267-17.067 12.8l-55.467 89.6-55.467-93.867c-4.267-12.8-21.333-17.067-34.133-8.533-4.267 4.267-12.8 8.533-12.8 12.8l-17.067 68.267-68.267-17.067c-12.8-4.267-25.6 4.267-29.867 17.067 0 8.533 0 12.8 4.267 17.067l85.333 145.067c-8.533 17.067-12.8 34.133-12.8 51.2 0 38.4 17.067 68.267 38.4 93.867 25.6 25.6 59.733 34.133 93.867 38.4 42.667 4.267 76.8-12.8 98.133-34.133 34.133-25.6 51.2-55.467 51.2-93.867zM614.4 200.533l46.933-81.067 8.533 34.133c4.267 12.8 17.067 17.067 29.867 17.067l34.133-8.533-46.933 81.067c-17.067-25.6-42.667-34.133-72.533-42.667v0 0zM494.933 238.933l-46.933-76.8 34.133 8.533c12.8 4.267 25.6-4.267 29.867-17.067l12.8-34.133 46.933 81.067c-29.867 4.267-55.467 17.067-76.8 38.4zM657.067 392.533c-17.067 17.067-38.4 25.6-64 25.6s-46.933-8.533-64-25.6c-17.067-17.067-25.6-38.4-25.6-59.733 0-17.067 4.267-34.133 12.8-46.933v0c29.867-46.933 98.133-51.2 136.533-12.8v0c17.067 17.067 25.6 38.4 25.6 59.733 4.267 21.333-8.533 46.933-21.333 59.733zM533.333 669.867h-298.667c-21.333 21.333-8.533 46.933 8.533 46.933h298.667c25.6-21.333 12.8-46.933-8.533-46.933zM243.2 537.6h234.667c21.333-21.333 8.533-46.933-12.8-46.933h-221.867c-12.8 0-21.333 8.533-21.333 21.333 0 17.067 12.8 25.6 21.333 25.6zM243.2 358.4h123.733c21.333-21.333 8.533-46.933-12.8-46.933h-110.933c-12.8 0-21.333 8.533-21.333 21.333 0 17.067 12.8 25.6 21.333 25.6z" />
<glyph unicode="&#xe930;" glyph-name="supplier-collection" d="M251.733 695.467h256v-34.133h-256v34.133zM251.733 243.2h149.333v-34.133h-149.333v34.133zM251.733 810.667h256v-34.133h-256v34.133zM251.733 469.333h507.733v-34.133h-507.733v34.133zM631.467 960h-512v-1024h785.067v759.467l-273.067 264.533zM802.133 725.333h-145.067v140.8l145.067-140.8zM853.333-17.067h-682.667v925.867h435.2v-234.667h247.467v-691.2zM251.733 132.267h337.067v-34.133h-337.067v34.133zM251.733 580.267h507.733v-34.133h-507.733v34.133zM251.733 354.133h507.733v-34.133h-507.733v34.133z" />
<glyph unicode="&#xe931;" glyph-name="latest-policy" d="M913.067 627.2v0-648.533c0-25.6-21.333-46.933-46.933-46.933h-708.267c-25.6 0-46.933 21.333-46.933 46.933v934.4c0 25.6 21.333 46.933 46.933 46.933h465.067c0 0 0 0 0 0v0l285.867-328.533 4.267-4.267zM179.2 896v-887.467h665.6v597.333h-153.6c-25.6 0-51.2 4.267-68.267 21.333-12.8 17.067-21.333 42.667-21.333 68.267v200.533h-422.4zM644.267 849.067v-157.867c0-12.8 0-12.8 0-21.333 4.267-17.067 12.8-21.333 21.333-21.333h157.867l-179.2 200.533zM729.6 332.8c0-17.067-4.267-34.133-12.8-51.2l85.333-145.067c4.267-12.8 4.267-25.6-8.533-29.867-4.267-4.267-12.8-4.267-17.067-4.267l-68.267 17.067-17.067-68.267c-4.267-12.8-17.067-17.067-29.867-17.067-4.267 4.267-12.8 4.267-17.067 12.8l-55.467 89.6-55.467-93.867c-4.267-12.8-21.333-17.067-34.133-8.533-4.267 4.267-12.8 8.533-12.8 12.8l-17.067 68.267-68.267-17.067c-12.8-4.267-25.6 4.267-29.867 17.067 0 8.533 0 12.8 4.267 17.067l85.333 145.067c-8.533 17.067-12.8 34.133-12.8 51.2 0 38.4 17.067 68.267 38.4 93.867 25.6 25.6 59.733 38.4 93.867 38.4s72.533-17.067 93.867-38.4c38.4-21.333 55.467-51.2 55.467-89.6zM614.4 200.533l46.933-81.067 8.533 34.133c4.267 12.8 17.067 17.067 29.867 17.067l34.133-8.533-46.933 81.067c-17.067-25.6-42.667-34.133-72.533-42.667v0 0zM494.933 238.933l-46.933-76.8 34.133 8.533c12.8 4.267 25.6-4.267 29.867-17.067l12.8-34.133 46.933 81.067c-29.867 4.267-55.467 17.067-76.8 38.4zM657.067 392.533c-17.067 17.067-38.4 25.6-64 25.6s-46.933-8.533-64-25.6c-17.067-17.067-25.6-38.4-25.6-59.733 0-17.067 4.267-34.133 12.8-46.933v0c29.867-46.933 98.133-51.2 136.533-12.8v0c17.067 17.067 25.6 38.4 25.6 59.733 4.267 21.333-8.533 46.933-21.333 59.733zM533.333 669.867h-298.667c-21.333 21.333-8.533 46.933 8.533 46.933h298.667c25.6-21.333 12.8-46.933-8.533-46.933zM243.2 537.6h234.667c21.333-21.333 8.533-46.933-12.8-46.933h-221.867c-12.8 0-21.333 8.533-21.333 21.333 0 17.067 12.8 25.6 21.333 25.6zM243.2 358.4h123.733c21.333-21.333 8.533-46.933-12.8-46.933h-110.933c-12.8 0-21.333 8.533-21.333 21.333 0 17.067 12.8 25.6 21.333 25.6z" />
<glyph unicode="&#xe932;" glyph-name="latest-program" d="M955.733-51.2h-887.467c-38.4 0-68.267 29.867-68.267 68.267v861.867c0 38.4 29.867 68.267 68.267 68.267h891.733c34.133 0 64-29.867 64-68.267v-866.133c0-34.133-29.867-64-68.267-64zM955.733 870.4h-887.467v-857.6h891.733l-4.267 857.6zM891.733 345.6h-759.467v460.8h759.467v-460.8zM533.333 533.333l-128 128c0 0 0 4.267 0 4.267-8.533 8.533-17.067 8.533-25.6 8.533s-17.067-4.267-25.6-8.533c0 0 0-4.267 0-4.267l-128-128c-12.8-12.8-12.8-34.133 0-46.933v0c12.8-12.8 34.133-12.8 46.933 0l110.933 110.933 110.933-110.933c12.8-12.8 34.133-12.8 46.933 0 4.267 12.8 4.267 34.133-8.533 46.933 0 0 0 0 0 0zM802.133 729.6c-4.267 0 0 0 0 0-4.267 4.267-4.267 4.267-8.533 4.267v0c-4.267 0-4.267 4.267-8.533 4.267v0c-4.267 0-4.267 0-8.533 0 0 0 0 0 0 0s0 0-4.267 0h-128c-17.067 0-34.133-17.067-34.133-34.133s17.067-29.867 68.267-34.133h17.067l-140.8-136.533c-12.8-12.8-12.8-34.133 0-46.933v0c12.8-12.8 34.133-12.8 46.933 0l145.067 145.067v-55.467c0-17.067 17.067-34.133 34.133-34.133v0c12.8 0 29.867 17.067 29.867 34.133v0 128c0 4.267 0 8.533-4.267 12.8 0 4.267 0 8.533-4.267 12.8 0 0 0 0 0 0v0zM610.133 213.333h-477.867v64h477.867v-64zM810.667 81.067h-678.4v64h678.4v-64z" />
<glyph unicode="&#xe933;" glyph-name="program-collection" d="M955.733-51.2h-887.467c-38.4 0-68.267 29.867-68.267 68.267v861.867c0 38.4 29.867 68.267 68.267 68.267h891.733c34.133 0 64-29.867 64-68.267v-866.133c0-34.133-29.867-64-68.267-64zM955.733 870.4h-887.467v-857.6h891.733l-4.267 857.6zM891.733 345.6h-759.467v460.8h759.467v-460.8zM533.333 533.333l-128 128c0 0 0 4.267 0 4.267-8.533 8.533-17.067 8.533-25.6 8.533s-17.067-4.267-25.6-8.533c0 0 0-4.267 0-4.267l-128-128c-12.8-12.8-12.8-34.133 0-46.933v0c12.8-12.8 34.133-12.8 46.933 0l110.933 110.933 110.933-110.933c12.8-12.8 34.133-12.8 46.933 0 4.267 12.8 4.267 34.133-8.533 46.933 0 0 0 0 0 0zM802.133 729.6c-4.267 0 0 0 0 0-4.267 4.267-4.267 4.267-8.533 4.267v0c-4.267 0-4.267 4.267-8.533 4.267v0c-4.267 0-4.267 0-8.533 0 0 0 0 0 0 0s0 0-4.267 0h-128c-17.067 0-34.133-17.067-34.133-34.133s17.067-29.867 68.267-34.133h17.067l-140.8-136.533c-12.8-12.8-12.8-34.133 0-46.933v0c12.8-12.8 34.133-12.8 46.933 0l145.067 145.067v-55.467c0-17.067 17.067-34.133 34.133-34.133v0c12.8 0 29.867 17.067 29.867 34.133v0 128c0 4.267 0 8.533-4.267 12.8 0 4.267 0 8.533-4.267 12.8 0 0 0 0 0 0v0zM610.133 213.333h-477.867v64h477.867v-64zM810.667 81.067h-678.4v64h678.4v-64z" />
<glyph unicode="&#xe934;" glyph-name="park-enterprise-analysis" d="M396.8 695.467l145.067-119.467 247.467 256v-55.467c0-17.067 12.8-25.6 25.6-25.6h8.533c17.067 0 25.6 12.8 25.6 25.6v157.867c0 17.067-12.8 25.6-25.6 25.6h-157.867c-17.067 0-25.6-12.8-25.6-25.6v-8.533c0-17.067 12.8-25.6 25.6-25.6h102.4l-234.667-234.667-132.267 119.467-328.533-328.533 42.667-42.667 281.6 281.6zM998.4-4.267h-72.533v610.133c0 25.6-21.333 51.2-51.2 51.2h-115.2c-25.6 0-51.2-21.333-51.2-51.2v-610.133h-89.6v409.6c0 25.6-21.333 51.2-51.2 51.2h-115.2c-25.6 0-51.2-21.333-51.2-51.2v-405.333h-85.333v204.8c0 25.6-21.333 51.2-51.2 51.2h-115.2c-25.6 0-51.2-21.333-51.2-51.2v-204.8h-72.533c-17.067 0-25.6-12.8-25.6-25.6v-8.533c0-17.067 12.8-29.867 25.6-29.867h968.533c17.067 0 25.6 12.8 25.6 25.6v8.533c4.267 12.8-8.533 25.6-21.333 25.6zM861.867 567.467v-571.733h-89.6v571.733c0 8.533 8.533 17.067 17.067 17.067h55.467c8.533 0 17.067-4.267 17.067-17.067zM558.933 366.933v-371.2h-89.6v371.2c0 8.533 8.533 17.067 17.067 17.067h55.467c8.533 0 17.067-8.533 17.067-17.067zM251.733 170.667v-174.933h-89.6v174.933c0 8.533 8.533 17.067 17.067 17.067h55.467c12.8 0 17.067-4.267 17.067-17.067z" />
<glyph unicode="&#xe935;" glyph-name="park-advantage" d="M874.667 123.733h-733.867l-72.533 422.4c0 0 0 0 0 0-38.4 8.533-68.267 42.667-68.267 81.067 0 46.933 38.4 81.067 81.067 81.067s81.067-38.4 81.067-85.333c0-21.333-8.533-42.667-21.333-55.467 42.667-38.4 85.333-55.467 123.733-55.467 8.533 0 17.067 0 29.867 4.267 93.867 21.333 136.533 102.4 166.4 174.933-17.067 17.067-29.867 38.4-29.867 64 0 46.933 38.4 85.333 81.067 85.333s81.067-38.4 81.067-85.333c0-29.867-12.8-55.467-38.4-68.267 29.867-68.267 72.533-145.067 166.4-170.667 8.533-4.267 17.067-4.267 29.867-4.267 42.667 0 85.333 21.333 128 64-12.8 12.8-17.067 34.133-17.067 51.2 0 46.933 38.4 85.333 81.067 85.333s81.067-34.133 81.067-81.067c0-46.933-38.4-81.067-81.067-81.067v0l-68.267-426.667zM179.2 170.667h652.8l59.733 354.133c-46.933-38.4-98.133-59.733-145.067-59.733-12.8 0-25.6 0-38.4 4.267-119.467 29.867-170.667 136.533-200.533 209.067-34.133-81.067-81.067-179.2-200.533-209.067-12.8-4.267-25.6-4.267-38.4-4.267-46.933 0-98.133 21.333-145.067 64-4.267-4.267 55.467-358.4 55.467-358.4zM503.467 102.4h-358.4l8.533-42.667h708.267l8.533 42.667h-366.933z" />
<glyph unicode="&#xe936;" glyph-name="settled-enterprise1" d="M1015.467-64h-1006.933c-12.8 0-25.6 12.8-25.6 25.6s12.8 25.6 25.6 25.6h34.133v891.733c0 46.933 38.4 81.067 81.067 81.067h460.8c42.667 0 81.067-34.133 81.067-81.067v-170.667h226.133c42.667 0 81.067-34.133 81.067-81.067v-640h46.933c12.8 0 25.6-12.8 29.867-25.6-4.267-12.8-17.067-25.6-34.133-25.6 4.267 0 0 0 0 0zM610.133 878.933c0 12.8-12.8 25.6-25.6 25.6h-460.8c-12.8 0-25.6-12.8-25.6-25.6v-887.467h512v887.467zM917.333 627.2c0 12.8-12.8 25.6-25.6 25.6h-226.133v-665.6h251.733v640zM776.533 550.4c12.8 0 25.6-12.8 25.6-25.6 0 0 0 0 0 0v-98.133c0-12.8-12.8-25.6-25.6-25.6s-25.6 12.8-25.6 25.6v98.133c0 17.067 12.8 25.6 25.6 25.6v0zM776.533 281.6c12.8 0 25.6-12.8 25.6-25.6 0 0 0 0 0 0v-98.133c0-12.8-12.8-25.6-25.6-25.6s-25.6 12.8-25.6 25.6v98.133c0 12.8 12.8 25.6 25.6 25.6v0zM196.267 763.733h98.133c12.8 0 25.6-12.8 25.6-25.6s-12.8-25.6-25.6-25.6h-98.133c-17.067-4.267-25.6 8.533-25.6 25.6 0 12.8 12.8 21.333 25.6 25.6v0zM196.267 520.533h98.133c12.8 0 25.6-12.8 25.6-25.6s-12.8-25.6-25.6-25.6h-98.133c-12.8 0-25.6 12.8-25.6 29.867 0 12.8 12.8 21.333 25.6 21.333v0zM196.267 281.6h98.133c12.8 0 25.6-12.8 25.6-25.6s-12.8-25.6-25.6-25.6h-98.133c-12.8 0-25.6 12.8-25.6 29.867 0 8.533 12.8 21.333 25.6 21.333v0zM413.867 763.733h98.133c12.8 0 25.6-12.8 25.6-25.6s-12.8-25.6-25.6-25.6c0 0 0 0 0 0h-98.133c-12.8 0-25.6 12.8-25.6 29.867 0 8.533 12.8 17.067 25.6 21.333v0zM413.867 520.533h98.133c12.8 0 25.6-12.8 25.6-25.6s-12.8-25.6-25.6-25.6c0 0 0 0 0 0h-98.133c-12.8 0-25.6 12.8-25.6 29.867 0 12.8 12.8 21.333 25.6 21.333v0zM413.867 281.6h98.133c12.8 0 25.6-12.8 25.6-25.6s-12.8-25.6-25.6-25.6v0h-98.133c-12.8 0-25.6 12.8-25.6 29.867 0 8.533 8.533 21.333 25.6 21.333v0z" />
<glyph unicode="&#xe937;" glyph-name="park-introduction-policy" d="M661.333 379.733h-409.6c-8.533 0-12.8-8.533-12.8-21.333s4.267-21.333 12.8-21.333h413.867c8.533 0 12.8 8.533 12.8 21.333 0 8.533-8.533 21.333-17.067 21.333v0zM661.333 482.133h-409.6c-8.533 0-12.8-8.533-12.8-21.333s4.267-21.333 12.8-21.333h413.867c8.533 0 12.8 8.533 12.8 21.333s-8.533 21.333-17.067 21.333zM661.333 588.8h-409.6c-8.533 0-12.8-12.8-12.8-25.6s4.267-21.333 12.8-21.333h413.867c8.533 0 12.8 8.533 12.8 21.333s-8.533 25.6-17.067 25.6zM955.733 832c0 72.533-59.733 128-128 128h-635.733c-68.267 0-128-59.733-128-128v-755.2c0-8.533 4.267-17.067 8.533-25.6l102.4-102.4c21.333-12.8 38.4-12.8 55.467 0l102.4 106.667 106.667-106.667c12.8-12.8 34.133-12.8 46.933 0l106.667 106.667 106.667-106.667c8.533-8.533 17.067-8.533 21.333-8.533 8.533 0 17.067 4.267 21.333 8.533l98.133 98.133c8.533 8.533 12.8 17.067 12.8 25.6v640c64 8.533 102.4 59.733 102.4 119.467v0zM733.867 8.533l-110.933 110.933c-12.8 12.8-34.133 12.8-46.933 0l-110.933-110.933-110.933 110.933c-12.8 12.8-34.133 12.8-46.933 0l-106.667-106.667-72.533 68.267v759.467c0 34.133 25.6 59.733 59.733 59.733v0c34.133 0 64-25.6 64-59.733s-29.867-59.733-64-59.733c-17.067 0-34.133-17.067-34.133-38.4s17.067-34.133 34.133-34.133h610.133v-631.467l-64-68.267zM810.667 763.733l-537.6 4.267c34.133 17.067 34.133 46.933 34.133 59.733 0 38.4-4.267 51.2-12.8 72.533h541.867c34.133 0 68.267-34.133 68.267-68.267s-34.133-64-68.267-64l-25.6-4.267z" />
<glyph unicode="&#xe938;" glyph-name="park-essential-information" d="M635.733 861.867c0-21.333-17.067-42.667-42.667-42.667v0h-196.267c-21.333 0-42.667 17.067-42.667 42.667 0 0 0 0 0 0v55.467c0 21.333 17.067 42.667 42.667 42.667h196.267c21.333 0 42.667-17.067 42.667-42.667 0 0 0 0 0 0s0-55.467 0-55.467zM93.867 46.933v763.733c0 21.333 17.067 42.667 42.667 42.667h72.533v72.533h-81.067c-59.733 0-106.667-46.933-106.667-106.667v0-776.533c4.267-59.733 51.2-106.667 106.667-106.667h281.6v72.533h-273.067c-21.333 0-42.667 17.067-42.667 38.4v0zM913.067 810.667v-260.267h72.533v268.8c0 59.733-46.933 106.667-106.667 106.667 0 0 0 0 0 0h-76.8v-72.533h72.533c21.333 0 38.4-17.067 38.4-42.667zM196.267 614.4h610.133v68.267h-610.133v-68.267zM755.2 507.733c-76.8 0-140.8-64-140.8-140.8s64-140.8 140.8-140.8c76.8 0 140.8 64 140.8 140.8s-64 140.8-140.8 140.8zM989.867-64c4.267 21.333 8.533 38.4 8.533 59.733 0 132.267-110.933 243.2-243.2 243.2s-243.2-106.667-243.2-243.2c0-21.333 4.267-42.667 8.533-59.733h469.333zM507.733 260.267h-311.467v-68.267h243.2c17.067 25.6 38.4 51.2 68.267 68.267zM507.733 430.933c0 12.8 4.267 29.867 4.267 42.667h-315.733v-72.533h311.467c0 8.533 0 21.333 0 29.867z" />
<glyph unicode="&#xe939;" glyph-name="park-data" d="M712.533 55.467h-537.6c-55.467 0-102.4 46.933-102.4 102.4v699.733c0 55.467 46.933 102.4 102.4 102.4h537.6c55.467 0 98.133-46.933 98.133-102.4v-704c0-55.467-42.667-98.133-98.133-98.133zM174.933 891.733c-17.067 0-34.133-17.067-34.133-34.133v-704c0-17.067 17.067-34.133 34.133-34.133h537.6c17.067 0 34.133 17.067 34.133 34.133v704c0 17.067-17.067 34.133-34.133 34.133h-537.6zM849.067-64h-533.333c-17.067 0-34.133 17.067-34.133 34.133s17.067 34.133 34.133 34.133h533.333c21.333 0 34.133 17.067 34.133 34.133v699.733c0 17.067 17.067 34.133 34.133 34.133s34.133-17.067 34.133-34.133v-699.733c0-55.467-46.933-102.4-102.4-102.4zM554.667 648.533h-268.8c-17.067 0-34.133 12.8-34.133 34.133 0 17.067 17.067 34.133 34.133 34.133h268.8c17.067 0 34.133-17.067 34.133-34.133 0-21.333-12.8-34.133-34.133-34.133zM622.933 443.733h-337.067c-17.067 0-34.133 17.067-34.133 34.133s17.067 34.133 34.133 34.133h337.067c17.067 0 34.133-17.067 34.133-34.133s-17.067-34.133-34.133-34.133zM622.933 243.2h-337.067c-17.067 0-34.133 17.067-34.133 34.133s17.067 34.133 34.133 34.133h337.067c17.067 0 34.133-17.067 34.133-34.133s-17.067-34.133-34.133-34.133z" />
<glyph unicode="&#xe93a;" glyph-name="park-collection" d="M938.667 580.267l-273.067 68.267c-8.533 0-12.8 0-21.333 0v217.6c12.8 12.8 21.333 29.867 21.333 51.2-4.267 29.867-34.133 51.2-64 46.933l-512-85.333c-29.867-4.267-51.2-34.133-46.933-64 4.267-12.8 8.533-25.6 21.333-34.133v-810.667c0-17.067 17.067-34.133 34.133-34.133h823.467c17.067 0 34.133 17.067 34.133 34.133v507.733c12.8 8.533 21.333 17.067 25.6 34.133 4.267 29.867-12.8 59.733-42.667 68.267v0zM132.267 776.533l448 68.267v-840.533h-170.667v170.667h-106.667v-170.667h-170.667v772.267zM887.467 4.267h-89.6v85.333h-64v-85.333h-89.6v524.8l238.933-55.467 4.267-469.333zM302.933 746.667h106.667v-102.4h-106.667v102.4zM302.933 563.2h106.667v-102.4h-106.667v102.4zM302.933 375.467h106.667v-102.4h-106.667v102.4zM738.133 439.467h64v-59.733h-64v59.733zM738.133 328.533h64v-59.733h-64v59.733zM738.133 217.6h64v-59.733h-64v59.733z" />
<glyph unicode="&#xe93b;" glyph-name="patent-collection" d="M490.667 934.4c-4.267 4.267-8.533 0-8.533 0l-119.467-994.133 132.267-4.267-4.267 998.4zM273.067 145.067l-8.533 59.733-34.133-51.2h-64l42.667-42.667-25.6-55.467 59.733 29.867 42.667-42.667-4.267 64 55.467 25.6-64 12.8zM388.267 516.267l-64-21.333-34.133 55.467-21.333-81.067-68.267-38.4 55.467-12.8-12.8-85.333 55.467 72.533 64-21.333-21.333 64 46.933 68.267zM85.333 375.467l-38.4-51.2-46.933-4.267 29.867-29.867-25.6-55.467 46.933 38.4 34.133-34.133v51.2l42.667 34.133h-42.667v51.2zM170.667 546.133l21.333 25.6-25.6-4.267-17.067 25.6-12.8-42.667-34.133-17.067 25.6-4.267-4.267-34.133 29.867 34.133 29.867-12.8-12.8 29.867zM298.667 686.933l12.8-8.533 4.267 21.333 21.333 17.067h-17.067v17.067l-17.067-21.333-21.333-4.267 8.533-17.067-17.067-17.067c0 0 25.6 12.8 25.6 12.8zM891.733 832c0 0-102.4 64-294.4 21.333 0 0 247.467 25.6 307.2-166.4 0 0 42.667-192-102.4-337.067 0 0-106.667-119.467-179.2-145.067l-93.867 750.933c0 0-8.533 12.8-8.533-8.533v-1002.667c0 0 115.2 38.4 123.733 59.733l-17.067 123.733c0 0 315.733 157.867 379.733 422.4 8.533 0 68.267 196.267-115.2 281.6v0z" />
<glyph unicode="&#xe93c;" glyph-name="product-collection" d="M64-64c-34.133 0-64 29.867-64 64v328.533c0 34.133 29.867 64 64 64h328.533c0 0 0 0 0 0 34.133 0 64-29.867 64-64v-328.533c0-38.4-29.867-64-64-64h-328.533c0 0 0 0 0 0zM392.533 345.6c0 0 0 0 0 0h-328.533c-8.533 0-17.067-8.533-17.067-17.067v-328.533c0-8.533 8.533-17.067 17.067-17.067 0 0 0 0 0 0h328.533c8.533 0 17.067 8.533 17.067 17.067v324.267c0 12.8-8.533 21.333-17.067 21.333zM554.667-64c-34.133 0-64 29.867-64 64v328.533c0 34.133 29.867 64 64 64h115.2l-213.333 213.333v-115.2c0-38.4-29.867-64-64-64h-328.533c-34.133 0-64 29.867-64 64v328.533c0 17.067 8.533 34.133 17.067 46.933s29.867 21.333 46.933 21.333h328.533c0 0 0 0 0 0 34.133 0 64-29.867 64-64v-98.133l226.133 213.333c8.533 12.8 25.6 21.333 42.667 21.333s34.133-4.267 46.933-17.067l230.4-230.4c12.8-12.8 21.333-29.867 21.333-46.933s-4.267-34.133-17.067-46.933v0l-221.867-221.867h98.133c0 0 0 0 0 0 34.133 0 64-29.867 64-64v-328.533c0-17.067-8.533-34.133-17.067-46.933-12.8-12.8-29.867-21.333-46.933-21.333h-328.533c0 0 0 0 0 0zM554.667 345.6c-8.533 0-12.8-8.533-12.8-17.067v-328.533c0-8.533 8.533-17.067 17.067-17.067 0 0 0 0 0 0h328.533c4.267 0 8.533 0 12.8 4.267s4.267 8.533 4.267 12.8v328.533c0 8.533-8.533 17.067-17.067 17.067 0 0 0 0 0 0h-332.8zM725.333 908.8c0 0 0 0 0 0-4.267 0-8.533 0-12.8-4.267l-230.4-230.4c-4.267-8.533-4.267-17.067 0-21.333l230.4-230.4c4.267-4.267 8.533-4.267 12.8-4.267s8.533 0 8.533 4.267l230.4 230.4c8.533 4.267 8.533 8.533 8.533 8.533 0 4.267 0 8.533-4.267 8.533l-230.4 230.4c-4.267 8.533-8.533 8.533-12.8 8.533zM392.533 832c0 0 0 0 0 0h-328.533c-4.267 0-4.267 0-8.533-4.267-4.267 0-4.267-4.267-4.267-8.533v-328.533c0-8.533 8.533-17.067 17.067-17.067 0 0 0 0 0 0h328.533c8.533 0 17.067 8.533 17.067 17.067v328.533c-4.267 8.533-12.8 12.8-21.333 12.8z" />
<glyph unicode="&#xe93d;" glyph-name="enterprise-subscription" d="M810.667 290.133v-200.533c0-12.8-12.8-21.333-25.6-17.067l-217.6 128c-17.067 8.533-34.133 12.8-55.467 12.8-17.067 0-38.4-4.267-55.467-12.8l-217.6-128c-12.8-8.533-25.6 0-25.6 17.067v755.2c0 8.533 4.267 17.067 8.533 21.333 8.533 4.267 17.067 8.533 29.867 8.533h524.8c8.533 0 21.333-4.267 25.6-8.533s8.533-12.8 8.533-21.333v-72.533c0-8.533 8.533-17.067 17.067-17.067h51.2c8.533 0 17.067 8.533 17.067 17.067v85.333c0 29.867-12.8 55.467-34.133 72.533-17.067 17.067-42.667 29.867-72.533 29.867h-554.667c-29.867 0-55.467-12.8-72.533-29.867-21.333-17.067-34.133-42.667-34.133-72.533v-887.467c0-4.267 0-12.8 4.267-17.067 8.533-17.067 29.867-21.333 46.933-12.8l311.467 183.467c4.267 4.267 12.8 4.267 21.333 4.267s12.8 0 21.333-4.267l307.2-179.2c0 0 0 0 0 0 4.267-4.267 12.8-4.267 21.333-4.267 21.333 0 34.133 17.067 34.133 34.133v320c0 8.533-8.533 17.067-17.067 17.067h-51.2c-8.533-4.267-17.067-12.8-17.067-21.333zM733.867 341.333h-51.2c-8.533 0-17.067 8.533-17.067 17.067v341.333c0 8.533 8.533 17.067 17.067 17.067h51.2c8.533 0 17.067-8.533 17.067-17.067v-337.067c0-12.8-8.533-21.333-17.067-21.333zM520.533 503.467v51.2c0 8.533 8.533 17.067 17.067 17.067h337.067c8.533 0 17.067-8.533 17.067-17.067v-51.2c0-8.533-8.533-17.067-17.067-17.067h-337.067c-8.533 0-17.067 8.533-17.067 17.067z" />
<glyph unicode="&#xe93e;" glyph-name="programme" d="M955.733-51.2h-887.467c-38.4 0-68.267 29.867-68.267 68.267v861.867c0 38.4 29.867 68.267 68.267 68.267h891.733c34.133 0 64-29.867 64-68.267v-866.133c0-34.133-29.867-64-68.267-64zM955.733 870.4h-887.467v-857.6h891.733l-4.267 857.6zM891.733 345.6h-759.467v460.8h759.467v-460.8zM533.333 533.333l-128 128c0 0 0 4.267 0 4.267-8.533 8.533-17.067 8.533-25.6 8.533s-17.067-4.267-25.6-8.533c0 0 0-4.267 0-4.267l-128-128c-12.8-12.8-12.8-34.133 0-46.933v0c12.8-12.8 34.133-12.8 46.933 0l110.933 110.933 110.933-110.933c12.8-12.8 34.133-12.8 46.933 0 4.267 12.8 4.267 34.133-8.533 46.933 0 0 0 0 0 0zM802.133 729.6c-4.267 0 0 0 0 0-4.267 4.267-4.267 4.267-8.533 4.267v0c-4.267 0-4.267 4.267-8.533 4.267v0c-4.267 0-4.267 0-8.533 0 0 0 0 0 0 0s0 0-4.267 0h-128c-17.067 0-34.133-17.067-34.133-34.133s17.067-29.867 68.267-34.133h17.067l-140.8-136.533c-12.8-12.8-12.8-34.133 0-46.933v0c12.8-12.8 34.133-12.8 46.933 0l145.067 145.067v-55.467c0-17.067 17.067-34.133 34.133-34.133v0c12.8 0 29.867 17.067 29.867 34.133v0 128c0 4.267 0 8.533-4.267 12.8 0 4.267 0 8.533-4.267 12.8 0 0 0 0 0 0v0zM610.133 213.333h-477.867v64h477.867v-64zM810.667 81.067h-678.4v64h678.4v-64z" />
<glyph unicode="&#xe93f;" glyph-name="weibo" d="M758.333 456.667c-11.667 2.5-19.167 5.833-22.5 10.833s-4.167 9.167-1.667 12.5l3.333 5.833c0.833 0.833 1.667 1.667 2.5 3.333s2.5 5 5 10 4.167 10 5 15c0.833 5 2.5 11.667 3.333 18.333 0.833 7.5 0.833 14.167-0.833 20.833-0.833 6.667-3.333 14.167-6.667 21.667s-8.333 15-15 20.833c-10.833 10.833-25 18.333-42.5 20.833-17.5 3.333-35 3.333-52.5 0.833s-34.167-5.833-50-10.833-28.333-8.333-38.333-12.5l-15-6.667c-7.5-2.5-14.167-4.167-19.167-5s-9.167-0.833-11.667 0.833c-2.5 0.833-5 2.5-6.667 3.333s-2.5 4.167-1.667 8.333c0 4.167 0.833 8.333 0.833 10.833 0 3.333 1.667 8.333 3.333 15s2.5 11.667 3.333 15.833c0 9.167-0.833 18.333-1.667 26.667s-3.333 17.5-7.5 27.5c-4.167 10-9.167 18.333-16.667 24.167s-16.667 11.667-28.333 15c-11.667 4.167-25.833 5-44.167 3.333s-38.333-5.833-60.833-14.167c-27.5-9.167-55-23.333-83.333-41.667s-52.5-37.5-73.333-57.5c-20.833-20-40-39.167-56.667-58.333s-30.833-34.167-40-45.833l-13.333-15.833c-25.833-33.333-45-67.5-57.5-100.833s-18.333-59.167-17.5-75.833v-24.167c5-37.5 15.833-70.833 34.167-100.833 19.167-30 40.833-54.167 65.833-72.5s55-34.167 89.167-46.667c34.167-12.5 67.5-22.5 99.167-28.333s65-10 100-12.5c57.5-5 117.5 0 180 13.333 61.667 13.333 120 37.5 173.333 70.833s90.833 73.333 113.333 120.833c13.333 27.5 20 53.333 20.833 77.5 0 24.167-3.333 44.167-12.5 59.167-8.333 15-20 28.333-33.333 40s-26.667 20-38.333 25.833c-13.333 5.833-24.167 9.167-33.333 10.833v0zM401.667 92.5c-84.167-4.167-155.833 12.5-215 49.167s-88.333 83.333-88.333 139.167c0 55 29.167 103.333 87.5 143.333s130 62.5 215 65.833 157.5-10 215.833-41.667 87.5-75.833 87.5-130.833c0-55.833-30-106.667-89.167-151.667s-130.833-69.167-213.333-73.333v0zM367.5 416.667c-22.5-2.5-42.5-7.5-60.833-15.833s-31.667-17.5-42.5-28.333c-10-10.833-18.333-21.667-25.833-34.167-6.667-12.5-11.667-24.167-15-35.833-2.5-11.667-4.167-22.5-5-32.5s-0.833-17.5-0.833-22.5l0.833-9.167v-5c0-2.5 0.833-6.667 2.5-14.167s3.333-13.333 6.667-19.167c2.5-5.833 7.5-12.5 13.333-19.167s13.333-12.5 22.5-17.5c51.667-25 99.167-32.5 144.167-22.5 44.167 10 80 32.5 107.5 67.5 10.833 13.333 18.333 30 21.667 49.167s2.5 39.167-2.5 59.167c-5 20-14.167 38.333-26.667 54.167-12.5 16.667-30.833 29.167-55.833 38.333s-51.667 11.667-84.167 7.5v0zM325.833 195c-5-0.833-9.167-0.833-13.333-0.833s-8.333 0.833-11.667 2.5-6.667 2.5-10.833 4.167-6.667 3.333-9.167 6.667c-2.5 2.5-4.167 5.833-6.667 8.333-1.667 2.5-3.333 5.833-5 9.167-0.833 3.333-1.667 7.5-1.667 10.833 0 8.333 2.5 16.667 6.667 25 5 8.333 10.833 15 19.167 20.833s17.5 9.167 27.5 10c6.667 0.833 14.167 0.833 20.833-0.833 6.667-0.833 12.5-3.333 16.667-5.833 5-2.5 9.167-5.833 12.5-9.167s5.833-7.5 7.5-12.5c1.667-5 2.5-10 2.5-15 0-8.333-2.5-16.667-7.5-24.167s-11.667-14.167-20.833-20c-7.5-5-16.667-8.333-26.667-9.167v0zM425 280c-5.833-4.167-10.833-5.833-16.667-5-5.833 0-10 2.5-12.5 7.5l-2.5 5c-0.833 1.667-0.833 3.333-0.833 5v5c0 2.5 0 4.167 0.833 5.833l2.5 5c0.833 1.667 1.667 2.5 3.333 3.333l3.333 5c5.833 5 12.5 6.667 18.333 5.833s10-4.167 12.5-9.167c2.5-3.333 3.333-6.667 3.333-10.833s-1.667-7.5-3.333-10.833c-2.5-5.833-5-9.167-8.333-11.667v0zM840.833 524.167c5 0 9.167 0.833 12.5 3.333 4.167 2.5 6.667 5 9.167 9.167 2.5 3.333 4.167 7.5 5 10.833 0.833 0.833 0.833 1.667 0.833 3.333 9.167 89.167-21.667 140-93.333 152.5-20.833 4.167-40.833 4.167-58.333 0.833-5.833 0-10-1.667-14.167-4.167s-7.5-5.833-10-10.833c-2.5-4.167-4.167-9.167-4.167-13.333 0-7.5 2.5-14.167 8.333-20s12.5-8.333 20-8.333c60.833 14.167 93.333-5.833 98.333-58.333 1.667-13.333 0.833-25.833-2.5-37.5 0-7.5 2.5-14.167 8.333-20 5-5 11.667-7.5 20-7.5v0zM820.833 854.167c-34.167 7.5-80 6.667-138.333-5 0 0-1.667 0-2.5-0.833l-1.667-0.833-2.5-1.667c-8.333-3.333-13.333-9.167-19.167-16.667s-8.333-15.833-8.333-24.167c0-11.667 4.167-21.667 11.667-29.167s17.5-11.667 28.333-11.667h3.333c0.833 0 2.5 0 5 0.833s5.833 1.667 9.167 1.667c3.333 0 6.667 0.833 10 2.5 3.333 0.833 6.667 2.5 9.167 3.333s8.333 1.667 15.833 1.667c7.5 0 17.5-0.833 28.333-1.667 11.667-0.833 24.167-4.167 37.5-9.167s27.5-10.833 40.833-17.5 27.5-16.667 40.833-29.167c13.333-12.5 25.833-26.667 35.833-43.333 20-45.833 24.167-90.833 11.667-133.333 0-0.833 0-1.667-0.833-2.5 0-0.833-0.833-2.5-1.667-5.833s-1.667-5.833-2.5-9.167c-0.833-2.5-1.667-6.667-2.5-10.833s-0.833-8.333-0.833-10.833 1.667-12.5 5.833-17.5c4.167-5 9.167-8.333 15-10s12.5-3.333 20.833-3.333c21.667 0 35 13.333 38.333 40 9.167 30.833 15 59.167 15.833 87.5 0.833 27.5-0.833 51.667-5.833 73.333-5 20.833-12.5 40.833-22.5 59.167s-21.667 34.167-35 46.667c-13.333 12.5-28.333 25-44.167 35-16.667 10.833-32.5 19.167-47.5 25-15.833 8.333-31.667 13.333-47.5 17.5v0z" />
<glyph unicode="&#xe940;" glyph-name="wechat" d="M692.907 612.693c11.947 0 23.040-0.853 34.987-2.56-31.573 145.92-187.733 254.293-366.080 254.293-198.827 0.853-361.813-134.827-361.813-307.2 0-99.84 54.613-180.907 145.067-244.907l-35.84-109.227 126.293 63.147c45.227-9.387 81.92-17.92 127.147-17.92 11.093 0 23.040 0.853 34.133 1.707-6.827 23.893-11.093 49.493-11.093 75.947-0.853 157.867 135.68 286.72 307.2 286.72zM498.347 710.827c27.307 0 45.227-17.92 45.227-45.227s-17.92-45.227-45.227-45.227c-27.307 0-54.613 17.92-54.613 45.227s27.307 45.227 54.613 45.227zM244.907 620.373c-27.307 0-54.613 17.92-54.613 45.227s27.307 45.227 54.613 45.227c27.307 0 45.227-17.92 45.227-45.227s-17.92-45.227-45.227-45.227zM1024 330.24c0 145.067-145.067 262.827-308.053 262.827-172.373 0-308.053-117.76-308.053-262.827s135.68-262.827 308.053-262.827c35.84 0 72.533 9.387 108.373 17.92l98.987-54.613-27.307 90.453c73.387 54.613 128 127.147 128 209.067zM616.107 375.467c-17.92 0-35.84 17.92-35.84 35.84s17.92 35.84 35.84 35.84c27.307 0 45.227-17.92 45.227-35.84s-17.92-35.84-45.227-35.84zM815.787 375.467c-17.92 0-35.84 17.92-35.84 35.84s17.92 35.84 35.84 35.84c27.307 0 45.227-17.92 45.227-35.84s-17.92-35.84-45.227-35.84z" />
<glyph unicode="&#xe941;" glyph-name="qqzone" d="M1024.167 575.833h-310l-45.833 81.667-125.833 242.5-137.5-242.5-45.833-81.667h-359.167l245.833-211.667-40.833-367.5c0-11.667 325 172.5 325 172.5s310.833-183.333 321.667-172.5l-57.5 367.5 230 211.667zM278.333 215.833l332.5 270.833-310 53.333h470l-285.833-260 298.333-64.167h-505z" />
<glyph unicode="&#xe942;" glyph-name="login1" d="M772.267 699.733c0-143.741-116.525-260.267-260.267-260.267s-260.267 116.525-260.267 260.267c0 143.741 116.525 260.267 260.267 260.267s260.267-116.525 260.267-260.267zM512 388.267c-247.467 0-452.267-200.533-452.267-452.267v0h162.133c4.267 162.133 140.8 290.133 302.933 281.6 153.6-4.267 277.333-128 281.6-281.6h162.133c-4.267 251.733-204.8 452.267-456.533 452.267z" />
<glyph unicode="&#xe943;" glyph-name="password" d="M857.6 610.133h-89.6c12.8 140.8-89.6 264.533-230.4 281.6s-268.8-89.6-281.6-230.4c0-17.067 0-34.133 0-51.2h-89.6c4.267 187.733 157.867 341.333 345.6 349.867 187.733-8.533 341.333-162.133 345.6-349.867v0zM934.4 460.8c0 51.2-42.667 89.6-89.6 89.6h-665.6c-46.933 0-89.6-38.4-89.6-89.6v0-435.2c0-46.933 42.667-89.6 89.6-89.6h661.333c51.2 0 89.6 42.667 89.6 89.6l4.267 435.2zM584.533 123.733c0-38.4-29.867-68.267-68.267-68.267v0h-8.533c-38.4 0-68.267 29.867-68.267 68.267v0 183.467c0 38.4 29.867 68.267 68.267 68.267v0h8.533c38.4 0 68.267-29.867 68.267-68.267v0-183.467z" />
<glyph unicode="&#xe944;" glyph-name="my-collection" d="M512 802.133l89.6-179.2c17.067-34.133 55.467-64 98.133-72.533l200.533-29.867-145.067-140.8c-29.867-29.867-42.667-72.533-38.4-115.2l34.133-200.533-179.2 93.867c-21.333 12.8-42.667 12.8-59.733 12.8s-38.4-4.267-59.733-12.8l-179.2-93.867 34.133 200.533c8.533 38.4-8.533 85.333-38.4 115.2l-145.067 140.8 200.533 29.867c38.4 4.267 81.067 34.133 98.133 72.533l89.6 179.2zM512 934.4c-4.267 0-8.533-4.267-12.8-12.8l-136.533-268.8c-8.533-17.067-29.867-34.133-46.933-34.133l-298.667-42.667c-17.067-4.267-21.333-17.067-8.533-29.867l217.6-213.333c12.8-12.8 21.333-38.4 17.067-55.467l-51.2-298.667c-4.267-12.8 4.267-21.333 12.8-21.333 4.267 0 8.533 0 12.8 4.267l268.8 140.8c8.533 4.267 17.067 4.267 29.867 4.267 8.533 0 21.333 0 29.867-4.267l268.8-140.8c4.267-4.267 8.533-4.267 12.8-4.267 8.533 0 12.8 8.533 12.8 21.333l-51.2 298.667c-4.267 17.067 4.267 42.667 17.067 55.467l217.6 213.333c4.267 12.8 0 25.6-17.067 29.867l-298.667 42.667c-17.067 4.267-38.4 17.067-46.933 34.133l-132.267 273.067c-8.533 4.267-12.8 8.533-17.067 8.533v0z" />
<glyph unicode="&#xe945;" glyph-name="account-setting" d="M512 230.4c-119.467 0-217.6 98.133-217.6 217.6s98.133 217.6 217.6 217.6 217.6-98.133 217.6-217.6-98.133-217.6-217.6-217.6zM512 593.067c-81.067 0-145.067-64-145.067-145.067s64-145.067 145.067-145.067 145.067 64 145.067 145.067-64 145.067-145.067 145.067zM597.333-64h-170.667c-51.2 0-98.133 42.667-98.133 98.133 0 8.533-4.267 17.067-12.8 21.333-12.8 8.533-29.867 17.067-42.667 25.6-8.533 4.267-17.067 4.267-25.6 0-46.933-25.6-106.667-12.8-132.267 38.4l-89.6 145.067c-12.8 21.333-17.067 51.2-8.533 76.8s25.6 46.933 46.933 59.733c8.533 4.267 12.8 12.8 12.8 25.6v51.2c0 8.533-4.267 17.067-12.8 25.6-46.933 25.6-64 85.333-38.4 132.267l85.333 149.333c25.6 46.933 85.333 64 132.267 38.4 8.533-4.267 17.067-4.267 25.6 0 12.8 8.533 29.867 17.067 42.667 25.6 8.533 4.267 12.8 12.8 12.8 21.333 4.267 46.933 46.933 89.6 102.4 89.6h170.667c55.467 0 98.133-42.667 98.133-98.133 0-8.533 4.267-17.067 12.8-21.333 12.8-8.533 29.867-17.067 42.667-25.6 8.533-4.267 17.067-4.267 25.6 0 25.6 12.8 55.467 17.067 76.8 8.533 25.6-8.533 46.933-25.6 59.733-46.933l85.333-149.333c25.6-46.933 12.8-106.667-38.4-132.267-8.533-4.267-12.8-12.8-12.8-25.6v-51.2c0-8.533 4.267-17.067 12.8-25.6 21.333-12.8 38.4-34.133 46.933-59.733s4.267-51.2-8.533-76.8l-85.333-145.067c-25.6-46.933-85.333-64-132.267-38.4-8.533 4.267-17.067 4.267-25.6 0-12.8-8.533-29.867-17.067-42.667-25.6-8.533-4.267-12.8-12.8-12.8-21.333-4.267-46.933-46.933-89.6-102.4-89.6zM256 157.867c17.067 0 38.4-4.267 55.467-17.067 12.8-8.533 25.6-12.8 38.4-21.333 34.133-17.067 55.467-51.2 55.467-89.6 0-12.8 12.8-25.6 25.6-25.6h170.667c12.8 0 25.6 12.8 25.6 25.6 0 38.4 21.333 72.533 55.467 89.6 12.8 4.267 25.6 12.8 38.4 21.333 29.867 21.333 72.533 21.333 102.4 4.267 12.8-8.533 25.6 0 34.133 8.533l85.333 149.333c4.267 4.267 4.267 12.8 0 17.067s-4.267 12.8-12.8 12.8c-34.133 17.067-51.2 51.2-51.2 89.6v38.4c0 38.4 17.067 72.533 51.2 89.6 12.8 8.533 17.067 21.333 8.533 34.133l-81.067 149.333c-4.267 4.267-8.533 8.533-12.8 12.8-4.267 0-12.8 0-17.067 0-34.133-17.067-72.533-17.067-102.4 4.267-12.8 8.533-25.6 12.8-38.4 21.333-34.133 17.067-55.467 51.2-55.467 89.6 0 12.8-12.8 25.6-25.6 25.6h-170.667c-21.333 0-34.133-12.8-34.133-25.6 0-38.4-21.333-72.533-55.467-89.6-12.8-4.267-21.333-8.533-34.133-17.067-29.867-21.333-72.533-21.333-106.667-4.267-12.8 8.533-25.6 0-34.133-8.533l-85.333-149.333c-8.533-12.8 0-25.6 8.533-34.133 34.133-17.067 51.2-51.2 51.2-89.6v-38.4c0-38.4-17.067-72.533-51.2-89.6-4.267-4.267-8.533-8.533-12.8-12.8s0-12.8 0-17.067l85.333-149.333c8.533-12.8 21.333-17.067 34.133-8.533 21.333 0 38.4 4.267 55.467 4.267v0z" />
<glyph unicode="&#xe946;" glyph-name="audit-information" d="M324.267 315.733c-17.067 0-29.867 12.8-29.867 29.867s12.8 29.867 29.867 29.867h354.133c17.067 0 29.867-12.8 29.867-29.867s-12.8-29.867-29.867-29.867h-354.133zM320 149.333c-17.067 0-29.867 12.8-29.867 29.867s12.8 29.867 29.867 29.867h354.133c17.067 0 29.867-12.8 29.867-29.867s-12.8-29.867-29.867-29.867h-354.133zM162.133-64c-25.6 0-42.667 0-55.467 12.8s-21.333 34.133-21.333 68.267v844.8c0 21.333 0 42.667 8.533 55.467s29.867 21.333 68.267 21.333h503.467c12.8 0 21.333-8.533 29.867-17.067 4.267-12.8 4.267-25.6-4.267-34.133-8.533-12.8-17.067-17.067-29.867-17.067h-512v-866.133h721.067v597.333c0 8.533 4.267 21.333 12.8 25.6 4.267 4.267 12.8 8.533 17.067 8.533 17.067 0 29.867-12.8 29.867-34.133v-584.533c0-25.6-4.267-46.933-17.067-59.733-12.8-17.067-34.133-21.333-59.733-21.333h-691.2zM802.133 908.8l4.267 8.533c4.267 8.533 12.8 21.333 21.333 25.6 8.533 12.8 21.333 17.067 34.133 17.067 8.533 0 17.067 0 21.333-4.267 17.067-4.267 38.4-25.6 46.933-42.667 12.8-21.333 8.533-38.4 0-55.467-8.533-12.8-17.067-21.333-17.067-25.6l-8.533-8.533-102.4 85.333zM605.867 490.667c-4.267 0-8.533 0-12.8 4.267s-8.533 12.8-4.267 21.333 8.533 76.8 12.8 89.6c4.267 8.533 4.267 17.067 12.8 29.867 8.533 17.067 140.8 200.533 166.4 238.933l8.533 8.533 102.4-89.6-8.533-4.267c-38.4-51.2-157.867-226.133-162.133-234.667s-12.8-17.067-21.333-21.333-64-38.4-81.067-42.667c-8.533 0-12.8 0-12.8 0z" />
<glyph unicode="&#xe947;" glyph-name="my-enterprise" d="M695.467 42.667v588.8h217.6v-584.533l-217.6-4.267zM110.933 42.667v806.4h512v-802.133l-512-4.267zM985.6 42.667v661.333h-290.133v217.6h-657.067v-874.667h-38.4v-72.533h1024v72.533l-38.4-4.267zM405.333 375.467h145.067v-106.667h-145.067v106.667zM183.467 375.467h145.067v-106.667h-145.067v106.667zM768 375.467h72.533v-106.667h-72.533v106.667zM768 554.667h72.533v-106.667h-72.533v106.667zM405.333 554.667h145.067v-106.667h-145.067v106.667zM183.467 554.667h145.067v-106.667h-145.067v106.667zM405.333 738.133h145.067v-106.667h-145.067v106.667zM183.467 738.133h145.067v-106.667h-145.067v106.667z" />
<glyph unicode="&#xe948;" glyph-name="my-homepage" d="M512 832l-469.333-413.867-42.667 51.2 512 452.267 512-452.267-42.667-51.2-469.333 413.867zM430.933 277.333v-302.933h-328.533v448h64v-379.733h196.267v302.933h290.133v-302.933h196.267v379.733h64v-448h-328.533v302.933h-153.6zM849.067 661.333v132.267h-140.8v68.267h209.067v-200.533h-68.267z" />
</font>
</defs>
</svg>
