<?xml version="1.0" encoding="utf-8"?>
<!-- Generator: Adobe Illustrator 19.2.1, SVG Export Plug-In . SVG Version: 6.00 Build 0)  -->
<svg version="1.1" id="图层_1" xmlns="http://www.w3.org/2000/svg" xmlns:xlink="http://www.w3.org/1999/xlink" x="0px" y="0px"
	 viewBox="0 0 125.8 130.7" style="enable-background:new 0 0 125.8 130.7;" xml:space="preserve">
<style type="text/css">
	.st0{fill:#F3F3F3;}
	.st1{fill:#9C9C9C;}
	.st2{fill:#FFFFFF;stroke:#9C9C9C;stroke-miterlimit:10;}
	.st3{fill:#FFFFFF;}
	.st4{fill:none;stroke:#9C9C9C;stroke-miterlimit:10;}
	.st5{fill:#979797;}
	.st6{fill:#FFDEDE;}
	.st7{fill:none;stroke:#A5A5A5;stroke-miterlimit:10;}
	.st8{fill:#FFF6EE;stroke:#BCBCBC;stroke-miterlimit:10;}
</style>
<g>
	<path class="st0" d="M123.6,117.6c0,6.5-27.1,11.7-60.5,11.7S2.5,124,2.5,117.6c0-6.5,27.1-11.7,60.5-11.7S123.6,111.1,123.6,117.6
		"/>
	<path class="st1" d="M120.3,105.5c-0.4,0-0.7-0.3-0.7-0.7v-9.7c0-0.4,0.3-0.7,0.7-0.7c0.4,0,0.7,0.3,0.7,0.7v9.7
		C120.9,105.2,120.6,105.5,120.3,105.5"/>
	<path class="st1" d="M114.9,100.4c0-0.4,0.3-0.7,0.7-0.7h9.6c0.4,0,0.7,0.3,0.7,0.7c0,0.4-0.3,0.7-0.7,0.7h-9.6
		C115.2,101.1,114.9,100.8,114.9,100.4 M5.5,94.3c-0.4,0-0.7-0.3-0.7-0.7v-9.7c0-0.4,0.3-0.7,0.7-0.7c0.4,0,0.7,0.3,0.7,0.7v9.7
		C6.1,94,5.8,94.3,5.5,94.3"/>
	<path class="st1" d="M0,88.8c0-0.4,0.3-0.7,0.7-0.7h9.6c0.4,0,0.7,0.3,0.7,0.7s-0.3,0.7-0.7,0.7H0.7C0.3,89.5,0,89.2,0,88.8"/>
	<path class="st2" d="M97.6,1.4l4.4,8l8,4.3l-8,4.3l-4.4,8l-4.4-8l-8-4.3l8-4.3L97.6,1.4z"/>
	<path class="st3" d="M115.8,65.5l2.1,3.9l3.9,2.1l-3.9,2.1l-2.1,3.9l-2.1-3.9l-3.9-2.1l3.9-2.1L115.8,65.5z"/>
	<path class="st4" d="M115.8,78l-2.3-4.2l-4.2-2.3l4.2-2.3l2.3-4.2l2.3,4.2l4.2,2.3l-4.2,2.3L115.8,78z"/>
	<path class="st3" d="M47.9,31.2l1.7,3.1l3.1,1.7l-3.1,1.7l-1.7,3.1l-1.7-3.1l-3.1-1.7l3.1-1.7L47.9,31.2z"/>
	<path class="st4" d="M43.6,35.9l2.8,1.5l1.5,2.7l1.5-2.7l2.8-1.5l-2.8-1.5l-1.5-2.7l-1.5,2.7L43.6,35.9z"/>
	<path class="st5" d="M50,62.9c-0.2,0-0.3-0.1-0.3-0.3c0,0,0-0.1,0-0.1c1.3-3,4.2-5.3,4.4-5.4c0.1-0.1,0.3-0.1,0.4,0s0.1,0.3,0,0.4
		l0,0c0,0-2.9,2.3-4.2,5.2C50.2,62.8,50.1,62.9,50,62.9z"/>
	<path class="st5" d="M55.2,61C55.1,61,55,61,55,60.9c-1.5-2.5-4.3-1.9-4.3-1.9c-0.2,0-0.3-0.1-0.3-0.2c0-0.1,0.1-0.3,0.2-0.3
		c0,0,3.2-0.7,4.9,2.1c0.1,0.1,0,0.3-0.1,0.4C55.3,61,55.3,61,55.2,61z M74.9,60.6c-0.2,0-0.3-0.1-0.3-0.3c0-0.1,0-0.1,0.1-0.2
		c0.1-0.1,1.8-2.1,5.2-1.8c0.2,0,0.3,0.2,0.3,0.3c0,0.2-0.2,0.3-0.3,0.3c-3.1-0.3-4.7,1.5-4.7,1.6C75.1,60.6,75,60.6,74.9,60.6
		L74.9,60.6z"/>
	<path class="st5" d="M80.5,63.2c-0.1,0-0.2-0.1-0.3-0.2c-0.6-2.5-4.1-5.5-4.2-5.5c-0.1-0.1-0.1-0.3,0-0.4s0.3-0.1,0.4,0l0,0
		c0.2,0.1,3.7,3.1,4.4,5.8C80.8,63,80.7,63.2,80.5,63.2C80.6,63.2,80.5,63.2,80.5,63.2L80.5,63.2z M55.1,75.3c-0.1,0-0.1,0-0.2-0.1
		c-1.8-1.8-1.9-4.5-1.9-4.6c0-0.1,0.1-0.2,0.2-0.3c0.1,0,0.2,0.1,0.3,0.2c0,0,0,0,0,0c0,0,0.2,2.7,1.8,4.3c0.1,0.1,0.1,0.2,0,0.3
		C55.2,75.3,55.1,75.3,55.1,75.3z M56,72.8c-0.2,0-0.3-0.1-0.3-0.3c0-0.1,0.1-0.2,0.2-0.3c0.1,0,8.6-3.6,19.2-1
		c0.2,0,0.2,0.2,0.2,0.4l0,0c0,0.2-0.2,0.2-0.3,0.2c0,0,0,0,0,0c-10.4-2.6-18.7,0.9-18.8,1C56.1,72.8,56,72.8,56,72.8L56,72.8z"/>
	<path class="st6" d="M67.8,70.7c0,0-0.7,5.1,1.3,6.8c2.1,1.7,5.2-0.3,5.9-5.8L67.8,70.7z"/>
	<path class="st5" d="M70.7,78.4c-0.6,0-1.2-0.2-1.7-0.7c-2.1-1.8-1.5-6.8-1.4-7l0-0.2l7.8,1.1l0,0.2C74.9,74.9,73.3,78.4,70.7,78.4
		z M68,71c-0.1,1-0.4,4.9,1.3,6.3c0.4,0.4,0.9,0.5,1.4,0.5c1.6,0,3.5-1.9,4.1-5.9L68,71L68,71z"/>
	<path class="st3" d="M98.4,42.1H33c-4.7,0-8.5,3.7-8.5,8.3v40.2c0,4.6,3.8,8.3,8.5,8.3h21.8v5.7L47,111c-0.6,0.5-0.8,1.3-0.5,2
		c0.3,0.7,0.9,1.2,1.7,1.2h35.1c0.8,0,1.4-0.5,1.7-1.2c0.3-0.7,0.1-1.5-0.5-2l-7.8-6.6v-5.7h21.8c4.7,0,8.5-3.7,8.5-8.3V50.4
		C106.9,45.8,103.1,42.1,98.4,42.1z M78.4,110.6H53.1l4.7-4c0.2-0.2,0.4-0.5,0.5-0.8h14.8c0.1,0.3,0.3,0.6,0.5,0.8L78.4,110.6z
		 M58.5,104.7v-5.9H73v5.9H58.5z M103.3,90.5c0,2.6-2.2,4.7-4.8,4.7H33c-2.7,0-4.8-2.1-4.8-4.7v-4.7h75.1L103.3,90.5L103.3,90.5z
		 M103.3,83.8H28.2V50.3c0-2.6,2.2-4.6,4.8-4.6h65.4c2.7,0,4.8,2.1,4.8,4.6L103.3,83.8L103.3,83.8z M65.7,92.9
		c1.3,0,2.4-1.1,2.4-2.4s-1.1-2.4-2.4-2.4c-1.3,0-2.4,1.1-2.4,2.4C63.3,91.8,64.4,92.9,65.7,92.9z M65.7,89.3c0.7,0,1.2,0.5,1.2,1.2
		c0,0.7-0.5,1.2-1.2,1.2c-0.7,0-1.2-0.5-1.2-1.2C64.5,89.9,65.1,89.3,65.7,89.3z"/>
	<path class="st7" d="M83.3,114.4H48.2c-0.9,0-1.6-0.5-1.9-1.3c-0.3-0.8-0.1-1.7,0.6-2.2l7.8-6.5V99H33c-4.8,0-8.7-3.8-8.7-8.5V50.4
		c0-4.7,3.9-8.5,8.7-8.5h65.4c4.8,0,8.7,3.8,8.7,8.5v40.2c0,4.7-3.9,8.5-8.7,8.5H76.9v5.3l7.8,6.5c0.7,0.5,0.9,1.4,0.6,2.2
		C84.9,113.9,84.1,114.4,83.3,114.4L83.3,114.4z M53.7,110.4h24l-4.2-3.5c-0.2-0.2-0.4-0.4-0.5-0.7H58.5c-0.1,0.3-0.3,0.5-0.5,0.7
		L53.7,110.4z M58.7,104.5h14V99h-14L58.7,104.5z M28.4,86v4.5c0,2.5,2.1,4.5,4.6,4.5h65.4c2.5,0,4.6-2,4.6-4.5V86H28.4z M65.7,93.1
		c-1.5,0-2.7-1.2-2.7-2.6c0-1.4,1.2-2.6,2.7-2.6s2.7,1.2,2.7,2.6S67.2,93.1,65.7,93.1z M65.7,89.6c-0.5,0-1,0.4-1,0.9
		c0,0.5,0.4,0.9,1,0.9s1-0.4,1-0.9C66.7,90,66.3,89.6,65.7,89.6z M28.4,83.3H103v-33c0-2.4-2.1-4.4-4.6-4.4H33c-2.5,0-4.6,2-4.6,4.4
		L28.4,83.3z"/>
	<path class="st8" d="M32.7,121.3l-10.4,3.1l-1.4-4.7l6.8-15.4l5-1.5l3.7,12.6l2.6-0.8l1.3,4.4l-2.6,0.8l1.1,3.8l-5,1.5L32.7,121.3
		L32.7,121.3z M31.4,116.8l-1.9-6.5l-3.6,8.1L31.4,116.8L31.4,116.8z"/>
	<path class="st8" d="M66.2,122.7l-9.7-4.7l2.1-4.4l15.4-6.8l4.7,2.3l-5.8,11.8l2.4,1.2l-2,4.1l-2.4-1.2l-1.8,3.6l-4.7-2.3
		L66.2,122.7z M68.2,118.5l2.9-6.1l-8.1,3.6L68.2,118.5z"/>
	<path class="st8" d="M39.1,115.5c-0.2-4.1,0.4-6.9,1.8-8.6c1.4-1.7,3.6-2.6,6.6-2.8c1.4-0.1,2.6,0,3.6,0.4c0.9,0.3,1.7,0.7,2.3,1.3
		c0.6,0.5,1.1,1.1,1.5,1.7c0.4,0.6,0.7,1.3,0.9,2.2c0.5,1.6,0.8,3.2,0.9,5c0.2,3.9-0.3,6.8-1.5,8.6c-1.2,1.9-3.4,2.9-6.6,3
		c-1.8,0.1-3.3-0.1-4.4-0.6c-1.1-0.5-2.1-1.3-2.9-2.4c-0.6-0.8-1-1.8-1.4-3.2C39.4,118.7,39.2,117.2,39.1,115.5z M45,115.2
		c0.1,2.7,0.5,4.6,1,5.5c0.5,1,1.3,1.4,2.2,1.4c0.6,0,1.1-0.3,1.5-0.7c0.4-0.4,0.7-1.1,0.9-2.1c0.2-0.9,0.2-2.4,0.1-4.3
		c-0.1-2.8-0.5-4.7-1-5.7c-0.5-1-1.3-1.4-2.2-1.4c-1,0.1-1.7,0.6-2.1,1.6C45,110.7,44.9,112.5,45,115.2z"/>
</g>
</svg>
