<?xml version="1.0" encoding="utf-8"?>
<!-- Generator: Adobe Illustrator 19.2.1, SVG Export Plug-In . SVG Version: 6.00 Build 0)  -->
<svg version="1.1" id="图层_1" xmlns="http://www.w3.org/2000/svg" xmlns:xlink="http://www.w3.org/1999/xlink" x="0px" y="0px"
	 viewBox="0 0 235.7 104.3" style="enable-background:new 0 0 235.7 104.3;" xml:space="preserve">
<style type="text/css">
	.st0{fill:#F3F3F3;}
	.st1{fill:#FFFFFF;stroke:#9C9C9C;stroke-miterlimit:10;}
	.st2{fill:#FFF6EE;stroke:#9C9C9C;stroke-miterlimit:10;}
	.st3{fill:#9C9C9C;}
	.st4{fill:#FFF6EE;stroke:#BCBCBC;stroke-miterlimit:10;}
</style>
<g>
	<path class="st0" d="M141.9,89.3c0,7.1-31.3,12.8-70,12.8s-70-5.7-70-12.8c0-7.1,31.3-12.8,70-12.8S141.9,82.3,141.9,89.3"/>
	<path class="st1" d="M96.7,12.8H38.6c-3.6,0-6.5,2.9-6.5,6.5l0,0v59.8c0,3.6,2.9,6.5,6.5,6.5l0,0h27v-2.6h-27
		c-2.1,0-3.9-1.7-3.9-3.9l0,0V62.1h44.8v-2.6H34.7V38.8h65.9v20h2.6V19.3C103.2,15.8,100.3,12.9,96.7,12.8L96.7,12.8z M100.6,36.2
		H34.7V19.3c0-2.1,1.7-3.9,3.9-3.9l0,0h58.2c2.1,0,3.9,1.7,3.9,3.9v0V36.2z"/>
	<path class="st1" d="M64.1,49.2c0,1.4,1.1,2.6,2.6,2.6s2.6-1.2,2.6-2.6s-1.1-2.6-2.6-2.6S64.1,47.7,64.1,49.2z"/>
	<path class="st1" d="M53.1,49.2c0,1.4,1.1,2.6,2.6,2.6c1.4,0,2.6-1.2,2.6-2.6s-1.1-2.6-2.6-2.6C54.3,46.6,53.1,47.7,53.1,49.2z"/>
	<path class="st1" d="M42.1,49.2c0,1.4,1.1,2.6,2.6,2.6c1.4,0,2.6-1.2,2.6-2.6s-1.1-2.6-2.6-2.6C43.3,46.6,42.1,47.7,42.1,49.2z"/>
	<path class="st1" d="M53.1,72.5c0,1.4,1.1,2.6,2.6,2.6c1.4,0,2.6-1.2,2.6-2.6c0-1.4-1.1-2.6-2.6-2.6C54.3,69.9,53.1,71.1,53.1,72.5
		z"/>
	<path class="st1" d="M42.1,72.5c0,1.4,1.1,2.6,2.6,2.6c1.4,0,2.6-1.2,2.6-2.6c0-1.4-1.1-2.6-2.6-2.6C43.3,69.9,42.1,71.1,42.1,72.5
		z"/>
	<path class="st1" d="M42.1,25.8c0,1.4,1.1,2.6,2.6,2.6c1.4,0,2.6-1.2,2.6-2.6c0-1.4-1.1-2.6-2.6-2.6C43.3,23.3,42.1,24.4,42.1,25.8
		z"/>
	<path class="st1" d="M53.1,25.8c0,1.4,1.1,2.6,2.6,2.6c1.4,0,2.6-1.2,2.6-2.6c0-1.4-1.1-2.6-2.6-2.6C54.3,23.3,53.1,24.4,53.1,25.8
		z"/>
	<path class="st1" d="M64.1,25.8c0,1.4,1.1,2.6,2.6,2.6s2.6-1.2,2.6-2.6c0-1.4-1.1-2.6-2.6-2.6S64.1,24.4,64.1,25.8z"/>
	<path class="st2" d="M89,82.6c0,1.2,0.9,2.1,2.1,2.1c1.2,0,2.1-1,2.1-2.1l0,0c0-1.2-0.9-2.1-2.1-2.1C89.9,80.5,89,81.5,89,82.6z"/>
	<path class="st2" d="M91.1,77.6c1,0,1.3-0.7,1.3-1.5L93,61.6c0-1.3-0.4-2.2-2-2.2c-1.5,0-1.9,0.9-1.9,2.2l0.7,14.5
		C89.9,76.9,90.1,77.6,91.1,77.6L91.1,77.6z"/>
	<path class="st1" d="M95.5,45.5L119,84.7c2.4,4,0.6,7.2-4.1,7.2H67.3c-4.7,0-6.5-3.2-4.1-7.2l23.6-39.2
		C89.1,41.5,93,41.5,95.5,45.5z M65.4,86c-1.3,2.3-0.8,3.3,1.9,3.3H115c2.6,0,3.2-1,1.9-3.3L93.2,46.8c-1.4-2.3-2.9-2.3-4.2,0
		L65.4,86z"/>
	<path class="st1" d="M106,17.9l-2.8-5.1l-5.1-2.8l5.1-2.8l2.8-5.1l2.8,5.1l5.1,2.8l-5.1,2.8L106,17.9z"/>
	<path class="st1" d="M23,19.6l-2.4-4.4l-4.4-2.4l4.4-2.4L23,6.1l2.4,4.4l4.4,2.4l-4.4,2.4L23,19.6z"/>
	<path class="st1" d="M116.8,40.6l-1.9-3.5l-3.5-1.9l3.5-1.9l1.9-3.5l1.9,3.5l3.5,1.9l-3.5,1.9L116.8,40.6z"/>
	<path class="st3" d="M17.2,59.9H8.6c-0.6,0-1.1-0.5-1.1-1.1l0,0c0-0.6,0.5-1.1,1.1-1.1h8.6c0.6,0,1.1,0.5,1.1,1.1l0,0
		C18.3,59.4,17.8,59.9,17.2,59.9z"/>
	<path class="st3" d="M14,54.5v8.6c0,0.6-0.5,1.1-1.1,1.1h0c-0.6,0-1.1-0.5-1.1-1.1v-8.6c0-0.6,0.5-1.1,1.1-1.1h0
		C13.5,53.4,14,53.9,14,54.5z"/>
	<path class="st3" d="M131.6,61.7h-11.2c-0.8,0-1.4-0.6-1.4-1.4v0c0-0.8,0.6-1.4,1.4-1.4h11.2c0.8,0,1.4,0.6,1.4,1.4v0
		C133.1,61.1,132.4,61.7,131.6,61.7z"/>
	<path class="st3" d="M127.5,54.7v11.2c0,0.8-0.6,1.4-1.4,1.4l0,0c-0.8,0-1.4-0.6-1.4-1.4V54.7c0-0.8,0.6-1.4,1.4-1.4l0,0
		C126.8,53.2,127.5,53.9,127.5,54.7z"/>
	<g>
		<path class="st4" d="M176.6,39.8c-0.5-1.5-1.4-2.8-2.5-4c-0.8-0.9-1.8-1.6-3.1-2.2c-1.3-0.5-2.8-0.8-4.4-0.9
			c-2.5,0-4.7,0.8-6.7,2.3v-9.5h16.7v-6h-22.3v22.7h5.7c0.7-1.3,1.5-2.2,2.4-2.7c0.9-0.5,1.9-0.7,3-0.7c1.2,0,2.3,0.2,3.1,0.5
			c0.8,0.4,1.4,1,1.9,1.7c0.8,1.5,1.2,3.4,1.1,5.8c0,1,0,2-0.1,3c-0.1,1.1-0.3,2-0.6,2.9c-0.3,0.9-0.9,1.6-1.7,2.2
			c-0.9,0.6-2,0.9-3.5,0.9c-3.4,0-5.4-1.7-6-4.9h-6c0.6,3.9,2.1,6.6,4.5,8.4c2.4,1.7,5,2.5,7.8,2.5c2.1,0,3.9-0.5,5.5-1.5
			c1.6-0.9,2.8-1.9,3.6-3c0.9-1.1,1.6-2.4,2-3.8c0.4-1.5,0.6-3.5,0.6-6.3c0-1.8-0.1-3.2-0.2-4.5C177,41.7,176.9,40.7,176.6,39.8z"/>
		<path class="st4" d="M193.6,19.3c-3.2,0-5.9,1-8.2,3.1c-2.4,2.1-3.7,5.1-3.7,8.9v18.5c0,3.9,1.3,6.8,3.7,8.9
			c2.3,2.1,5,3.1,8.2,3.2c3.3,0,6-1.1,8.3-3.2c2.3-2.1,3.5-5.1,3.6-8.9V31.3c-0.1-3.9-1.3-6.9-3.6-8.9
			C199.7,20.3,196.9,19.3,193.6,19.3z M199.5,49.5c-0.1,4.2-2.1,6.4-5.9,6.4c-3.8,0-5.8-2.2-5.9-6.4V31.7c0.1-4.2,2-6.3,5.9-6.4
			c3.8,0.1,5.8,2.2,5.9,6.4V49.5z"/>
		<path class="st4" d="M230.2,22.4c-2.3-2.1-5.1-3.1-8.3-3.1c-3.2,0-5.9,1-8.2,3.1c-2.4,2.1-3.7,5.1-3.7,8.9v18.5h0
			c0,3.9,1.3,6.8,3.7,8.9c2.3,2.1,5,3.1,8.2,3.2c3.3,0,6-1.1,8.3-3.2c2.3-2.1,3.5-5.1,3.6-8.9V31.3
			C233.7,27.4,232.5,24.4,230.2,22.4z M227.8,49.5c-0.1,4.2-2.1,6.4-5.9,6.4c-3.8,0-5.8-2.2-5.9-6.4V31.7c0.1-4.2,2-6.3,5.9-6.4
			c3.8,0.1,5.8,2.2,5.9,6.4V49.5z"/>
	</g>
</g>
</svg>
