<?xml version="1.0" encoding="utf-8"?>
<!-- Generator: Adobe Illustrator 19.2.1, SVG Export Plug-In . SVG Version: 6.00 Build 0)  -->
<svg version="1.1" id="图层_1" xmlns="http://www.w3.org/2000/svg" xmlns:xlink="http://www.w3.org/1999/xlink" x="0px" y="0px"
	 viewBox="0 0 221.3 182.7" style="enable-background:new 0 0 221.3 182.7;" xml:space="preserve">
<style type="text/css">
	.st0{fill:#F3F3F3;}
	.st1{fill:#FFFFFF;}
	.st2{fill:#9C9C9C;}
	.st3{fill:#CCCCCC;}
	.st4{fill:#999999;}
	.st5{fill:#F5F5F5;}
	.st6{fill:#FFF6EE;}
</style>
<g>
	<path class="st0" d="M218,105.6h-5c-0.7,0-1.3-0.6-1.3-1.3v0c0-0.7,0.6-1.3,1.3-1.3h5c0.7,0,1.3,0.6,1.3,1.3v0
		C219.3,105.1,218.7,105.6,218,105.6z"/>
	<path class="st0" d="M210.8,96.1v5c0,0.7-0.6,1.3-1.3,1.3l0,0c-0.7,0-1.3-0.6-1.3-1.3v-5c0-0.7,0.6-1.3,1.3-1.3l0,0
		C210.2,94.8,210.8,95.4,210.8,96.1z"/>
	<path class="st0" d="M210.8,107.7v5c0,0.7-0.6,1.3-1.3,1.3l0,0c-0.7,0-1.3-0.6-1.3-1.3v-5c0-0.7,0.6-1.3,1.3-1.3l0,0
		C210.2,106.4,210.8,107,210.8,107.7z"/>
	<path class="st0" d="M206.2,105.6h-5c-0.7,0-1.3-0.6-1.3-1.3v0c0-0.7,0.6-1.3,1.3-1.3h5c0.7,0,1.3,0.6,1.3,1.3v0
		C207.5,105.1,206.9,105.6,206.2,105.6z"/>
	<circle class="st0" cx="54.7" cy="4.1" r="3"/>
	<g>
		<path class="st0" d="M145.1,7.6c-2.2,0-3.9,1.8-3.9,3.9c0,2.2,1.8,3.9,3.9,3.9c2.2,0,3.9-1.8,3.9-3.9C149,9.4,147.3,7.6,145.1,7.6
			z M145.1,14c-1.3,0-2.4-1.1-2.4-2.4s1.1-2.4,2.4-2.4s2.4,1.1,2.4,2.4S146.4,14,145.1,14z"/>
	</g>
	<path class="st0" d="M12.8,31.4H3.5c-0.8,0-1.5-0.7-1.5-1.5v0c0-0.8,0.7-1.5,1.5-1.5h9.3c0.8,0,1.5,0.7,1.5,1.5v0
		C14.3,30.7,13.6,31.4,12.8,31.4z"/>
	<path class="st0" d="M9.7,25.2v9.3C9.7,35.3,9,36,8.2,36h0c-0.8,0-1.5-0.7-1.5-1.5v-9.3c0-0.8,0.7-1.5,1.5-1.5h0
		C9,23.7,9.7,24.4,9.7,25.2z"/>
	<path class="st0" d="M36.1,177h-9.3c-0.8,0-1.5-0.7-1.5-1.5l0,0c0-0.8,0.7-1.5,1.5-1.5h9.3c0.8,0,1.5,0.7,1.5,1.5l0,0
		C37.6,176.3,36.9,177,36.1,177z"/>
	<path class="st0" d="M32.9,170.8v9.3c0,0.8-0.7,1.5-1.5,1.5h0c-0.8,0-1.5-0.7-1.5-1.5v-9.3c0-0.8,0.7-1.5,1.5-1.5h0
		C32.3,169.3,32.9,170,32.9,170.8z"/>
	<path class="st0" d="M192,112.7l-17.8-15.8c-0.5-42.7-35.3-77.2-78.1-77.2C77.8,19.7,61,26,47.7,36.5l-6.9-6.2
		c-2.3-2-5.7-1.8-7.7,0.5c-2,2.3-1.8,5.7,0.5,7.7l6.1,5.4l4.7,4.2c2.8,2.5,3.1,6.8,0.6,9.7c-1.9,2.1-4.8,2.9-7.4,1.9L23.8,47.6
		c-4.5-4-11.5-3.6-15.5,0.9S4.7,60,9.2,64l12.2,10.8c-2.2,7.3-3.4,15-3.4,23c0,43.2,35,78.1,78.1,78.1c23.6,0,44.7-10.4,59-26.9
		l8.6,7.6c2,1.8,4.6,2.8,7.3,2.8c3,0,6.1-1.2,8.2-3.7c4-4.5,3.6-11.5-0.9-15.5l-19.5-17.3c-2.4-3.1-2.4-7.5,0.3-10.6
		c2.6-2.9,6.7-3.5,10-1.8l13.9,12.3c1.3,1.1,2.9,1.7,4.5,1.7c1.9,0,3.8-0.8,5.1-2.3C195.1,119.5,194.9,115.2,192,112.7L192,112.7z"
		/>
	<g>
		<path class="st1" d="M151.2,97.5c0,1-0.8,1.9-1.9,1.9h-5.4c-1,0-1.9-0.8-1.9-1.9c0-1,0.8-1.9,1.9-1.9h5.4
			C150.4,95.6,151.2,96.5,151.2,97.5z M74.4,120.2c0,1.5-1.1,2.7-2.7,2.7H43.6c-1.5,0-2.7-1.1-2.7-2.7c0-1.5,1.1-2.7,2.7-2.7h28.2
			C73.2,117.6,74.4,118.8,74.4,120.2z M80.3,128.3c0,1.5-1.1,2.7-2.7,2.7H62.2c-1.5,0-2.7-1.1-2.7-2.7s1.1-2.7,2.7-2.7h15.4
			C79.1,125.7,80.3,126.9,80.3,128.3z M66.6,113c0,1.5-1.1,2.7-2.7,2.7H48.6c-1.5,0-2.7-1.1-2.7-2.7c0-1.5,1.1-2.7,2.7-2.7H64
			C65.4,110.4,66.6,111.6,66.6,113z M153.9,84.6c0,1-0.8,1.9-1.9,1.9h-10.8c-1,0-1.9-0.8-1.9-1.9s0.8-1.9,1.9-1.9H152
			C153,82.7,153.9,83.6,153.9,84.6L153.9,84.6z M159,89.5c0,1-0.8,1.9-1.9,1.9h-21c-1,0-1.9-0.8-1.9-1.9s0.8-1.9,1.9-1.9h21
			C158.2,87.6,159,88.5,159,89.5z"/>
		<path class="st1" d="M121.4,70H95.8v-2c0-2.5-2-4.5-4.5-4.5H72.7c-2.5,0-4.5,2-4.5,4.5v2.2c-1.9,0.5-3.4,2.2-3.4,4.4v20.7
			c0,2.5,2,4.5,4.5,4.5h52.2c2.5,0,4.5-2,4.5-4.5V74.3C126,72,123.9,70,121.4,70L121.4,70z"/>
		<path class="st1" d="M121.4,100.3H69.3c-3,0-5.3-2.3-5.3-5.3V74.3c0-2.2,1.4-4.1,3.4-4.8v-1.6c0-3,2.3-5.3,5.3-5.3h18.6
			c3,0,5.3,2.3,5.3,5.3v1.2h24.9c3,0,5.3,2.3,5.3,5.3v20.7C126.8,97.9,124.4,100.3,121.4,100.3z"/>
		<path class="st2" d="M121.4,100.3H69.3c-3,0-5.3-2.3-5.3-5.3V74.3c0-2.2,1.4-4.1,3.4-4.8v-1.6c0-3,2.3-5.3,5.3-5.3h18.6
			c3,0,5.3,2.3,5.3,5.3v1.2h24.9c3,0,5.3,2.3,5.3,5.3v20.7C126.8,97.9,124.4,100.3,121.4,100.3z M72.5,64.2c-2,0-3.6,1.9-3.6,4v2.8
			l-0.6,0.2c-1.6,0.2-2.7,1.7-2.7,3.3v20.7c0,2,1.7,3.7,3.7,3.7h52.2c2,0,3.7-1.7,3.7-3.7V74.3c0-2-1.7-3.7-3.7-3.7H95.2v-2.7
			c0-2-1.7-3.7-3.7-3.7H72.7H72.5z"/>
		<path class="st1" d="M122.8,125.4H68c-2.2,0-4.1-1.6-4.4-3.4l-4.1-40.1c-0.3-2.5,1.6-4.4,4.1-4.4h63.4c2.5,0,4.4,2,4.1,4.4
			l-4.2,40.1C126.9,123.9,125,125.4,122.8,125.4z"/>
		<path class="st3" d="M122.8,126.2H68c-2.5,0-4.8-1.9-5.1-4.1l-4.1-40.1c-0.2-1.4,0.3-2.7,1.2-3.7c0.9-1.1,2.2-1.6,3.7-1.6h63.4
			c1.4,0,2.8,0.6,3.7,1.6c0.9,0.9,1.2,2.3,1.2,3.7l-4.2,40.1C127.7,124.3,125.3,126.2,122.8,126.2L122.8,126.2z M63.7,78.4
			c-1.1,0-1.9,0.3-2.5,1.1c-0.6,0.6-0.9,1.6-0.8,2.5l4.2,39.9c0.2,1.4,1.7,2.7,3.6,2.7h54.7c1.7,0,3.4-1.2,3.6-2.7l4.2-40.1
			c0.2-0.9-0.2-1.9-0.8-2.5c-0.6-0.8-1.6-1.1-2.5-1.1H63.7V78.4L63.7,78.4z"/>
		<path class="st1" d="M122.8,125.4H68c-2.2,0-4.1-1.6-4.4-3.4l-4.1-40.1c-0.3-2.5,1.6-4.4,4.1-4.4h63.4c2.5,0,4.4,2,4.1,4.4
			l-4.2,40.1C126.9,123.9,125,125.4,122.8,125.4z"/>
		<path class="st2" d="M122.8,126.2H68c-2.5,0-4.8-1.9-5.1-4.1l-4.1-40.1c-0.2-1.4,0.3-2.7,1.2-3.7c0.9-1.1,2.2-1.6,3.7-1.6h63.4
			c1.4,0,2.8,0.6,3.7,1.6c0.9,0.9,1.2,2.3,1.2,3.7l-4.2,40.1C127.7,124.3,125.3,126.2,122.8,126.2L122.8,126.2z M63.7,78.4
			c-1.1,0-1.9,0.3-2.5,1.1c-0.6,0.6-0.9,1.6-0.8,2.5l4.2,39.9c0.2,1.4,1.7,2.7,3.6,2.7h54.7c1.7,0,3.4-1.2,3.6-2.7l4.2-40.1
			c0.2-0.9-0.2-1.9-0.8-2.5c-0.6-0.8-1.6-1.1-2.5-1.1H63.7V78.4L63.7,78.4z"/>
		<path class="st1" d="M59.5,102.3l2.2-3.9l2.2,3.9l4.1,2.2l-4.1,2.2l-2.2,4.1l-2.2-4.1l-3.9-2.2L59.5,102.3z"/>
		<path class="st4" d="M61.6,112.2l-2.8-5l-5-2.8l5-2.8l2.8-5l2.8,5l5,2.8l-5,2.8L61.6,112.2z M57.2,104.4l3,1.6l1.6,3l1.6-3l3-1.6
			l-3-1.6l-1.6-3l-1.6,3L57.2,104.4z"/>
		<path class="st5" d="M59.5,102.3l2.2-3.9l2.2,3.9l4.1,2.2l-4.1,2.2l-2.2,4.1l-2.2-4.1l-3.9-2.2L59.5,102.3z"/>
		<path class="st2" d="M61.6,112.2l-2.8-5l-5-2.8l5-2.8l2.8-5l2.8,5l5,2.8l-5,2.8L61.6,112.2z M57.2,104.4l3,1.6l1.6,3l1.6-3l3-1.6
			l-3-1.6l-1.6-3l-1.6,3L57.2,104.4z"/>
		<path class="st1" d="M79.2,91c0,0.7,0.4,1.3,0.9,1.6c0.6,0.3,1.3,0.3,1.9,0c0.6-0.3,0.9-1,0.9-1.6c0-0.7-0.4-1.3-0.9-1.6
			c-0.6-0.3-1.3-0.3-1.9,0C79.5,89.6,79.2,90.3,79.2,91z"/>
		<path class="st2" d="M81,93.6c-1.4,0-2.7-1.2-2.7-2.7c0-1.5,1.2-2.7,2.7-2.7s2.7,1.2,2.7,2.7C83.7,92.4,82.5,93.6,81,93.6z
			 M81,89.9c-0.6,0-1.1,0.5-1.1,1.1c0,0.6,0.5,1.1,1.1,1.1c0.6,0,1.1-0.5,1.1-1.1C82.1,90.3,81.6,89.9,81,89.9z"/>
		<path class="st1" d="M108,91c0,1,0.8,1.9,1.9,1.9c1,0,1.9-0.8,1.9-1.9s-0.8-1.9-1.9-1.9C108.7,89.1,108,89.9,108,91z"/>
		<path class="st2" d="M109.8,93.6c-1.4,0-2.7-1.2-2.7-2.7c0-1.5,1.2-2.7,2.7-2.7s2.7,1.2,2.7,2.7C112.5,92.4,111.3,93.6,109.8,93.6
			z M109.8,89.9c-0.6,0-1.1,0.5-1.1,1.1c0,0.6,0.5,1.1,1.1,1.1c0.6,0,1.1-0.5,1.1-1.1C110.9,90.3,110.4,89.9,109.8,89.9z"/>
		<path class="st6" d="M98.2,130.9c-2-2-1.7-5.3,0.5-7.4l15.2-14.6c1.9-1.7,4.7-1.7,6.4,0c1.7,1.7,1.7,4.7,0,6.4l-14.6,15.2
			C103.4,132.6,100,132.7,98.2,130.9L98.2,130.9z"/>
		<path class="st2" d="M101.4,132.9c-1.6,0-2.8-0.6-3.9-1.6c-1.1-1.1-1.6-2.5-1.6-3.9c0-1.7,0.8-3.4,2-4.7l15.2-14.6
			c2-2,5.4-2,7.4,0c2,2,2,5.4,0,7.4l-14.6,15.2C104.9,132.1,103.1,132.9,101.4,132.9z M117,108.2c-0.9,0-2,0.3-2.7,1.1L99.1,124
			c-0.9,0.9-1.6,2.2-1.6,3.6c0,1.1,0.3,2,1.1,2.8c1.6,1.6,4.5,1.4,6.4-0.5l14.6-15.2c1.4-1.6,1.4-3.9,0-5.3
			C119,108.7,118.1,108.2,117,108.2L117,108.2z"/>
		<path class="st1" d="M108.4,102.6c0,10,8,18,18,18s18-8,18-18s-8-18-18-18S108.4,92.6,108.4,102.6z"/>
		<path class="st2" d="M126.4,121.3c-5,0-9.6-2-13.2-5.4c-7.3-7.3-7.3-19.1,0-26.4c3.6-3.6,8.2-5.4,13.2-5.4s9.6,2,13.2,5.4
			c7.3,7.3,7.3,19.1,0,26.4C136.1,119.4,131.4,121.3,126.4,121.3z M126.4,85.3c-4.7,0-8.8,1.7-12.1,5c-6.7,6.7-6.7,17.5,0,24.3
			c3.3,3.3,7.6,5,12.1,5s8.8-1.9,12.1-5c6.7-6.7,6.7-17.5,0-24.3C135.3,87.2,130.9,85.3,126.4,85.3z"/>
		<path class="st1" d="M109.2,102.6c0,9.5,7.7,17.2,17.2,17.2s17.2-7.7,17.2-17.2s-7.7-17.2-17.2-17.2S109.2,93.1,109.2,102.6z"/>
		<path class="st1" d="M112.3,102.6c0,5.1,2.7,9.7,7.1,12.2c4.4,2.5,9.7,2.5,14.2,0c4.4-2.5,7.1-7.2,7.1-12.2
			c0-5.1-2.7-9.7-7.1-12.2c-4.4-2.5-9.7-2.5-14.2,0C115,92.9,112.3,97.5,112.3,102.6z"/>
		<path class="st2" d="M126.4,117.5c-4.1,0-7.8-1.6-10.6-4.4s-4.4-6.5-4.4-10.6c0-4.1,1.6-7.8,4.4-10.6s6.5-4.4,10.6-4.4
			s7.8,1.6,10.6,4.4s4.4,6.5,4.4,10.6c0,4.1-1.6,7.8-4.4,10.6C134.2,116,130.3,117.5,126.4,117.5z M126.4,89.1c-3.6,0-7,1.4-9.5,3.9
			c-2.5,2.5-3.9,5.9-3.9,9.5s1.4,7,3.9,9.5c2.5,2.5,5.9,3.9,9.5,3.9s7-1.4,9.5-3.9c2.5-2.5,3.9-5.9,3.9-9.5s-1.4-7-3.9-9.5
			C133.2,90.5,130,89.1,126.4,89.1z"/>
		<path class="st6" d="M112.9,102.5c0,4.8,2.5,9.3,6.7,11.7c4.2,2.4,9.3,2.5,13.5,0.1c4.2-2.4,6.8-6.8,6.8-11.7
			c0.1-7.4-6-13.5-13.4-13.6C119,89,113,95.1,112.9,102.5L112.9,102.5z"/>
		<path class="st1" d="M103,124.2c-0.5-0.5-0.5-1.1,0-1.6l6.7-6.7c0.5-0.5,1.1-0.5,1.6,0s0.5,1.1,0,1.6l-6.7,6.7
			C104.2,124.6,103.4,124.6,103,124.2z M100.2,125.7c0,0.7,0.5,1.2,1.2,1.2c0.7,0,1.2-0.5,1.2-1.2s-0.5-1.2-1.2-1.2
			C100.8,124.5,100.2,125.1,100.2,125.7z M119.8,94.8C119.6,94.8,119.6,94.8,119.8,94.8c-0.5-0.5-0.3-1.1,0.2-1.4
			c4.5-3.3,10.6-2.8,14.6,1.1c0.3,0.3,0.3,0.9,0,1.4c-0.3,0.3-0.9,0.3-1.4,0c-3.3-3.3-8.4-3.6-12.1-0.9
			C120.5,95.3,120.1,95.3,119.8,94.8 M115.6,101.7c-0.2-0.2-0.3-0.5-0.3-0.8c0.2-1.1,0.5-2.2,1.1-3.3c0.2-0.5,0.8-0.6,1.2-0.5
			c0.5,0.2,0.6,0.8,0.5,1.2c-0.5,0.8-0.8,1.7-0.9,2.7c-0.2,0.5-0.6,0.9-1.1,0.8C115.9,101.8,115.7,101.8,115.6,101.7"/>
		<path class="st2" d="M108,112.2c-0.3,0-0.6-0.2-0.8-0.5c-2-4.7-6.7-7.6-11.8-7.6c-5.1,0-9.6,3-11.8,7.6c-0.2,0.5-0.6,0.6-1.1,0.5
			c-0.5-0.2-0.6-0.6-0.5-1.1c2.3-5.1,7.4-8.5,13.2-8.5c5.7,0,10.9,3.4,13.2,8.5C108.6,111.6,108.4,111.9,108,112.2
			C108.1,112.2,108,112.2,108,112.2z"/>
	</g>
</g>
</svg>
