<?xml version="1.0" encoding="utf-8"?>
<!-- Generator: Adobe Illustrator 19.2.1, SVG Export Plug-In . SVG Version: 6.00 Build 0)  -->
<svg version="1.1" id="图形" xmlns="http://www.w3.org/2000/svg" xmlns:xlink="http://www.w3.org/1999/xlink" x="0px" y="0px"
	 viewBox="0 0 36 36" style="enable-background:new 0 0 36 36;" xml:space="preserve">
<style type="text/css">
	.st0{fill:#FFFFFF;}
	.st1{fill:#1986C0;}
</style>
<image style="overflow:visible;" width="36" height="36" xlink:href="../../../../Library/Containers/com.tencent.qq/Data/Library/Caches/Images/FB796E9FD47AEF17D38257C5C9210037.png"  transform="matrix(1 0 0 1 -89 -2.34)">
</image>
<circle class="st0" cx="18" cy="18" r="18"/>
<path class="st1" d="M13.9,24.8c-1.4,0.2-5.1,1.6-8,3.8c3.2,2.9,7.5,4.7,12.2,4.7c4.7,0,8.9-1.8,12.1-4.7c-2.9-2.2-6.5-3.5-8-3.8
	c-0.8-0.1-0.8-2.3-0.8-2.3s2.3-2.3,2.9-5.5c1.4,0,2.3-3.4,0.8-4.5c0.1-1.5,1.8-10-7-10s-7.1,8.5-7,9.9c-1.4,1.2-0.5,4.5,0.8,4.5
	c0.5,3.2,2.9,5.5,2.9,5.5S14.7,24.7,13.9,24.8z"/>
</svg>
